QalamBadi-Regular.ufo
<glyph name="exclam" format="2">
  <advance width="434"/>
  <unicode hex="0021"/>
  <outline>
    <contour>
      <point x="152.0" y="1269.0" type="line" smooth="yes"/>
      <point x="122.0" y="1269.0"/>
      <point x="108.0" y="1254.0"/>
      <point x="111.0" y="1219.0" type="curve" smooth="yes"/>
      <point x="159.0" y="512.0" type="line" smooth="yes"/>
      <point x="161.0" y="481.0"/>
      <point x="183.0" y="464.0"/>
      <point x="217.0" y="464.0" type="curve" smooth="yes"/>
      <point x="252.0" y="464.0"/>
      <point x="272.0" y="481.0"/>
      <point x="274.0" y="512.0" type="curve" smooth="yes"/>
      <point x="323.0" y="1219.0" type="line" smooth="yes"/>
      <point x="326.0" y="1254.0"/>
      <point x="312.0" y="1269.0"/>
      <point x="282.0" y="1269.0" type="curve" smooth="yes"/>
    </contour>
    <contour>
      <point x="92.0" y="207.0" type="curve" smooth="yes"/>
      <point x="92.0" y="53.0" type="line" smooth="yes"/>
      <point x="92.0" y="8.0"/>
      <point x="129.0" y="-10.0"/>
      <point x="217.0" y="-10.0" type="curve" smooth="yes"/>
      <point x="305.0" y="-10.0"/>
      <point x="342.0" y="8.0"/>
      <point x="342.0" y="53.0" type="curve" smooth="yes"/>
      <point x="342.0" y="207.0" type="line" smooth="yes"/>
      <point x="342.0" y="252.0"/>
      <point x="305.0" y="270.0"/>
      <point x="217.0" y="270.0" type="curve" smooth="yes"/>
      <point x="129.0" y="270.0"/>
      <point x="92.0" y="252.0"/>
    </contour>
  </outline>
</glyph>
<glyph name="numbersign" format="2">
  <advance width="1292"/>
  <unicode hex="0023"/>
  <outline>
    <contour>
      <point x="928.0" y="1176.0" type="curve" smooth="yes"/>
      <point x="853.6977242053309" y="890.1637101644528" type="line" smooth="yes"/>
      <point x="850.2308722710368" y="876.8269437772929"/>
      <point x="834.936494140625" y="865.0"/>
      <point x="821.156494140625" y="865.0" type="curve" smooth="yes"/>
      <point x="611.9946899414062" y="865.0" type="line" smooth="yes"/>
      <point x="598.2146899414063" y="865.0"/>
      <point x="589.0690681110631" y="876.8269437670912"/>
      <point x="592.5359200896123" y="890.1637101427473" type="curve" smooth="yes"/>
      <point x="658.0" y="1142.0" type="line" smooth="yes"/>
      <point x="669.0" y="1184.0"/>
      <point x="627.0" y="1209.0"/>
      <point x="588.0" y="1209.0" type="curve" smooth="yes"/>
      <point x="564.0" y="1209.0"/>
      <point x="540.0" y="1199.0"/>
      <point x="534.0" y="1176.0" type="curve" smooth="yes"/>
      <point x="459.697724205331" y="890.1637101644528" type="line" smooth="yes"/>
      <point x="456.2308722710368" y="876.8269437772929"/>
      <point x="440.936494140625" y="865.0"/>
      <point x="427.156494140625" y="865.0" type="curve" smooth="yes"/>
      <point x="225.0" y="865.0" type="line" smooth="yes"/>
      <point x="180.0" y="865.0"/>
      <point x="162.0" y="845.0"/>
      <point x="162.0" y="793.0" type="curve" smooth="yes"/>
      <point x="162.0" y="741.0"/>
      <point x="180.0" y="721.0"/>
      <point x="225.0" y="721.0" type="curve" smooth="yes"/>
      <point x="389.7241516113281" y="721.0" type="line" smooth="yes"/>
      <point x="403.5041516113281" y="721.0"/>
      <point x="412.649773232439" y="709.1730562872981"/>
      <point x="409.18292101794697" y="695.8362899729747" type="curve" smooth="yes"/>
      <point x="358.5783704859593" y="501.16371002702533" type="line" smooth="yes"/>
      <point x="355.1115182714673" y="487.8269437127019"/>
      <point x="339.8171398925781" y="476.0"/>
      <point x="326.0371398925781" y="476.0" type="curve" smooth="yes"/>
      <point x="155.0" y="476.0" type="line" smooth="yes"/>
      <point x="110.0" y="476.0"/>
      <point x="92.0" y="456.0"/>
      <point x="92.0" y="404.0" type="curve" smooth="yes"/>
      <point x="92.0" y="352.0"/>
      <point x="110.0" y="332.0"/>
      <point x="155.0" y="332.0" type="curve" smooth="yes"/>
      <point x="288.6047668457031" y="332.0" type="line" smooth="yes"/>
      <point x="302.3847668457031" y="332.0"/>
      <point x="311.53038917361084" y="320.1730561035684"/>
      <point x="308.063537756145" y="306.83628958206043" type="curve" smooth="yes"/>
      <point x="240.0" y="45.0" type="line" smooth="yes"/>
      <point x="229.0" y="3.0"/>
      <point x="271.0" y="-22.0"/>
      <point x="310.0" y="-22.0" type="curve" smooth="yes"/>
      <point x="334.0" y="-22.0"/>
      <point x="358.0" y="-12.0"/>
      <point x="364.0" y="11.0" type="curve" smooth="yes"/>
      <point x="440.9017335256942" y="306.83628959017915" type="line" smooth="yes"/>
      <point x="444.368584959713" y="320.1730561073842"/>
      <point x="459.6629626464844" y="332.0"/>
      <point x="473.4429626464844" y="332.0" type="curve" smooth="yes"/>
      <point x="682.6047973632812" y="332.0" type="line" smooth="yes"/>
      <point x="696.3847973632812" y="332.0"/>
      <point x="705.5304185131943" y="320.1730564097846"/>
      <point x="702.0635657673514" y="306.83629023358424" type="curve" smooth="yes"/>
      <point x="634.0" y="45.0" type="line" smooth="yes"/>
      <point x="623.0" y="3.0"/>
      <point x="665.0" y="-22.0"/>
      <point x="704.0" y="-22.0" type="curve" smooth="yes"/>
      <point x="728.0" y="-22.0"/>
      <point x="752.0" y="-12.0"/>
      <point x="758.0" y="11.0" type="curve" smooth="yes"/>
      <point x="834.901761802373" y="306.83629017269413" type="line" smooth="yes"/>
      <point x="838.3686144240685" y="320.17305638116625"/>
      <point x="853.6629931640625" y="332.0"/>
      <point x="867.4429931640625" y="332.0" type="curve" smooth="yes"/>
      <point x="1067.0" y="332.0" type="line" smooth="yes"/>
      <point x="1112.0" y="332.0"/>
      <point x="1130.0" y="352.0"/>
      <point x="1130.0" y="404.0" type="curve" smooth="yes"/>
      <point x="1130.0" y="456.0"/>
      <point x="1112.0" y="476.0"/>
      <point x="1067.0" y="476.0" type="curve" smooth="yes"/>
      <point x="904.8753051757812" y="476.0" type="line" smooth="yes"/>
      <point x="891.0953051757813" y="476.0"/>
      <point x="881.9496835546704" y="487.8269437127019"/>
      <point x="885.4165357691625" y="501.16371002702533" type="curve" smooth="yes"/>
      <point x="936.02108630115" y="695.8362899729747" type="line" smooth="yes"/>
      <point x="939.4879385156421" y="709.1730562872981"/>
      <point x="954.7823168945313" y="721.0"/>
      <point x="968.5623168945312" y="721.0" type="curve" smooth="yes"/>
      <point x="1137.0" y="721.0" type="line" smooth="yes"/>
      <point x="1182.0" y="721.0"/>
      <point x="1200.0" y="741.0"/>
      <point x="1200.0" y="793.0" type="curve" smooth="yes"/>
      <point x="1200.0" y="845.0"/>
      <point x="1182.0" y="865.0"/>
      <point x="1137.0" y="865.0" type="curve" smooth="yes"/>
      <point x="1005.9946899414062" y="865.0" type="line" smooth="yes"/>
      <point x="992.2146899414063" y="865.0"/>
      <point x="983.0690681110631" y="876.8269437670912"/>
      <point x="986.5359200896123" y="890.1637101427473" type="curve" smooth="yes"/>
      <point x="1052.0" y="1142.0" type="line" smooth="yes"/>
      <point x="1063.0" y="1184.0"/>
      <point x="1021.0" y="1209.0"/>
      <point x="982.0" y="1209.0" type="curve" smooth="yes"/>
      <point x="958.0" y="1209.0"/>
      <point x="934.0" y="1199.0"/>
    </contour>
    <contour>
      <point x="542.0210892371857" y="695.8362892097613" type="line" smooth="yes"/>
      <point x="545.4879398955788" y="709.1730559285878"/>
      <point x="560.7823168945313" y="721.0"/>
      <point x="574.5623168945312" y="721.0" type="curve" smooth="yes"/>
      <point x="783.72412109375" y="721.0" type="line" smooth="yes"/>
      <point x="797.50412109375" y="721.0"/>
      <point x="806.6497427148608" y="709.1730562872981"/>
      <point x="803.1828905003688" y="695.8362899729747" type="curve" smooth="yes"/>
      <point x="752.5783399683812" y="501.16371002702533" type="line" smooth="yes"/>
      <point x="749.1114877538892" y="487.8269437127019"/>
      <point x="733.817109375" y="476.0"/>
      <point x="720.037109375" y="476.0" type="curve" smooth="yes"/>
      <point x="510.8753356933594" y="476.0" type="line" smooth="yes"/>
      <point x="497.0953356933594" y="476.0"/>
      <point x="487.9497126923118" y="487.8269440714122"/>
      <point x="491.4165633507049" y="501.1637107902387" type="curve" smooth="yes"/>
    </contour>
  </outline>
</glyph>
<glyph name="dollar" format="2">
  <advance width="1040"/>
  <unicode hex="0024"/>
  <outline>
    <contour>
      <point x="91.685869776738" y="817.0" type="curve" smooth="yes"/>
      <point x="91.685869776738" y="694.0"/>
      <point x="155.685869776738" y="629.0"/>
      <point x="245.685869776738" y="592.0" type="curve" smooth="yes"/>
      <point x="387.685869776738" y="533.0"/>
      <point x="594.685869776738" y="543.0"/>
      <point x="711.685869776738" y="500.0" type="curve" smooth="yes"/>
      <point x="768.685869776738" y="479.0"/>
      <point x="804.685869776738" y="447.0"/>
      <point x="804.685869776738" y="388.0" type="curve" smooth="yes"/>
      <point x="804.685869776738" y="289.0"/>
      <point x="720.685869776738" y="220.0"/>
      <point x="543.685869776738" y="220.0" type="curve" smooth="yes"/>
      <point x="412.685869776738" y="220.0"/>
      <point x="284.685869776738" y="256.0"/>
      <point x="179.685869776738" y="317.0" type="curve" smooth="yes"/>
      <point x="149.685869776738" y="335.0"/>
      <point x="119.685869776738" y="332.0"/>
      <point x="93.685869776738" y="281.0" type="curve" smooth="yes"/>
      <point x="69.685869776738" y="232.0"/>
      <point x="80.685869776738" y="200.0"/>
      <point x="118.685869776738" y="179.0" type="curve" smooth="yes"/>
      <point x="215.4298883314255" y="124.04940032958984"/>
      <point x="325.95094546033175" y="91.26187133789062"/>
      <point x="418.8179788820458" y="81.86428721545536" type="curve" smooth="yes"/>
      <point x="432.52796105623264" y="80.47691964214293"/>
      <point x="444.685869776738" y="67.02661254882813"/>
      <point x="444.685869776738" y="53.246612548828125" type="curve" smooth="yes"/>
      <point x="444.685869776738" y="-160.0" type="line" smooth="yes"/>
      <point x="444.685869776738" y="-206.0"/>
      <point x="465.685869776738" y="-225.0"/>
      <point x="514.685869776738" y="-225.0" type="curve" smooth="yes"/>
      <point x="563.685869776738" y="-225.0"/>
      <point x="584.685869776738" y="-206.0"/>
      <point x="584.685869776738" y="-160.0" type="curve" smooth="yes"/>
      <point x="584.685869776738" y="48.69508361816406" type="line" smooth="yes"/>
      <point x="584.685869776738" y="62.475083618164064"/>
      <point x="596.8952973956384" y="75.20329343588661"/>
      <point x="610.6633753488668" y="75.7763811026801" type="curve" smooth="yes"/>
      <point x="832.2655816908004" y="85.00043487548828"/>
      <point x="958.685869776738" y="209.01754760742188"/>
      <point x="958.685869776738" y="388.0" type="curve" smooth="yes"/>
      <point x="958.685869776738" y="529.0"/>
      <point x="883.685869776738" y="599.0"/>
      <point x="782.685869776738" y="638.0" type="curve" smooth="yes"/>
      <point x="634.685869776738" y="694.0"/>
      <point x="431.685869776738" y="684.0"/>
      <point x="322.685869776738" y="725.0" type="curve" smooth="yes"/>
      <point x="274.685869776738" y="743.0"/>
      <point x="245.685869776738" y="770.0"/>
      <point x="245.685869776738" y="817.0" type="curve" smooth="yes"/>
      <point x="245.685869776738" y="919.0"/>
      <point x="333.685869776738" y="975.0"/>
      <point x="478.685869776738" y="975.0" type="curve" smooth="yes"/>
      <point x="601.685869776738" y="975.0"/>
      <point x="718.685869776738" y="944.0"/>
      <point x="821.685869776738" y="889.0" type="curve" smooth="yes"/>
      <point x="853.685869776738" y="872.0"/>
      <point x="883.685869776738" y="876.0"/>
      <point x="906.685869776738" y="928.0" type="curve" smooth="yes"/>
      <point x="929.685869776738" y="978.0"/>
      <point x="917.685869776738" y="1010.0"/>
      <point x="879.685869776738" y="1030.0" type="curve" smooth="yes"/>
      <point x="789.6678644056442" y="1076.868896484375"/>
      <point x="689.6875177259567" y="1104.3665771484375"/>
      <point x="610.5441378377357" y="1112.6642828692477" type="curve" smooth="yes"/>
      <point x="596.839255765407" y="1114.1011570403432"/>
      <point x="584.685869776738" y="1127.5953662109375"/>
      <point x="584.685869776738" y="1141.3753662109375" type="curve" smooth="yes"/>
      <point x="584.685869776738" y="1347.0" type="line" smooth="yes"/>
      <point x="584.685869776738" y="1393.0"/>
      <point x="563.685869776738" y="1412.0"/>
      <point x="514.685869776738" y="1412.0" type="curve" smooth="yes"/>
      <point x="465.685869776738" y="1412.0"/>
      <point x="444.685869776738" y="1393.0"/>
      <point x="444.685869776738" y="1347.0" type="curve" smooth="yes"/>
      <point x="444.685869776738" y="1146.3218994140625" type="line" smooth="yes"/>
      <point x="444.685869776738" y="1132.5418994140625"/>
      <point x="432.4786313180238" y="1119.7635722589914"/>
      <point x="418.7130219922398" y="1119.13396929689" type="curve" smooth="yes"/>
      <point x="240.02891787244113" y="1110.96142578125"/>
      <point x="91.685869776738" y="1004.9342651367188"/>
    </contour>
  </outline>
</glyph>
<glyph name="ampersand" format="2">
  <advance width="1119"/>
  <unicode hex="0026"/>
  <outline>
    <contour>
      <point x="199.0" y="920.0" type="curve" smooth="yes"/>
      <point x="199.0" y="814.8869018554688"/>
      <point x="232.40463256835938" y="735.7551879882812"/>
      <point x="290.8994140625" y="661.4988403320312" type="curve"/>
      <point x="173.81039428710938" y="576.6770629882812"/>
      <point x="92.0" y="472.4951477050781"/>
      <point x="92.0" y="320.0" type="curve" smooth="yes"/>
      <point x="92.0" y="136.0"/>
      <point x="223.0" y="-22.0"/>
      <point x="451.0" y="-22.0" type="curve" smooth="yes"/>
      <point x="579.7356567382812" y="-22.0"/>
      <point x="684.0641479492188" y="38.045814514160156"/>
      <point x="768.5027465820312" y="135.95297241210938" type="curve"/>
      <point x="889.0" y="4.0" type="line" smooth="yes"/>
      <point x="915.0" y="-24.0"/>
      <point x="941.0" y="-24.0"/>
      <point x="984.0" y="0.0" type="curve" smooth="yes"/>
      <point x="1032.0" y="27.0"/>
      <point x="1039.0" y="56.0"/>
      <point x="1008.0" y="90.0" type="curve" smooth="yes"/>
      <point x="854.045654296875" y="258.6298522949219" type="line"/>
      <point x="909.1432495117188" y="354.7789306640625"/>
      <point x="953.072265625" y="469.1168518066406"/>
      <point x="988.0" y="591.0" type="curve" smooth="yes"/>
      <point x="1001.0" y="637.0"/>
      <point x="993.0" y="664.0"/>
      <point x="933.0" y="673.0" type="curve" smooth="yes"/>
      <point x="879.0" y="681.0"/>
      <point x="856.0" y="673.0"/>
      <point x="843.0" y="628.0" type="curve" smooth="yes"/>
      <point x="818.564697265625" y="537.58935546875"/>
      <point x="788.1585693359375" y="449.12841796875"/>
      <point x="750.2927856445312" y="372.2728271484375" type="curve"/>
      <point x="452.0" y="699.0" type="line" smooth="yes"/>
      <point x="389.0" y="769.0"/>
      <point x="353.0" y="832.0"/>
      <point x="353.0" y="920.0" type="curve" smooth="yes"/>
      <point x="353.0" y="1028.0"/>
      <point x="426.0" y="1121.0"/>
      <point x="552.0" y="1121.0" type="curve" smooth="yes"/>
      <point x="636.0" y="1121.0"/>
      <point x="713.0" y="1095.0"/>
      <point x="781.0" y="1050.0" type="curve" smooth="yes"/>
      <point x="810.0" y="1031.0"/>
      <point x="841.0" y="1031.0"/>
      <point x="868.0" y="1081.0" type="curve" smooth="yes"/>
      <point x="895.0" y="1132.0"/>
      <point x="886.0" y="1160.0"/>
      <point x="850.0" y="1182.0" type="curve" smooth="yes"/>
      <point x="764.0" y="1236.0"/>
      <point x="664.0" y="1269.0"/>
      <point x="553.0" y="1269.0" type="curve" smooth="yes"/>
      <point x="336.0" y="1269.0"/>
      <point x="199.0" y="1116.0"/>
    </contour>
    <contour>
      <point x="669.96826171875" y="243.85519409179688" type="line"/>
      <point x="610.7868041992188" y="171.3944854736328"/>
      <point x="538.7393798828125" y="126.0"/>
      <point x="451.0" y="126.0" type="curve" smooth="yes"/>
      <point x="331.0" y="126.0"/>
      <point x="246.0" y="204.0"/>
      <point x="246.0" y="320.0" type="curve" smooth="yes"/>
      <point x="246.0" y="417.8015441894531"/>
      <point x="292.9942626953125" y="486.0810546875"/>
      <point x="386.0474853515625" y="554.7684326171875" type="curve"/>
    </contour>
  </outline>
</glyph>
<glyph name="quotesingle" format="2">
  <advance width="409"/>
  <unicode hex="0027"/>
  <outline>
    <contour>
      <point x="122.63632365591434" y="1269.0" type="line" smooth="yes"/>
      <point x="92.63632365591434" y="1269.0"/>
      <point x="77.63632365591434" y="1254.0"/>
      <point x="81.63632365591434" y="1219.0" type="curve" smooth="yes"/>
      <point x="136.63632365591434" y="769.0" type="line" smooth="yes"/>
      <point x="140.63632365591434" y="735.0"/>
      <point x="165.63632365591434" y="715.0"/>
      <point x="204.63632365591434" y="715.0" type="curve" smooth="yes"/>
      <point x="244.63632365591434" y="715.0"/>
      <point x="268.63632365591434" y="735.0"/>
      <point x="272.63632365591434" y="769.0" type="curve" smooth="yes"/>
      <point x="327.63632365591434" y="1219.0" type="line" smooth="yes"/>
      <point x="331.63632365591434" y="1254.0"/>
      <point x="316.63632365591434" y="1269.0"/>
      <point x="286.63632365591434" y="1269.0" type="curve" smooth="yes"/>
    </contour>
  </outline>
</glyph>
<glyph name="parenleft" format="2">
  <advance width="709"/>
  <unicode hex="0028"/>
  <outline>
    <contour>
      <point x="81.0" y="517.0" type="curve" smooth="yes"/>
      <point x="81.0" y="94.0"/>
      <point x="331.0" y="-203.0"/>
      <point x="555.0" y="-337.0" type="curve" smooth="yes"/>
      <point x="584.0" y="-354.0"/>
      <point x="614.0" y="-333.0"/>
      <point x="632.0" y="-303.0" type="curve" smooth="yes"/>
      <point x="650.0" y="-273.0"/>
      <point x="657.0" y="-234.0"/>
      <point x="636.0" y="-220.0" type="curve" smooth="yes"/>
      <point x="438.0" y="-90.0"/>
      <point x="229.0" y="146.0"/>
      <point x="229.0" y="517.0" type="curve" smooth="yes"/>
      <point x="229.0" y="888.0"/>
      <point x="438.0" y="1128.0"/>
      <point x="636.0" y="1258.0" type="curve" smooth="yes"/>
      <point x="657.0" y="1272.0"/>
      <point x="650.0" y="1311.0"/>
      <point x="632.0" y="1341.0" type="curve" smooth="yes"/>
      <point x="614.0" y="1371.0"/>
      <point x="584.0" y="1392.0"/>
      <point x="555.0" y="1375.0" type="curve" smooth="yes"/>
      <point x="331.0" y="1241.0"/>
      <point x="81.0" y="940.0"/>
    </contour>
  </outline>
</glyph>
<glyph name="parenright" format="2">
  <advance width="709"/>
  <unicode hex="0029"/>
  <outline>
    <contour>
      <point x="97.91016430825306" y="1341.0" type="curve" smooth="yes"/>
      <point x="79.91016430825306" y="1311.0"/>
      <point x="72.91016430825306" y="1272.0"/>
      <point x="93.91016430825306" y="1258.0" type="curve" smooth="yes"/>
      <point x="291.91016430825306" y="1128.0"/>
      <point x="500.91016430825306" y="888.0"/>
      <point x="500.91016430825306" y="517.0" type="curve" smooth="yes"/>
      <point x="500.91016430825306" y="146.0"/>
      <point x="291.91016430825306" y="-90.0"/>
      <point x="93.91016430825306" y="-220.0" type="curve" smooth="yes"/>
      <point x="72.91016430825306" y="-234.0"/>
      <point x="79.91016430825306" y="-273.0"/>
      <point x="97.91016430825306" y="-303.0" type="curve" smooth="yes"/>
      <point x="115.91016430825306" y="-333.0"/>
      <point x="145.91016430825306" y="-354.0"/>
      <point x="174.91016430825306" y="-337.0" type="curve" smooth="yes"/>
      <point x="398.91016430825306" y="-203.0"/>
      <point x="648.9101643082531" y="94.0"/>
      <point x="648.9101643082531" y="517.0" type="curve" smooth="yes"/>
      <point x="648.9101643082531" y="940.0"/>
      <point x="398.91016430825306" y="1241.0"/>
      <point x="174.91016430825306" y="1375.0" type="curve" smooth="yes"/>
      <point x="145.91016430825306" y="1392.0"/>
      <point x="115.91016430825306" y="1371.0"/>
    </contour>
  </outline>
</glyph>
<glyph name="asterisk" format="2">
  <advance width="1200"/>
  <unicode hex="002A"/>
  <outline>
    <contour>
      <point x="1036.079794294203" y="647.0" type="line" smooth="yes"/>
      <point x="1094.079794294203" y="660.0"/>
      <point x="1121.079794294203" y="701.0"/>
      <point x="1101.079794294203" y="765.0" type="curve" smooth="yes"/>
      <point x="1080.079794294203" y="829.0"/>
      <point x="1035.079794294203" y="848.0"/>
      <point x="981.0797942942031" y="824.0" type="curve" smooth="yes"/>
      <point x="694.8997275583313" y="693.4616951453402" type="line" smooth="yes"/>
      <point x="671.7539318492418" y="682.9039614399895"/>
      <point x="653.8590882947399" y="695.9475393068516"/>
      <point x="656.8255923359868" y="721.2139884790892" type="curve" smooth="yes"/>
      <point x="693.0797942942031" y="1030.0" type="line" smooth="yes"/>
      <point x="699.0797942942031" y="1089.0"/>
      <point x="667.0797942942031" y="1127.0"/>
      <point x="600.0797942942031" y="1127.0" type="curve" smooth="yes"/>
      <point x="533.0797942942031" y="1127.0"/>
      <point x="500.0797942942031" y="1089.0"/>
      <point x="507.0797942942031" y="1030.0" type="curve" smooth="yes"/>
      <point x="542.7077794090715" y="721.2242171219318" type="line" smooth="yes"/>
      <point x="545.6238175374491" y="695.9518938881282"/>
      <point x="527.6919941781747" y="682.9201290201466"/>
      <point x="504.5549637510409" y="693.4970578283538" type="curve" smooth="yes"/>
      <point x="219.0797942942031" y="824.0" type="line" smooth="yes"/>
      <point x="165.0797942942031" y="848.0"/>
      <point x="119.07979429420313" y="829.0"/>
      <point x="99.07979429420313" y="765.0" type="curve" smooth="yes"/>
      <point x="78.07979429420313" y="701.0"/>
      <point x="105.07979429420313" y="660.0"/>
      <point x="163.0797942942031" y="647.0" type="curve" smooth="yes"/>
      <point x="469.23798995182216" y="585.0170501408602" type="line" smooth="yes"/>
      <point x="494.1721259896122" y="579.9690346843684"/>
      <point x="501.1431156387224" y="558.7676170799709"/>
      <point x="484.06988282226945" y="539.9076509825679" type="curve" smooth="yes"/>
      <point x="265.0797942942031" y="298.0" type="line" smooth="yes"/>
      <point x="225.0797942942031" y="254.0"/>
      <point x="229.0797942942031" y="207.0"/>
      <point x="284.0797942942031" y="167.0" type="curve" smooth="yes"/>
      <point x="339.0797942942031" y="128.0"/>
      <point x="386.0797942942031" y="143.0"/>
      <point x="417.0797942942031" y="194.0" type="curve" smooth="yes"/>
      <point x="575.9319169554822" y="472.46590327343046" type="line" smooth="yes"/>
      <point x="588.537461744809" y="494.5632750756217"/>
      <point x="610.9280190315864" y="494.5824538293809"/>
      <point x="623.5714005443704" y="472.5067091324925" type="curve" smooth="yes"/>
      <point x="783.0797942942031" y="194.0" type="line" smooth="yes"/>
      <point x="813.0797942942031" y="143.0"/>
      <point x="861.0797942942031" y="127.0"/>
      <point x="916.0797942942031" y="167.0" type="curve" smooth="yes"/>
      <point x="970.0797942942031" y="206.0"/>
      <point x="974.0797942942031" y="254.0"/>
      <point x="934.0797942942031" y="298.0" type="curve" smooth="yes"/>
      <point x="715.2017657695566" y="539.7838711937229" type="line" smooth="yes"/>
      <point x="698.1285332411348" y="558.6438375518701"/>
      <point x="705.0977377284441" y="579.8540652412285"/>
      <point x="730.0298604234061" y="584.9120152136343" type="curve" smooth="yes"/>
    </contour>
  </outline>
</glyph>
<glyph name="plus" format="2">
  <advance width="1132"/>
  <unicode hex="002B"/>
  <outline>
    <contour>
      <point x="185.0" y="654.0" type="line" smooth="yes"/>
      <point x="140.0" y="654.0"/>
      <point x="122.0" y="634.0"/>
      <point x="122.0" y="582.0" type="curve" smooth="yes"/>
      <point x="122.0" y="530.0"/>
      <point x="140.0" y="510.0"/>
      <point x="185.0" y="510.0" type="curve" smooth="yes"/>
      <point x="446.0" y="510.0" type="line" smooth="yes"/>
      <point x="471.44000000000005" y="510.0"/>
      <point x="494.0" y="487.44"/>
      <point x="494.0" y="462.0" type="curve" smooth="yes"/>
      <point x="494.0" y="201.0" type="line" smooth="yes"/>
      <point x="494.0" y="156.0"/>
      <point x="514.0" y="138.0"/>
      <point x="566.0" y="138.0" type="curve" smooth="yes"/>
      <point x="618.0" y="138.0"/>
      <point x="638.0" y="156.0"/>
      <point x="638.0" y="201.0" type="curve" smooth="yes"/>
      <point x="638.0" y="462.0" type="line" smooth="yes"/>
      <point x="638.0" y="487.44"/>
      <point x="660.56" y="510.0"/>
      <point x="686.0" y="510.0" type="curve" smooth="yes"/>
      <point x="947.0" y="510.0" type="line" smooth="yes"/>
      <point x="992.0" y="510.0"/>
      <point x="1010.0" y="530.0"/>
      <point x="1010.0" y="582.0" type="curve" smooth="yes"/>
      <point x="1010.0" y="634.0"/>
      <point x="992.0" y="654.0"/>
      <point x="947.0" y="654.0" type="curve" smooth="yes"/>
      <point x="686.0" y="654.0" type="line" smooth="yes"/>
      <point x="660.56" y="654.0"/>
      <point x="638.0" y="676.56"/>
      <point x="638.0" y="702.0" type="curve" smooth="yes"/>
      <point x="638.0" y="963.0" type="line" smooth="yes"/>
      <point x="638.0" y="1008.0"/>
      <point x="618.0" y="1026.0"/>
      <point x="566.0" y="1026.0" type="curve" smooth="yes"/>
      <point x="514.0" y="1026.0"/>
      <point x="494.0" y="1008.0"/>
      <point x="494.0" y="963.0" type="curve" smooth="yes"/>
      <point x="494.0" y="702.0" type="line" smooth="yes"/>
      <point x="494.0" y="676.56"/>
      <point x="471.44000000000005" y="654.0"/>
      <point x="446.0" y="654.0" type="curve" smooth="yes"/>
    </contour>
  </outline>
</glyph>
<glyph name="comma" format="2">
  <advance width="560"/>
  <unicode hex="002C"/>
  <outline>
    <contour>
      <point x="239.5906427363833" y="294.0" type="line" smooth="yes"/>
      <point x="211.5906427363833" y="294.0"/>
      <point x="192.5906427363833" y="280.0"/>
      <point x="187.5906427363833" y="254.0" type="curve" smooth="yes"/>
      <point x="93.5906427363833" y="-228.0" type="line" smooth="yes"/>
      <point x="85.5906427363833" y="-270.0"/>
      <point x="107.5906427363833" y="-294.0"/>
      <point x="163.5906427363833" y="-294.0" type="curve" smooth="yes"/>
      <point x="209.5906427363833" y="-294.0"/>
      <point x="237.5906427363833" y="-281.0"/>
      <point x="249.5906427363833" y="-253.0" type="curve" smooth="yes"/>
      <point x="461.5906427363833" y="231.0" type="line" smooth="yes"/>
      <point x="476.5906427363833" y="266.0"/>
      <point x="466.5906427363833" y="294.0"/>
      <point x="433.5906427363833" y="294.0" type="curve" smooth="yes"/>
    </contour>
  </outline>
</glyph>
<glyph name="period" format="2">
  <advance width="454"/>
  <unicode hex="002E"/>
  <outline>
    <contour>
      <point x="92.0" y="237.0" type="curve" smooth="yes"/>
      <point x="92.0" y="53.0" type="line" smooth="yes"/>
      <point x="92.0" y="8.0"/>
      <point x="132.0" y="-10.0"/>
      <point x="227.0" y="-10.0" type="curve" smooth="yes"/>
      <point x="322.0" y="-10.0"/>
      <point x="362.0" y="8.0"/>
      <point x="362.0" y="53.0" type="curve" smooth="yes"/>
      <point x="362.0" y="237.0" type="line" smooth="yes"/>
      <point x="362.0" y="282.0"/>
      <point x="322.0" y="300.0"/>
      <point x="227.0" y="300.0" type="curve" smooth="yes"/>
      <point x="132.0" y="300.0"/>
      <point x="92.0" y="282.0"/>
    </contour>
  </outline>
</glyph>
<glyph name="slash" format="2">
  <advance width="1017"/>
  <unicode hex="002F"/>
  <outline>
    <contour>
      <point x="767.4144743478536" y="1358.0" type="curve" smooth="yes"/>
      <point x="95.41447434785357" y="-285.0" type="line" smooth="yes"/>
      <point x="79.41447434785357" y="-325.0"/>
      <point x="121.41447434785357" y="-355.0"/>
      <point x="184.41447434785357" y="-355.0" type="curve" smooth="yes"/>
      <point x="216.41447434785357" y="-355.0"/>
      <point x="240.41447434785357" y="-340.0"/>
      <point x="249.41447434785357" y="-319.0" type="curve" smooth="yes"/>
      <point x="921.4144743478536" y="1324.0" type="line" smooth="yes"/>
      <point x="937.4144743478536" y="1364.0"/>
      <point x="895.4144743478536" y="1394.0"/>
      <point x="832.4144743478536" y="1394.0" type="curve" smooth="yes"/>
      <point x="800.4144743478536" y="1394.0"/>
      <point x="776.4144743478536" y="1379.0"/>
    </contour>
  </outline>
</glyph>
<glyph name="zero" format="2">
  <advance width="1080"/>
  <unicode hex="0030"/>
  <outline>
    <contour>
      <point x="116.0" y="593.0" type="curve" smooth="yes"/>
      <point x="116.0" y="223.0"/>
      <point x="280.0" y="-22.0"/>
      <point x="540.0" y="-22.0" type="curve" smooth="yes"/>
      <point x="800.0" y="-22.0"/>
      <point x="964.0" y="223.0"/>
      <point x="964.0" y="593.0" type="curve" smooth="yes"/>
      <point x="964.0" y="963.0"/>
      <point x="800.0" y="1209.0"/>
      <point x="540.0" y="1209.0" type="curve" smooth="yes"/>
      <point x="280.0" y="1209.0"/>
      <point x="116.0" y="963.0"/>
    </contour>
    <contour>
      <point x="301.366143000809" y="429.95637075746254" type="line" smooth="yes"/>
      <point x="293.31044750090757" y="420.9444240655777"/>
      <point x="284.08987892456054" y="423.4687478088379"/>
      <point x="281.7479119873047" y="435.3272723388672" type="curve" smooth="yes"/>
      <point x="275.645751953125" y="466.2254943847656"/>
      <point x="270.0" y="526.39013671875"/>
      <point x="270.0" y="593.0" type="curve" smooth="yes"/>
      <point x="270.0" y="891.0"/>
      <point x="383.0" y="1061.0"/>
      <point x="540.0" y="1061.0" type="curve" smooth="yes"/>
      <point x="623.3623046875" y="1061.0"/>
      <point x="694.3197021484375" y="1013.072021484375"/>
      <point x="722.2893383789062" y="961.1221960449219" type="curve" smooth="yes"/>
      <point x="733.0238918701172" y="941.184211315918"/>
      <point x="729.1606156750344" y="908.5321787519775"/>
      <point x="714.0696017936237" y="891.6497863344102" type="curve" smooth="yes"/>
    </contour>
    <contour>
      <point x="810.0" y="593.0" type="curve" smooth="yes"/>
      <point x="810.0" y="295.0"/>
      <point x="697.0" y="126.0"/>
      <point x="540.0" y="126.0" type="curve" smooth="yes"/>
      <point x="456.8135986328125" y="126.0"/>
      <point x="385.9798278808594" y="173.44515991210938"/>
      <point x="358.0137139892578" y="225.0305206298828" type="curve" smooth="yes"/>
      <point x="347.28051234741207" y="244.82862631225586"/>
      <point x="351.06816552657745" y="277.2781397089829"/>
      <point x="366.07255054067343" y="294.0720384952595" type="curve" smooth="yes"/>
      <point x="778.6891053102557" y="755.899740985739" type="line" smooth="yes"/>
      <point x="786.7432905065624" y="764.9145170572426"/>
      <point x="795.9558750976563" y="762.3903951293945"/>
      <point x="798.2903491210938" y="750.5292687988281" type="curve" smooth="yes"/>
      <point x="804.3729858398438" y="719.624267578125"/>
      <point x="810.0" y="659.4991455078125"/>
    </contour>
  </outline>
</glyph>
<glyph name="one" format="2">
  <advance width="1080"/>
  <unicode hex="0031"/>
  <outline>
    <contour>
      <point x="354.77681133802645" y="968.0" type="line" smooth="yes"/>
      <point x="343.84883074076356" y="950.0"/>
      <point x="339.1133724819496" y="915.0"/>
      <point x="348.5842889995775" y="870.0" type="curve" smooth="yes"/>
      <point x="358.4194715371141" y="823.0"/>
      <point x="370.44025019410327" y="823.0"/>
      <point x="379.91116671173114" y="839.0" type="curve" smooth="yes"/>
      <point x="446.3706704214891" y="952.5718720225201" type="line" smooth="yes"/>
      <point x="459.2193201026769" y="974.5287798505844"/>
      <point x="470.6134056690132" y="971.44"/>
      <point x="470.6134056690132" y="946.0" type="curve" smooth="yes"/>
      <point x="470.6134056690132" y="185.15477492929207" type="line" smooth="yes"/>
      <point x="470.6134056690132" y="163.34274421676727"/>
      <point x="451.2706614522459" y="144.0"/>
      <point x="429.4586307397211" y="144.0" type="curve" smooth="yes"/>
      <point x="372.6258463135559" y="144.0" type="line" smooth="yes"/>
      <point x="356.2338754176615" y="144.0"/>
      <point x="349.67708705930374" y="124.0"/>
      <point x="349.67708705930374" y="72.0" type="curve" smooth="yes"/>
      <point x="349.67708705930374" y="20.0"/>
      <point x="356.2338754176615" y="0.0"/>
      <point x="372.6258463135559" y="0.0" type="curve" smooth="yes"/>
      <point x="713.5012407457479" y="0.0" type="line" smooth="yes"/>
      <point x="729.8932116416422" y="0.0"/>
      <point x="736.45" y="20.0"/>
      <point x="736.45" y="72.0" type="curve" smooth="yes"/>
      <point x="736.45" y="124.0"/>
      <point x="729.8932116416422" y="144.0"/>
      <point x="713.5012407457479" y="144.0" type="curve" smooth="yes"/>
      <point x="659.6262964012418" y="144.0" type="line" smooth="yes"/>
      <point x="638.9494643131607" y="144.0"/>
      <point x="620.6134056690132" y="162.3360586441474"/>
      <point x="620.6134056690132" y="183.01289073222853" type="curve" smooth="yes"/>
      <point x="620.6134056690132" y="1157.0" type="line" smooth="yes"/>
      <point x="620.6134056690132" y="1211.0"/>
      <point x="569.6134056690132" y="1224.0"/>
      <point x="529.6134056690132" y="1200.0" type="curve" smooth="yes"/>
    </contour>
  </outline>
</glyph>
<glyph name="two" format="2">
  <advance width="1080"/>
  <unicode hex="0032"/>
  <outline>
    <contour>
      <point x="174.0" y="1095.0" type="curve" smooth="yes"/>
      <point x="142.0" y="1072.0"/>
      <point x="133.0" y="1042.0"/>
      <point x="161.0" y="996.0" type="curve" smooth="yes"/>
      <point x="190.0" y="950.0"/>
      <point x="224.0" y="946.0"/>
      <point x="253.0" y="967.0" type="curve" smooth="yes"/>
      <point x="336.0" y="1026.0"/>
      <point x="435.0" y="1061.0"/>
      <point x="524.0" y="1061.0" type="curve" smooth="yes"/>
      <point x="672.0" y="1061.0"/>
      <point x="752.0" y="981.0"/>
      <point x="752.0" y="859.0" type="curve" smooth="yes"/>
      <point x="752.0" y="760.0"/>
      <point x="702.0" y="687.0"/>
      <point x="585.0" y="568.0" type="curve" smooth="yes"/>
      <point x="145.0" y="122.0" type="line" smooth="yes"/>
      <point x="135.0" y="111.0"/>
      <point x="130.0" y="94.0"/>
      <point x="130.0" y="68.0" type="curve" smooth="yes"/>
      <point x="130.0" y="18.0"/>
      <point x="148.0" y="0.0"/>
      <point x="193.0" y="0.0" type="curve" smooth="yes"/>
      <point x="887.0" y="0.0" type="line" smooth="yes"/>
      <point x="932.0" y="0.0"/>
      <point x="950.0" y="20.0"/>
      <point x="950.0" y="72.0" type="curve" smooth="yes"/>
      <point x="950.0" y="124.0"/>
      <point x="932.0" y="144.0"/>
      <point x="887.0" y="144.0" type="curve" smooth="yes"/>
      <point x="421.8826904296875" y="144.0" type="line" smooth="yes"/>
      <point x="396.4426904296875" y="144.0"/>
      <point x="389.7167714460589" y="160.06970685379756"/>
      <point x="407.5722245070734" y="178.19086564637777" type="curve" smooth="yes"/>
      <point x="702.0" y="477.0" type="line" smooth="yes"/>
      <point x="831.0" y="608.0"/>
      <point x="906.0" y="714.0"/>
      <point x="906.0" y="859.0" type="curve" smooth="yes"/>
      <point x="906.0" y="1080.0"/>
      <point x="756.0" y="1209.0"/>
      <point x="523.0" y="1209.0" type="curve" smooth="yes"/>
      <point x="404.0" y="1209.0"/>
      <point x="275.0" y="1166.0"/>
    </contour>
  </outline>
</glyph>
<glyph name="three" format="2">
  <advance width="1080"/>
  <unicode hex="0033"/>
  <outline>
    <contour>
      <point x="197.24579830819926" y="1113.0" type="curve" smooth="yes"/>
      <point x="164.24579830819926" y="1093.0"/>
      <point x="153.24579830819926" y="1063.0"/>
      <point x="179.24579830819926" y="1014.0" type="curve" smooth="yes"/>
      <point x="205.24579830819926" y="967.0"/>
      <point x="237.24579830819926" y="963.0"/>
      <point x="267.24579830819926" y="981.0" type="curve" smooth="yes"/>
      <point x="356.24579830819926" y="1035.0"/>
      <point x="444.24579830819926" y="1061.0"/>
      <point x="531.2457983081993" y="1061.0" type="curve" smooth="yes"/>
      <point x="676.2457983081993" y="1061.0"/>
      <point x="757.2457983081993" y="991.0"/>
      <point x="757.2457983081993" y="879.0" type="curve" smooth="yes"/>
      <point x="757.2457983081993" y="757.0"/>
      <point x="678.2457983081993" y="691.0"/>
      <point x="525.2457983081993" y="691.0" type="curve" smooth="yes"/>
      <point x="470.24579830819926" y="691.0" type="line" smooth="yes"/>
      <point x="425.24579830819926" y="691.0"/>
      <point x="407.24579830819926" y="673.0"/>
      <point x="407.24579830819926" y="623.0" type="curve" smooth="yes"/>
      <point x="407.24579830819926" y="573.0"/>
      <point x="425.24579830819926" y="555.0"/>
      <point x="470.24579830819926" y="555.0" type="curve" smooth="yes"/>
      <point x="543.2457983081993" y="555.0" type="line" smooth="yes"/>
      <point x="698.2457983081993" y="555.0"/>
      <point x="794.2457983081993" y="484.0"/>
      <point x="794.2457983081993" y="345.0" type="curve" smooth="yes"/>
      <point x="794.2457983081993" y="213.0"/>
      <point x="707.2457983081993" y="126.0"/>
      <point x="538.2457983081993" y="126.0" type="curve" smooth="yes"/>
      <point x="432.24579830819926" y="126.0"/>
      <point x="325.24579830819926" y="168.0"/>
      <point x="240.24579830819926" y="232.0" type="curve" smooth="yes"/>
      <point x="211.24579830819926" y="254.0"/>
      <point x="177.24579830819926" y="249.0"/>
      <point x="148.24579830819926" y="203.0" type="curve" smooth="yes"/>
      <point x="120.24579830819926" y="157.0"/>
      <point x="129.24579830819926" y="127.0"/>
      <point x="161.24579830819926" y="104.0" type="curve" smooth="yes"/>
      <point x="265.24579830819926" y="28.0"/>
      <point x="405.24579830819926" y="-22.0"/>
      <point x="538.2457983081993" y="-22.0" type="curve" smooth="yes"/>
      <point x="800.2457983081993" y="-22.0"/>
      <point x="948.2457983081993" y="128.0"/>
      <point x="948.2457983081993" y="345.0" type="curve" smooth="yes"/>
      <point x="948.2457983081993" y="484.0"/>
      <point x="876.2457983081993" y="582.0"/>
      <point x="782.2578218405768" y="621.0289054823178" type="curve" smooth="yes"/>
      <point x="769.5314493684167" y="626.3135855766893"/>
      <point x="769.1047427374098" y="636.6046164795926"/>
      <point x="781.3499353916258" y="642.9247159140266" type="curve" smooth="yes"/>
      <point x="851.2457983081993" y="679.0"/>
      <point x="911.2457983081993" y="760.0"/>
      <point x="911.2457983081993" y="879.0" type="curve" smooth="yes"/>
      <point x="911.2457983081993" y="1080.0"/>
      <point x="761.2457983081993" y="1209.0"/>
      <point x="530.2457983081993" y="1209.0" type="curve" smooth="yes"/>
      <point x="416.24579830819926" y="1209.0"/>
      <point x="304.24579830819926" y="1176.0"/>
    </contour>
  </outline>
</glyph>
<glyph name="four" format="2">
  <advance width="1080"/>
  <unicode hex="0034"/>
  <outline>
    <contour>
      <point x="577.0" y="1148.0" type="curve" smooth="yes"/>
      <point x="93.0" y="425.0" type="line" smooth="yes"/>
      <point x="86.0" y="415.0"/>
      <point x="81.0" y="397.0"/>
      <point x="81.0" y="376.0" type="curve" smooth="yes"/>
      <point x="81.0" y="326.0"/>
      <point x="101.0" y="302.0"/>
      <point x="146.0" y="302.0" type="curve" smooth="yes"/>
      <point x="598.0" y="302.0" type="line" smooth="yes"/>
      <point x="611.78" y="302.0"/>
      <point x="624.0" y="289.78"/>
      <point x="624.0" y="276.0" type="curve" smooth="yes"/>
      <point x="624.0" y="55.0" type="line" smooth="yes"/>
      <point x="624.0" y="9.0"/>
      <point x="642.0" y="-10.0"/>
      <point x="698.0" y="-10.0" type="curve" smooth="yes"/>
      <point x="700.0" y="-10.0" type="line" smooth="yes"/>
      <point x="756.0" y="-10.0"/>
      <point x="774.0" y="9.0"/>
      <point x="774.0" y="55.0" type="curve" smooth="yes"/>
      <point x="774.0" y="276.0" type="line" smooth="yes"/>
      <point x="774.0" y="289.78"/>
      <point x="786.22" y="302.0"/>
      <point x="800.0" y="302.0" type="curve" smooth="yes"/>
      <point x="936.0" y="302.0" type="line" smooth="yes"/>
      <point x="981.0" y="302.0"/>
      <point x="999.0" y="322.0"/>
      <point x="999.0" y="374.0" type="curve" smooth="yes"/>
      <point x="999.0" y="426.0"/>
      <point x="981.0" y="446.0"/>
      <point x="936.0" y="446.0" type="curve" smooth="yes"/>
      <point x="800.0" y="446.0" type="line" smooth="yes"/>
      <point x="786.22" y="446.0"/>
      <point x="774.0" y="458.22"/>
      <point x="774.0" y="472.0" type="curve" smooth="yes"/>
      <point x="774.0" y="1131.0" type="line" smooth="yes"/>
      <point x="774.0" y="1178.0"/>
      <point x="749.0" y="1209.0"/>
      <point x="687.0" y="1209.0" type="curve" smooth="yes"/>
      <point x="635.0" y="1209.0"/>
      <point x="604.0" y="1189.0"/>
    </contour>
    <contour>
      <point x="624.597851273266" y="471.9973662055113" type="line" smooth="yes"/>
      <point x="624.4017151960912" y="458.2187621165903"/>
      <point x="612.007783203125" y="446.0"/>
      <point x="598.227783203125" y="446.0" type="curve" smooth="yes"/>
      <point x="304.0" y="446.0" type="line" smooth="yes"/>
      <point x="290.22" y="446.0"/>
      <point x="284.64787171203" y="456.25349704736834"/>
      <point x="292.1444078979362" y="467.81595116461347" type="curve" smooth="yes"/>
      <point x="617.8555921020638" y="970.1840488353865" type="line" smooth="yes"/>
      <point x="625.35212828797" y="981.7465029526317"/>
      <point x="631.8260680070338" y="979.7812378834097"/>
      <point x="631.629931929859" y="966.0026337944887" type="curve" smooth="yes"/>
    </contour>
  </outline>
</glyph>
<glyph name="five" format="2">
  <advance width="1080"/>
  <unicode hex="0035"/>
  <outline>
    <contour>
      <point x="293.0344128065026" y="1187.0" type="line" smooth="yes"/>
      <point x="237.03441280650256" y="1187.0"/>
      <point x="220.03441280650256" y="1168.0"/>
      <point x="218.03441280650256" y="1122.0" type="curve" smooth="yes"/>
      <point x="198.03441280650256" y="622.0" type="line" smooth="yes"/>
      <point x="196.03441280650256" y="576.0"/>
      <point x="217.03441280650256" y="557.0"/>
      <point x="273.0344128065026" y="557.0" type="curve" smooth="yes"/>
      <point x="296.0344128065026" y="557.0"/>
      <point x="312.0344128065026" y="560.0"/>
      <point x="323.0344128065026" y="567.0" type="curve" smooth="yes"/>
      <point x="388.0344128065026" y="612.0"/>
      <point x="455.0344128065026" y="638.0"/>
      <point x="550.0344128065026" y="638.0" type="curve" smooth="yes"/>
      <point x="701.0344128065026" y="638.0"/>
      <point x="796.0344128065026" y="534.0"/>
      <point x="796.0344128065026" y="386.0" type="curve" smooth="yes"/>
      <point x="796.0344128065026" y="230.0"/>
      <point x="695.0344128065026" y="126.0"/>
      <point x="530.0344128065026" y="126.0" type="curve" smooth="yes"/>
      <point x="427.0344128065026" y="126.0"/>
      <point x="322.0344128065026" y="166.0"/>
      <point x="238.03441280650256" y="226.0" type="curve" smooth="yes"/>
      <point x="209.03441280650256" y="248.0"/>
      <point x="175.03441280650256" y="243.0"/>
      <point x="146.03441280650256" y="197.0" type="curve" smooth="yes"/>
      <point x="118.03441280650256" y="151.0"/>
      <point x="129.03441280650256" y="120.0"/>
      <point x="161.03441280650256" y="97.0" type="curve" smooth="yes"/>
      <point x="264.0344128065026" y="25.0"/>
      <point x="400.0344128065026" y="-22.0"/>
      <point x="530.0344128065026" y="-22.0" type="curve" smooth="yes"/>
      <point x="788.0344128065026" y="-22.0"/>
      <point x="950.0344128065026" y="152.0"/>
      <point x="950.0344128065026" y="386.0" type="curve" smooth="yes"/>
      <point x="950.0344128065026" y="619.0"/>
      <point x="807.0344128065026" y="786.0"/>
      <point x="563.0344128065026" y="786.0" type="curve" smooth="yes"/>
      <point x="484.0344128065026" y="786.0"/>
      <point x="412.0344128065026" y="766.0"/>
      <point x="370.6953767717408" y="742.7467922304465" type="curve" smooth="yes"/>
      <point x="358.6850658701645" y="735.9909923483099"/>
      <point x="348.52889893309236" y="742.2099911331094"/>
      <point x="349.086510948183" y="755.9787045385307" type="curve" smooth="yes"/>
      <point x="359.6583400554472" y="1017.0212954614693" type="line" smooth="yes"/>
      <point x="360.2159520705378" y="1030.7900088668905"/>
      <point x="372.9304381971276" y="1043.0"/>
      <point x="386.7104381971276" y="1043.0" type="curve" smooth="yes"/>
      <point x="827.0344128065026" y="1043.0" type="line" smooth="yes"/>
      <point x="872.0344128065026" y="1043.0"/>
      <point x="890.0344128065026" y="1063.0"/>
      <point x="890.0344128065026" y="1115.0" type="curve" smooth="yes"/>
      <point x="890.0344128065026" y="1167.0"/>
      <point x="872.0344128065026" y="1187.0"/>
      <point x="827.0344128065026" y="1187.0" type="curve" smooth="yes"/>
    </contour>
  </outline>
</glyph>
<glyph name="six" format="2">
  <advance width="1080"/>
  <unicode hex="0036"/>
  <outline>
    <contour>
      <point x="124.5" y="512.0" type="curve" smooth="yes"/>
      <point x="124.5" y="368.0"/>
      <point x="150.5" y="259.0"/>
      <point x="200.5" y="173.0" type="curve" smooth="yes"/>
      <point x="276.5" y="43.0"/>
      <point x="405.5" y="-22.0"/>
      <point x="547.5" y="-22.0" type="curve" smooth="yes"/>
      <point x="794.5" y="-22.0"/>
      <point x="955.5" y="136.0"/>
      <point x="955.5" y="353.0" type="curve" smooth="yes"/>
      <point x="955.5" y="581.0"/>
      <point x="790.5" y="731.0"/>
      <point x="569.5" y="731.0" type="curve" smooth="yes"/>
      <point x="455.5" y="731.0"/>
      <point x="349.5" y="681.0"/>
      <point x="279.5" y="589.0" type="curve"/>
      <point x="315.5" y="861.0"/>
      <point x="492.5" y="1043.0"/>
      <point x="859.5" y="1062.0" type="curve" smooth="yes"/>
      <point x="885.5" y="1063.0"/>
      <point x="900.5" y="1083.0"/>
      <point x="895.5" y="1142.0" type="curve" smooth="yes"/>
      <point x="890.5" y="1197.0"/>
      <point x="867.5" y="1210.0"/>
      <point x="838.5" y="1209.0" type="curve" smooth="yes"/>
      <point x="314.5" y="1185.0"/>
      <point x="124.5" y="834.0"/>
    </contour>
    <contour>
      <point x="801.5" y="353.0" type="curve" smooth="yes"/>
      <point x="801.5" y="216.0"/>
      <point x="700.5" y="126.0"/>
      <point x="547.5" y="126.0" type="curve" smooth="yes"/>
      <point x="393.5" y="126.0"/>
      <point x="293.5" y="227.0"/>
      <point x="293.5" y="368.0" type="curve" smooth="yes"/>
      <point x="293.5" y="495.0"/>
      <point x="399.5" y="583.0"/>
      <point x="547.5" y="583.0" type="curve" smooth="yes"/>
      <point x="704.5" y="583.0"/>
      <point x="801.5" y="492.0"/>
    </contour>
  </outline>
</glyph>
<glyph name="seven" format="2">
  <advance width="1080"/>
  <unicode hex="0037"/>
  <outline>
    <contour>
      <point x="227.74020144634846" y="1187.0" type="line" smooth="yes"/>
      <point x="189.35434327038524" y="1187.0"/>
      <point x="174.0" y="1167.0"/>
      <point x="174.0" y="1115.0" type="curve" smooth="yes"/>
      <point x="174.0" y="1063.0"/>
      <point x="189.35434327038524" y="1043.0"/>
      <point x="227.74020144634846" y="1043.0" type="curve" smooth="yes"/>
      <point x="752.7772761193539" y="1043.0" type="line"/>
      <point x="384.69571043250914" y="56.0" type="line" smooth="yes"/>
      <point x="371.04740530327774" y="15.0"/>
      <point x="391.5198629971248" y="-12.0"/>
      <point x="429.90572117308795" y="-20.0" type="curve" smooth="yes"/>
      <point x="469.1445984196281" y="-28.0"/>
      <point x="500.70630403097573" y="-13.0"/>
      <point x="513.5015900896301" y="24.0" type="curve" smooth="yes"/>
      <point x="900.5818855765383" y="1079.0" type="line" smooth="yes"/>
      <point x="903.1409427882692" y="1087.0"/>
      <point x="905.7" y="1102.0"/>
      <point x="905.7" y="1119.0" type="curve" smooth="yes"/>
      <point x="905.7" y="1169.0"/>
      <point x="890.3456567296148" y="1187.0"/>
      <point x="851.9597985536516" y="1187.0" type="curve" smooth="yes"/>
    </contour>
  </outline>
</glyph>
<glyph name="eight" format="2">
  <advance width="1080"/>
  <unicode hex="0038"/>
  <outline>
    <contour>
      <point x="173.0" y="879.0" type="curve" smooth="yes"/>
      <point x="173.0" y="766.0"/>
      <point x="243.0" y="680.0"/>
      <point x="296.94" y="651.0" type="curve" smooth="yes"/>
      <point x="317.6418" y="639.87"/>
      <point x="317.0139194891487" y="621.3994678027768"/>
      <point x="295.60408401946535" y="611.700995325057" type="curve" smooth="yes"/>
      <point x="219.0" y="577.0"/>
      <point x="136.0" y="476.0"/>
      <point x="136.0" y="340.0" type="curve" smooth="yes"/>
      <point x="136.0" y="131.0"/>
      <point x="306.0" y="-22.0"/>
      <point x="540.0" y="-22.0" type="curve" smooth="yes"/>
      <point x="774.0" y="-22.0"/>
      <point x="944.0" y="131.0"/>
      <point x="944.0" y="340.0" type="curve" smooth="yes"/>
      <point x="944.0" y="476.0"/>
      <point x="861.0" y="577.0"/>
      <point x="783.4540819504425" y="611.8299462425979" type="curve" smooth="yes"/>
      <point x="762.0134185167079" y="621.460074734021"/>
      <point x="761.3582" y="639.87"/>
      <point x="782.06" y="651.0" type="curve" smooth="yes"/>
      <point x="836.0" y="680.0"/>
      <point x="907.0" y="766.0"/>
      <point x="907.0" y="879.0" type="curve" smooth="yes"/>
      <point x="907.0" y="1064.0"/>
      <point x="752.0" y="1209.0"/>
      <point x="540.0" y="1209.0" type="curve" smooth="yes"/>
      <point x="328.0" y="1209.0"/>
      <point x="173.0" y="1064.0"/>
    </contour>
    <contour>
      <point x="790.0" y="341.0" type="curve" smooth="yes"/>
      <point x="790.0" y="215.0"/>
      <point x="687.0" y="126.0"/>
      <point x="540.0" y="126.0" type="curve" smooth="yes"/>
      <point x="393.0" y="126.0"/>
      <point x="290.0" y="215.0"/>
      <point x="290.0" y="341.0" type="curve" smooth="yes"/>
      <point x="290.0" y="467.0"/>
      <point x="393.0" y="554.0"/>
      <point x="540.0" y="554.0" type="curve" smooth="yes"/>
      <point x="687.0" y="554.0"/>
      <point x="790.0" y="467.0"/>
    </contour>
    <contour>
      <point x="755.0" y="876.0" type="curve" smooth="yes"/>
      <point x="755.0" y="773.0"/>
      <point x="663.0" y="693.0"/>
      <point x="540.0" y="693.0" type="curve" smooth="yes"/>
      <point x="417.0" y="693.0"/>
      <point x="325.0" y="773.0"/>
      <point x="325.0" y="876.0" type="curve" smooth="yes"/>
      <point x="325.0" y="990.0"/>
      <point x="417.0" y="1061.0"/>
      <point x="540.0" y="1061.0" type="curve" smooth="yes"/>
      <point x="663.0" y="1061.0"/>
      <point x="755.0" y="990.0"/>
    </contour>
  </outline>
</glyph>
<glyph name="nine" format="2">
  <advance width="1080"/>
  <unicode hex="0039"/>
  <outline>
    <contour>
      <point x="124.5" y="834.0" type="curve" smooth="yes"/>
      <point x="124.5" y="606.0"/>
      <point x="289.5" y="456.0"/>
      <point x="510.5" y="456.0" type="curve" smooth="yes"/>
      <point x="624.5" y="456.0"/>
      <point x="730.5" y="506.0"/>
      <point x="771.4349520408034" y="559.8002226821988" type="curve" smooth="yes"/>
      <point x="786.8394274591776" y="580.0461046606334"/>
      <point x="797.5399312987264" y="575.6350364792665"/>
      <point x="794.201981486652" y="550.4149712324819" type="curve" smooth="yes"/>
      <point x="764.5" y="326.0"/>
      <point x="587.5" y="144.0"/>
      <point x="220.5" y="125.0" type="curve" smooth="yes"/>
      <point x="194.5" y="124.0"/>
      <point x="179.5" y="104.0"/>
      <point x="184.5" y="45.0" type="curve" smooth="yes"/>
      <point x="189.5" y="-10.0"/>
      <point x="212.5" y="-23.0"/>
      <point x="241.5" y="-22.0" type="curve" smooth="yes"/>
      <point x="765.5" y="2.0"/>
      <point x="955.5" y="353.0"/>
      <point x="955.5" y="675.0" type="curve" smooth="yes"/>
      <point x="955.5" y="819.0"/>
      <point x="929.5" y="928.0"/>
      <point x="879.5" y="1014.0" type="curve" smooth="yes"/>
      <point x="803.5" y="1144.0"/>
      <point x="674.5" y="1209.0"/>
      <point x="532.5" y="1209.0" type="curve" smooth="yes"/>
      <point x="285.5" y="1209.0"/>
      <point x="124.5" y="1051.0"/>
    </contour>
    <contour>
      <point x="786.5" y="819.0" type="curve" smooth="yes"/>
      <point x="786.5" y="692.0"/>
      <point x="680.5" y="604.0"/>
      <point x="532.5" y="604.0" type="curve" smooth="yes"/>
      <point x="375.5" y="604.0"/>
      <point x="278.5" y="695.0"/>
      <point x="278.5" y="834.0" type="curve" smooth="yes"/>
      <point x="278.5" y="971.0"/>
      <point x="379.5" y="1061.0"/>
      <point x="532.5" y="1061.0" type="curve" smooth="yes"/>
      <point x="686.5" y="1061.0"/>
      <point x="786.5" y="960.0"/>
    </contour>
  </outline>
</glyph>
<glyph name="less" format="2">
  <advance width="1172"/>
  <unicode hex="003C"/>
  <outline>
    <contour>
      <point x="380.2871693787823" y="562.2582313393334" type="line" smooth="yes"/>
      <point x="357.34496960802767" y="573.2513687294867"/>
      <point x="357.34496960802767" y="592.7486312705133"/>
      <point x="380.2871693787823" y="603.7417686606666" type="curve" smooth="yes"/>
      <point x="1009.0" y="905.0" type="line" smooth="yes"/>
      <point x="1051.0" y="925.0"/>
      <point x="1061.0" y="954.0"/>
      <point x="1038.0" y="1000.0" type="curve" smooth="yes"/>
      <point x="1016.0" y="1044.0"/>
      <point x="987.0" y="1058.0"/>
      <point x="946.0" y="1038.0" type="curve" smooth="yes"/>
      <point x="169.0" y="657.0" type="line" smooth="yes"/>
      <point x="137.0" y="641.0"/>
      <point x="122.0" y="623.0"/>
      <point x="122.0" y="583.0" type="curve" smooth="yes"/>
      <point x="122.0" y="543.0"/>
      <point x="137.0" y="525.0"/>
      <point x="169.0" y="509.0" type="curve" smooth="yes"/>
      <point x="946.0" y="128.0" type="line" smooth="yes"/>
      <point x="987.0" y="108.0"/>
      <point x="1016.0" y="122.0"/>
      <point x="1038.0" y="166.0" type="curve" smooth="yes"/>
      <point x="1061.0" y="212.0"/>
      <point x="1051.0" y="241.0"/>
      <point x="1009.0" y="261.0" type="curve" smooth="yes"/>
    </contour>
  </outline>
</glyph>
<glyph name="greater" format="2">
  <advance width="1172"/>
  <unicode hex="003E"/>
  <outline>
    <contour>
      <point x="791.7782172502784" y="603.7417686606666" type="line" smooth="yes"/>
      <point x="814.7204170210332" y="592.7486312705133"/>
      <point x="814.7204170210332" y="573.2513687294867"/>
      <point x="791.7782172502784" y="562.2582313393334" type="curve" smooth="yes"/>
      <point x="163.0653866290608" y="261.0" type="line" smooth="yes"/>
      <point x="121.06538662906081" y="241.0"/>
      <point x="111.06538662906081" y="212.0"/>
      <point x="134.0653866290608" y="166.0" type="curve" smooth="yes"/>
      <point x="156.0653866290608" y="122.0"/>
      <point x="185.0653866290608" y="108.0"/>
      <point x="226.0653866290608" y="128.0" type="curve" smooth="yes"/>
      <point x="1003.0653866290609" y="509.0" type="line" smooth="yes"/>
      <point x="1035.0653866290609" y="525.0"/>
      <point x="1050.0653866290609" y="543.0"/>
      <point x="1050.0653866290609" y="583.0" type="curve" smooth="yes"/>
      <point x="1050.0653866290609" y="623.0"/>
      <point x="1035.0653866290609" y="641.0"/>
      <point x="1003.0653866290609" y="657.0" type="curve" smooth="yes"/>
      <point x="226.0653866290608" y="1038.0" type="line" smooth="yes"/>
      <point x="185.0653866290608" y="1058.0"/>
      <point x="156.0653866290608" y="1044.0"/>
      <point x="134.0653866290608" y="1000.0" type="curve" smooth="yes"/>
      <point x="111.06538662906081" y="954.0"/>
      <point x="121.06538662906081" y="925.0"/>
      <point x="163.0653866290608" y="905.0" type="curve" smooth="yes"/>
    </contour>
  </outline>
</glyph>
<glyph name="question" format="2">
  <advance width="888"/>
  <unicode hex="003F"/>
  <outline>
    <contour>
      <point x="130.16205904871867" y="1191.0" type="curve" smooth="yes"/>
      <point x="93.16205904871867" y="1171.0"/>
      <point x="80.16205904871867" y="1144.0"/>
      <point x="104.16205904871867" y="1091.0" type="curve" smooth="yes"/>
      <point x="127.16205904871867" y="1039.0"/>
      <point x="158.16205904871867" y="1038.0"/>
      <point x="188.16205904871867" y="1054.0" type="curve" smooth="yes"/>
      <point x="272.1620590487187" y="1098.0"/>
      <point x="358.1620590487187" y="1121.0"/>
      <point x="449.1620590487187" y="1121.0" type="curve" smooth="yes"/>
      <point x="574.1620590487187" y="1121.0"/>
      <point x="642.1620590487187" y="1053.0"/>
      <point x="642.1620590487187" y="956.0" type="curve" smooth="yes"/>
      <point x="642.1620590487187" y="856.0"/>
      <point x="576.1620590487187" y="806.0"/>
      <point x="424.1620590487187" y="744.0" type="curve" smooth="yes"/>
      <point x="355.1620590487187" y="716.0" type="line" smooth="yes"/>
      <point x="332.1620590487187" y="707.0"/>
      <point x="324.1620590487187" y="691.0"/>
      <point x="325.1620590487187" y="665.0" type="curve" smooth="yes"/>
      <point x="335.1620590487187" y="440.0" type="line" smooth="yes"/>
      <point x="337.1620590487187" y="409.0"/>
      <point x="362.1620590487187" y="389.0"/>
      <point x="404.1620590487187" y="389.0" type="curve" smooth="yes"/>
      <point x="446.1620590487187" y="389.0"/>
      <point x="471.1620590487187" y="409.0"/>
      <point x="473.1620590487187" y="440.0" type="curve" smooth="yes"/>
      <point x="480.3598290263267" y="563.0818666170978" type="line" smooth="yes"/>
      <point x="481.8450109381945" y="588.4784773100359"/>
      <point x="504.0520770179709" y="619.5182597544523"/>
      <point x="527.6089057918084" y="629.1239569243667" type="curve" smooth="yes"/>
      <point x="689.1620590487187" y="695.0"/>
      <point x="796.1620590487187" y="780.0"/>
      <point x="796.1620590487187" y="956.0" type="curve" smooth="yes"/>
      <point x="796.1620590487187" y="1141.0"/>
      <point x="668.1620590487187" y="1269.0"/>
      <point x="448.1620590487187" y="1269.0" type="curve" smooth="yes"/>
      <point x="333.1620590487187" y="1269.0"/>
      <point x="228.16205904871867" y="1244.0"/>
    </contour>
    <contour>
      <point x="289.1620590487187" y="167.0" type="curve" smooth="yes"/>
      <point x="289.1620590487187" y="53.0" type="line" smooth="yes"/>
      <point x="289.1620590487187" y="8.0"/>
      <point x="323.1620590487187" y="-10.0"/>
      <point x="404.1620590487187" y="-10.0" type="curve" smooth="yes"/>
      <point x="485.1620590487187" y="-10.0"/>
      <point x="519.1620590487187" y="8.0"/>
      <point x="519.1620590487187" y="53.0" type="curve" smooth="yes"/>
      <point x="519.1620590487187" y="167.0" type="line" smooth="yes"/>
      <point x="519.1620590487187" y="212.0"/>
      <point x="485.1620590487187" y="230.0"/>
      <point x="404.1620590487187" y="230.0" type="curve" smooth="yes"/>
      <point x="323.1620590487187" y="230.0"/>
      <point x="289.1620590487187" y="212.0"/>
    </contour>
  </outline>
</glyph>
<glyph name="at" format="2">
  <advance width="1304"/>
  <unicode hex="0040"/>
  <outline>
    <contour>
      <point x="92.0" y="389.0" type="curve" smooth="yes"/>
      <point x="92.0" y="54.0"/>
      <point x="284.0" y="-153.0"/>
      <point x="604.0" y="-153.0" type="curve" smooth="yes"/>
      <point x="714.0" y="-153.0"/>
      <point x="820.0" y="-132.0"/>
      <point x="890.0" y="-101.0" type="curve" smooth="yes"/>
      <point x="911.0" y="-92.0"/>
      <point x="920.0" y="-72.0"/>
      <point x="909.0" y="-36.0" type="curve" smooth="yes"/>
      <point x="898.0" y="0.0"/>
      <point x="880.0" y="14.0"/>
      <point x="857.0" y="7.0" type="curve" smooth="yes"/>
      <point x="790.0" y="-14.0"/>
      <point x="698.0" y="-30.0"/>
      <point x="602.0" y="-30.0" type="curve" smooth="yes"/>
      <point x="353.0" y="-30.0"/>
      <point x="215.0" y="133.0"/>
      <point x="215.0" y="389.0" type="curve" smooth="yes"/>
      <point x="215.0" y="710.0"/>
      <point x="420.0" y="955.0"/>
      <point x="697.0" y="955.0" type="curve" smooth="yes"/>
      <point x="940.0" y="955.0"/>
      <point x="1091.0" y="792.0"/>
      <point x="1091.0" y="531.0" type="curve" smooth="yes"/>
      <point x="1091.0" y="372.0"/>
      <point x="1031.0" y="263.0"/>
      <point x="930.0" y="263.0" type="curve" smooth="yes"/>
      <point x="870.0" y="263.0"/>
      <point x="840.0" y="318.0"/>
      <point x="862.0" y="404.0" type="curve" smooth="yes"/>
      <point x="939.0" y="706.0" type="line" smooth="yes"/>
      <point x="944.0" y="726.0"/>
      <point x="924.0" y="743.0"/>
      <point x="900.0" y="752.0" type="curve" smooth="yes"/>
      <point x="876.0" y="761.0"/>
      <point x="848.0" y="762.0"/>
      <point x="841.0" y="748.0" type="curve" smooth="yes"/>
      <point x="821.4791989317021" y="708.3286946031365" type="line" smooth="yes"/>
      <point x="815.3952234979" y="695.9644864634741"/>
      <point x="805.2323788022697" y="696.2515860266433"/>
      <point x="799.8561251112124" y="708.9395447375389" type="curve" smooth="yes"/>
      <point x="785.0" y="744.0"/>
      <point x="746.0" y="785.0"/>
      <point x="682.0" y="785.0" type="curve" smooth="yes"/>
      <point x="502.0" y="785.0"/>
      <point x="365.0" y="536.0"/>
      <point x="365.0" y="357.0" type="curve" smooth="yes"/>
      <point x="365.0" y="214.0"/>
      <point x="443.0" y="132.0"/>
      <point x="541.0" y="132.0" type="curve" smooth="yes"/>
      <point x="631.0" y="132.0"/>
      <point x="689.0" y="187.0"/>
      <point x="734.1097798452333" y="245.42086242251523" type="curve" smooth="yes"/>
      <point x="742.5315965272597" y="256.32780533858215"/>
      <point x="754.2308434705736" y="254.53577898296163"/>
      <point x="759.0017946182419" y="241.6080403892801" type="curve" smooth="yes"/>
      <point x="781.0" y="182.0"/>
      <point x="844.0" y="137.0"/>
      <point x="931.0" y="137.0" type="curve" smooth="yes"/>
      <point x="1099.0" y="137.0"/>
      <point x="1212.0" y="296.0"/>
      <point x="1212.0" y="531.0" type="curve" smooth="yes"/>
      <point x="1212.0" y="852.0"/>
      <point x="1012.0" y="1078.0"/>
      <point x="702.0" y="1078.0" type="curve" smooth="yes"/>
      <point x="351.0" y="1078.0"/>
      <point x="92.0" y="781.0"/>
    </contour>
    <contour>
      <point x="754.0" y="561.0" type="curve" smooth="yes"/>
      <point x="754.0" y="430.0"/>
      <point x="669.0" y="266.0"/>
      <point x="566.0" y="266.0" type="curve" smooth="yes"/>
      <point x="528.0" y="266.0"/>
      <point x="500.0" y="294.0"/>
      <point x="500.0" y="359.0" type="curve" smooth="yes"/>
      <point x="500.0" y="508.0"/>
      <point x="605.0" y="658.0"/>
      <point x="678.0" y="658.0" type="curve" smooth="yes"/>
      <point x="725.0" y="658.0"/>
      <point x="754.0" y="623.0"/>
    </contour>
  </outline>
</glyph>
<glyph name="A" format="2">
  <advance width="1133"/>
  <unicode hex="0041"/>
  <outline>
    <contour>
      <point x="454.38816434521686" y="1144.0" type="curve" smooth="yes"/>
      <point x="60.38816434521688" y="84.0" type="line" smooth="yes"/>
      <point x="44.38816434521688" y="40.0"/>
      <point x="57.38816434521688" y="16.0"/>
      <point x="111.38816434521688" y="-2.0" type="curve" smooth="yes"/>
      <point x="164.38816434521686" y="-20.0"/>
      <point x="189.38816434521686" y="-8.0"/>
      <point x="205.38816434521686" y="36.0" type="curve" smooth="yes"/>
      <point x="305.37597575513746" y="305.6222948274023" type="line" smooth="yes"/>
      <point x="310.1673484276061" y="318.54247856887906"/>
      <point x="326.63630155224814" y="330.0"/>
      <point x="340.4163015522481" y="330.0" type="curve" smooth="yes"/>
      <point x="792.3600271381856" y="330.0" type="line" smooth="yes"/>
      <point x="806.1400271381856" y="330.0"/>
      <point x="822.6089802628276" y="318.54247856887906"/>
      <point x="827.4003529352963" y="305.6222948274023" type="curve" smooth="yes"/>
      <point x="927.3881643452169" y="36.0" type="line" smooth="yes"/>
      <point x="943.3881643452169" y="-8.0"/>
      <point x="968.3881643452169" y="-20.0"/>
      <point x="1021.3881643452169" y="-2.0" type="curve" smooth="yes"/>
      <point x="1075.3881643452169" y="16.0"/>
      <point x="1088.3881643452169" y="40.0"/>
      <point x="1072.3881643452169" y="84.0" type="curve" smooth="yes"/>
      <point x="678.3881643452169" y="1144.0" type="line" smooth="yes"/>
      <point x="661.3881643452169" y="1191.0"/>
      <point x="629.3881643452169" y="1209.0"/>
      <point x="566.3881643452169" y="1209.0" type="curve" smooth="yes"/>
      <point x="503.38816434521686" y="1209.0"/>
      <point x="471.38816434521686" y="1191.0"/>
    </contour>
    <contour>
      <point x="392.6436880268575" y="474.0" type="line" smooth="yes"/>
      <point x="378.8636880268575" y="474.0"/>
      <point x="370.6551594075734" y="485.54281150160983"/>
      <point x="375.1787335177425" y="498.55917340768053" type="curve" smooth="yes"/>
      <point x="564.3881643452169" y="1043.0" type="line"/>
      <point x="568.3881643452169" y="1043.0" type="line"/>
      <point x="757.2742169965517" y="498.56367219293674" type="line" smooth="yes"/>
      <point x="761.7909243989615" y="485.5449259306803"/>
      <point x="753.5763064350606" y="474.0"/>
      <point x="739.7963064350606" y="474.0" type="curve" smooth="yes"/>
    </contour>
  </outline>
</glyph>
<glyph name="B" format="2">
  <advance width="1009"/>
  <unicode hex="0042"/>
  <outline>
    <contour>
      <point x="133.0" y="1187.0" type="line" smooth="yes"/>
      <point x="88.0" y="1187.0"/>
      <point x="70.0" y="1169.0"/>
      <point x="70.0" y="1119.0" type="curve" smooth="yes"/>
      <point x="70.0" y="68.0" type="line" smooth="yes"/>
      <point x="70.0" y="18.0"/>
      <point x="88.0" y="0.0"/>
      <point x="133.0" y="0.0" type="curve" smooth="yes"/>
      <point x="555.0" y="0.0" type="line" smooth="yes"/>
      <point x="801.0" y="0.0"/>
      <point x="939.0" y="126.0"/>
      <point x="939.0" y="336.0" type="curve" smooth="yes"/>
      <point x="939.0" y="480.0"/>
      <point x="865.0" y="576.0"/>
      <point x="776.7302088364794" y="608.9260332117894" type="curve" smooth="yes"/>
      <point x="756.7331981531453" y="616.385235609541"/>
      <point x="755.3842" y="632.4752"/>
      <point x="773.86" y="643.16" type="curve" smooth="yes"/>
      <point x="822.0" y="671.0"/>
      <point x="873.0" y="750.0"/>
      <point x="873.0" y="858.0" type="curve" smooth="yes"/>
      <point x="873.0" y="1051.0"/>
      <point x="748.0" y="1187.0"/>
      <point x="509.0" y="1187.0" type="curve" smooth="yes"/>
    </contour>
    <contour>
      <point x="785.0" y="336.0" type="curve" smooth="yes"/>
      <point x="785.0" y="207.0"/>
      <point x="690.0" y="144.0"/>
      <point x="535.0" y="144.0" type="curve" smooth="yes"/>
      <point x="268.0" y="144.0" type="line" smooth="yes"/>
      <point x="242.56" y="144.0"/>
      <point x="220.0" y="166.56"/>
      <point x="220.0" y="192.0" type="curve" smooth="yes"/>
      <point x="220.0" y="483.0" type="line" smooth="yes"/>
      <point x="220.0" y="508.44"/>
      <point x="242.56" y="531.0"/>
      <point x="268.0" y="531.0" type="curve" smooth="yes"/>
      <point x="530.0" y="531.0" type="line" smooth="yes"/>
      <point x="697.0" y="531.0"/>
      <point x="785.0" y="467.0"/>
    </contour>
    <contour>
      <point x="719.0" y="858.0" type="curve" smooth="yes"/>
      <point x="719.0" y="742.0"/>
      <point x="643.0" y="675.0"/>
      <point x="487.0" y="675.0" type="curve" smooth="yes"/>
      <point x="268.0" y="675.0" type="line" smooth="yes"/>
      <point x="242.56" y="675.0"/>
      <point x="220.0" y="697.56"/>
      <point x="220.0" y="723.0" type="curve" smooth="yes"/>
      <point x="220.0" y="995.0" type="line" smooth="yes"/>
      <point x="220.0" y="1020.44"/>
      <point x="242.56" y="1043.0"/>
      <point x="268.0" y="1043.0" type="curve" smooth="yes"/>
      <point x="487.0" y="1043.0" type="line" smooth="yes"/>
      <point x="644.0" y="1043.0"/>
      <point x="719.0" y="979.0"/>
    </contour>
  </outline>
</glyph>
<glyph name="C" format="2">
  <advance width="1044"/>
  <unicode hex="0043"/>
  <outline>
    <contour>
      <point x="60.0" y="594.0" type="curve" smooth="yes"/>
      <point x="60.0" y="224.0"/>
      <point x="265.0" y="-22.0"/>
      <point x="574.0" y="-22.0" type="curve" smooth="yes"/>
      <point x="707.0" y="-22.0"/>
      <point x="826.0" y="10.0"/>
      <point x="947.0" y="79.0" type="curve" smooth="yes"/>
      <point x="985.0" y="101.0"/>
      <point x="994.0" y="133.0"/>
      <point x="971.0" y="183.0" type="curve" smooth="yes"/>
      <point x="947.0" y="235.0"/>
      <point x="913.0" y="233.0"/>
      <point x="884.0" y="216.0" type="curve" smooth="yes"/>
      <point x="787.0" y="158.0"/>
      <point x="685.0" y="126.0"/>
      <point x="574.0" y="126.0" type="curve" smooth="yes"/>
      <point x="357.0" y="126.0"/>
      <point x="214.0" y="306.0"/>
      <point x="214.0" y="594.0" type="curve" smooth="yes"/>
      <point x="214.0" y="882.0"/>
      <point x="357.0" y="1061.0"/>
      <point x="574.0" y="1061.0" type="curve" smooth="yes"/>
      <point x="685.0" y="1061.0"/>
      <point x="787.0" y="1029.0"/>
      <point x="884.0" y="971.0" type="curve" smooth="yes"/>
      <point x="913.0" y="954.0"/>
      <point x="947.0" y="952.0"/>
      <point x="971.0" y="1004.0" type="curve" smooth="yes"/>
      <point x="994.0" y="1054.0"/>
      <point x="985.0" y="1086.0"/>
      <point x="947.0" y="1108.0" type="curve" smooth="yes"/>
      <point x="826.0" y="1177.0"/>
      <point x="707.0" y="1209.0"/>
      <point x="574.0" y="1209.0" type="curve" smooth="yes"/>
      <point x="265.0" y="1209.0"/>
      <point x="60.0" y="964.0"/>
    </contour>
  </outline>
</glyph>
<glyph name="D" format="2">
  <advance width="1065"/>
  <unicode hex="0044"/>
  <outline>
    <contour>
      <point x="133.0" y="1187.0" type="line" smooth="yes"/>
      <point x="88.0" y="1187.0"/>
      <point x="70.0" y="1169.0"/>
      <point x="70.0" y="1119.0" type="curve" smooth="yes"/>
      <point x="70.0" y="68.0" type="line" smooth="yes"/>
      <point x="70.0" y="18.0"/>
      <point x="88.0" y="0.0"/>
      <point x="133.0" y="0.0" type="curve" smooth="yes"/>
      <point x="469.0" y="0.0" type="line" smooth="yes"/>
      <point x="784.0" y="0.0"/>
      <point x="995.0" y="223.0"/>
      <point x="995.0" y="593.0" type="curve" smooth="yes"/>
      <point x="995.0" y="963.0"/>
      <point x="784.0" y="1187.0"/>
      <point x="469.0" y="1187.0" type="curve" smooth="yes"/>
    </contour>
    <contour>
      <point x="841.0" y="593.0" type="curve" smooth="yes"/>
      <point x="841.0" y="295.0"/>
      <point x="687.0" y="144.0"/>
      <point x="450.0" y="144.0" type="curve" smooth="yes"/>
      <point x="268.0" y="144.0" type="line" smooth="yes"/>
      <point x="242.56" y="144.0"/>
      <point x="220.0" y="166.56"/>
      <point x="220.0" y="192.0" type="curve" smooth="yes"/>
      <point x="220.0" y="995.0" type="line" smooth="yes"/>
      <point x="220.0" y="1020.44"/>
      <point x="242.56" y="1043.0"/>
      <point x="268.0" y="1043.0" type="curve" smooth="yes"/>
      <point x="450.0" y="1043.0" type="line" smooth="yes"/>
      <point x="687.0" y="1043.0"/>
      <point x="841.0" y="891.0"/>
    </contour>
  </outline>
</glyph>
<glyph name="E" format="2">
  <advance width="849"/>
  <unicode hex="0045"/>
  <outline>
    <contour>
      <point x="142.0" y="1187.0" type="line" smooth="yes"/>
      <point x="97.0" y="1187.0"/>
      <point x="79.0" y="1169.0"/>
      <point x="79.0" y="1119.0" type="curve" smooth="yes"/>
      <point x="79.0" y="68.0" type="line" smooth="yes"/>
      <point x="79.0" y="18.0"/>
      <point x="97.0" y="0.0"/>
      <point x="142.0" y="0.0" type="curve" smooth="yes"/>
      <point x="718.7926315789473" y="0.0" type="line" smooth="yes"/>
      <point x="755.405037593985" y="0.0"/>
      <point x="770.05" y="20.0"/>
      <point x="770.05" y="72.0" type="curve" smooth="yes"/>
      <point x="770.05" y="124.0"/>
      <point x="755.405037593985" y="144.0"/>
      <point x="718.7926315789473" y="144.0" type="curve" smooth="yes"/>
      <point x="277.0" y="144.0" type="line" smooth="yes"/>
      <point x="251.56" y="144.0"/>
      <point x="229.0" y="166.56"/>
      <point x="229.0" y="192.0" type="curve" smooth="yes"/>
      <point x="229.0" y="492.0" type="line" smooth="yes"/>
      <point x="229.0" y="517.44"/>
      <point x="251.56" y="540.0"/>
      <point x="277.0" y="540.0" type="curve" smooth="yes"/>
      <point x="600.8193233082707" y="540.0" type="line" smooth="yes"/>
      <point x="637.4317293233082" y="540.0"/>
      <point x="652.0766917293233" y="560.0"/>
      <point x="652.0766917293233" y="612.0" type="curve" smooth="yes"/>
      <point x="652.0766917293233" y="664.0"/>
      <point x="637.4317293233082" y="684.0"/>
      <point x="600.8193233082707" y="684.0" type="curve" smooth="yes"/>
      <point x="277.0" y="684.0" type="line" smooth="yes"/>
      <point x="251.56" y="684.0"/>
      <point x="229.0" y="706.56"/>
      <point x="229.0" y="732.0" type="curve" smooth="yes"/>
      <point x="229.0" y="995.0" type="line" smooth="yes"/>
      <point x="229.0" y="1020.44"/>
      <point x="251.56" y="1043.0"/>
      <point x="277.0" y="1043.0" type="curve" smooth="yes"/>
      <point x="702.5204511278196" y="1043.0" type="line" smooth="yes"/>
      <point x="739.1328571428571" y="1043.0"/>
      <point x="753.7778195488721" y="1063.0"/>
      <point x="753.7778195488721" y="1115.0" type="curve" smooth="yes"/>
      <point x="753.7778195488721" y="1167.0"/>
      <point x="739.1328571428571" y="1187.0"/>
      <point x="702.5204511278196" y="1187.0" type="curve" smooth="yes"/>
    </contour>
  </outline>
</glyph>
<glyph name="F" format="2">
  <advance width="849"/>
  <unicode hex="0046"/>
  <outline>
    <contour>
      <point x="142.0" y="1187.0" type="line" smooth="yes"/>
      <point x="100.0" y="1187.0"/>
      <point x="79.0" y="1169.0"/>
      <point x="79.0" y="1119.0" type="curve" smooth="yes"/>
      <point x="79.0" y="55.0" type="line" smooth="yes"/>
      <point x="79.0" y="9.0"/>
      <point x="97.0" y="-10.0"/>
      <point x="153.0" y="-10.0" type="curve" smooth="yes"/>
      <point x="155.0" y="-10.0" type="line" smooth="yes"/>
      <point x="211.0" y="-10.0"/>
      <point x="229.0" y="9.0"/>
      <point x="229.0" y="55.0" type="curve" smooth="yes"/>
      <point x="229.0" y="452.0" type="line" smooth="yes"/>
      <point x="229.0" y="477.44"/>
      <point x="251.56" y="500.0"/>
      <point x="277.0" y="500.0" type="curve" smooth="yes"/>
      <point x="620.736976744186" y="500.0" type="line" smooth="yes"/>
      <point x="658.4846511627907" y="500.0"/>
      <point x="673.5837209302325" y="520.0"/>
      <point x="673.5837209302325" y="572.0" type="curve" smooth="yes"/>
      <point x="673.5837209302325" y="624.0"/>
      <point x="658.4846511627907" y="644.0"/>
      <point x="620.736976744186" y="644.0" type="curve" smooth="yes"/>
      <point x="277.0" y="644.0" type="line" smooth="yes"/>
      <point x="251.56" y="644.0"/>
      <point x="229.0" y="666.56"/>
      <point x="229.0" y="692.0" type="curve" smooth="yes"/>
      <point x="229.0" y="995.0" type="line" smooth="yes"/>
      <point x="229.0" y="1020.44"/>
      <point x="251.56" y="1043.0"/>
      <point x="277.0" y="1043.0" type="curve" smooth="yes"/>
      <point x="717.2032558139534" y="1043.0" type="line" smooth="yes"/>
      <point x="754.9509302325581" y="1043.0"/>
      <point x="770.05" y="1063.0"/>
      <point x="770.05" y="1115.0" type="curve" smooth="yes"/>
      <point x="770.05" y="1167.0"/>
      <point x="754.9509302325581" y="1187.0"/>
      <point x="717.2032558139534" y="1187.0" type="curve" smooth="yes"/>
    </contour>
  </outline>
</glyph>
<glyph name="G" format="2">
  <advance width="1109"/>
  <unicode hex="0047"/>
  <outline>
    <contour>
      <point x="68.0" y="594.0" type="curve" smooth="yes"/>
      <point x="68.0" y="224.0"/>
      <point x="277.0" y="-22.0"/>
      <point x="592.0" y="-22.0" type="curve" smooth="yes"/>
      <point x="746.0" y="-22.0"/>
      <point x="895.0" y="11.0"/>
      <point x="1005.0" y="74.0" type="curve" smooth="yes"/>
      <point x="1028.0" y="87.0"/>
      <point x="1041.0" y="111.0"/>
      <point x="1041.0" y="143.0" type="curve" smooth="yes"/>
      <point x="1041.0" y="526.0" type="line" smooth="yes"/>
      <point x="1041.0" y="576.0"/>
      <point x="1023.0" y="594.0"/>
      <point x="978.0" y="594.0" type="curve" smooth="yes"/>
      <point x="624.0" y="594.0" type="line" smooth="yes"/>
      <point x="579.0" y="594.0"/>
      <point x="561.0" y="574.0"/>
      <point x="561.0" y="522.0" type="curve" smooth="yes"/>
      <point x="561.0" y="470.0"/>
      <point x="579.0" y="450.0"/>
      <point x="624.0" y="450.0" type="curve" smooth="yes"/>
      <point x="843.0" y="450.0" type="line" smooth="yes"/>
      <point x="868.44" y="450.0"/>
      <point x="891.0" y="427.44"/>
      <point x="891.0" y="402.0" type="curve" smooth="yes"/>
      <point x="891.0" y="222.92402301575527" type="line" smooth="yes"/>
      <point x="891.0" y="201.59259236159443"/>
      <point x="873.8153323974609" y="174.76888388671875"/>
      <point x="854.4368774414063" y="165.8523028564453" type="curve" smooth="yes"/>
      <point x="803.9449462890625" y="142.61952209472656"/>
      <point x="705.0357666015625" y="126.0"/>
      <point x="592.0" y="126.0" type="curve" smooth="yes"/>
      <point x="370.0" y="126.0"/>
      <point x="222.0" y="306.0"/>
      <point x="222.0" y="594.0" type="curve" smooth="yes"/>
      <point x="222.0" y="882.0"/>
      <point x="385.0" y="1061.0"/>
      <point x="602.0" y="1061.0" type="curve" smooth="yes"/>
      <point x="713.0" y="1061.0"/>
      <point x="815.0" y="1036.0"/>
      <point x="913.0" y="980.0" type="curve" smooth="yes"/>
      <point x="943.0" y="963.0"/>
      <point x="977.0" y="962.0"/>
      <point x="1000.0" y="1015.0" type="curve" smooth="yes"/>
      <point x="1021.0" y="1065.0"/>
      <point x="1012.0" y="1097.0"/>
      <point x="973.0" y="1118.0" type="curve" smooth="yes"/>
      <point x="851.0" y="1184.0"/>
      <point x="735.0" y="1209.0"/>
      <point x="602.0" y="1209.0" type="curve" smooth="yes"/>
      <point x="293.0" y="1209.0"/>
      <point x="68.0" y="964.0"/>
    </contour>
  </outline>
</glyph>
<glyph name="H" format="2">
  <advance width="1046"/>
  <unicode hex="0048"/>
  <outline>
    <contour>
      <point x="886.0" y="1197.0" type="line" smooth="yes"/>
      <point x="830.0" y="1197.0"/>
      <point x="812.0" y="1178.0"/>
      <point x="812.0" y="1132.0" type="curve" smooth="yes"/>
      <point x="812.0" y="732.0" type="line" smooth="yes"/>
      <point x="812.0" y="706.56"/>
      <point x="789.44" y="684.0"/>
      <point x="764.0" y="684.0" type="curve" smooth="yes"/>
      <point x="282.0" y="684.0" type="line" smooth="yes"/>
      <point x="256.56" y="684.0"/>
      <point x="234.0" y="706.56"/>
      <point x="234.0" y="732.0" type="curve" smooth="yes"/>
      <point x="234.0" y="1132.0" type="line" smooth="yes"/>
      <point x="234.0" y="1178.0"/>
      <point x="216.0" y="1197.0"/>
      <point x="160.0" y="1197.0" type="curve" smooth="yes"/>
      <point x="158.0" y="1197.0" type="line" smooth="yes"/>
      <point x="102.0" y="1197.0"/>
      <point x="84.0" y="1178.0"/>
      <point x="84.0" y="1132.0" type="curve" smooth="yes"/>
      <point x="84.0" y="55.0" type="line" smooth="yes"/>
      <point x="84.0" y="9.0"/>
      <point x="102.0" y="-10.0"/>
      <point x="158.0" y="-10.0" type="curve" smooth="yes"/>
      <point x="160.0" y="-10.0" type="line" smooth="yes"/>
      <point x="216.0" y="-10.0"/>
      <point x="234.0" y="9.0"/>
      <point x="234.0" y="55.0" type="curve" smooth="yes"/>
      <point x="234.0" y="492.0" type="line" smooth="yes"/>
      <point x="234.0" y="517.44"/>
      <point x="256.56" y="540.0"/>
      <point x="282.0" y="540.0" type="curve" smooth="yes"/>
      <point x="764.0" y="540.0" type="line" smooth="yes"/>
      <point x="789.44" y="540.0"/>
      <point x="812.0" y="517.44"/>
      <point x="812.0" y="492.0" type="curve" smooth="yes"/>
      <point x="812.0" y="55.0" type="line" smooth="yes"/>
      <point x="812.0" y="9.0"/>
      <point x="830.0" y="-10.0"/>
      <point x="886.0" y="-10.0" type="curve" smooth="yes"/>
      <point x="888.0" y="-10.0" type="line" smooth="yes"/>
      <point x="944.0" y="-10.0"/>
      <point x="962.0" y="9.0"/>
      <point x="962.0" y="55.0" type="curve" smooth="yes"/>
      <point x="962.0" y="1132.0" type="line" smooth="yes"/>
      <point x="962.0" y="1178.0"/>
      <point x="944.0" y="1197.0"/>
      <point x="888.0" y="1197.0" type="curve" smooth="yes"/>
    </contour>
  </outline>
</glyph>
<glyph name="I" format="2">
  <advance width="520"/>
  <unicode hex="0049"/>
  <outline>
    <contour>
      <point x="102.79778761061942" y="144.0" type="line" smooth="yes"/>
      <point x="89.37079646017696" y="144.0"/>
      <point x="84.0" y="124.0"/>
      <point x="84.0" y="72.0" type="curve" smooth="yes"/>
      <point x="84.0" y="20.0"/>
      <point x="89.37079646017696" y="0.0"/>
      <point x="102.79778761061942" y="0.0" type="curve" smooth="yes"/>
      <point x="417.5022123893805" y="0.0" type="line" smooth="yes"/>
      <point x="430.929203539823" y="0.0"/>
      <point x="436.29999999999995" y="20.0"/>
      <point x="436.29999999999995" y="72.0" type="curve" smooth="yes"/>
      <point x="436.29999999999995" y="124.0"/>
      <point x="430.929203539823" y="144.0"/>
      <point x="417.5022123893805" y="144.0" type="curve" smooth="yes"/>
      <point x="369.7379292035398" y="144.0" type="line" smooth="yes"/>
      <point x="351.4063267256637" y="144.0"/>
      <point x="335.15" y="160.2563267256637"/>
      <point x="335.15" y="178.5879292035398" type="curve" smooth="yes"/>
      <point x="335.15" y="1010.918442477876" type="line" smooth="yes"/>
      <point x="335.15" y="1027.9216679646017"/>
      <point x="350.22833203539824" y="1043.0"/>
      <point x="367.2315575221239" y="1043.0" type="curve" smooth="yes"/>
      <point x="411.5346607669617" y="1043.0" type="line" smooth="yes"/>
      <point x="424.9616519174041" y="1043.0"/>
      <point x="430.33244837758104" y="1063.0"/>
      <point x="430.33244837758104" y="1115.0" type="curve" smooth="yes"/>
      <point x="430.33244837758104" y="1167.0"/>
      <point x="424.9616519174041" y="1187.0"/>
      <point x="411.5346607669617" y="1187.0" type="curve" smooth="yes"/>
      <point x="108.76533923303833" y="1187.0" type="line" smooth="yes"/>
      <point x="95.33834808259587" y="1187.0"/>
      <point x="89.96755162241885" y="1167.0"/>
      <point x="89.96755162241885" y="1115.0" type="curve" smooth="yes"/>
      <point x="89.96755162241885" y="1063.0"/>
      <point x="95.33834808259587" y="1043.0"/>
      <point x="108.76533923303833" y="1043.0" type="curve" smooth="yes"/>
      <point x="153.0684424778761" y="1043.0" type="line" smooth="yes"/>
      <point x="170.07166796460172" y="1043.0"/>
      <point x="185.14999999999998" y="1027.9216679646017"/>
      <point x="185.14999999999998" y="1010.9184424778762" type="curve" smooth="yes"/>
      <point x="185.14999999999998" y="178.58792920353983" type="line" smooth="yes"/>
      <point x="185.14999999999998" y="160.2563267256637"/>
      <point x="168.89367327433627" y="144.0"/>
      <point x="150.56207079646015" y="144.0" type="curve" smooth="yes"/>
    </contour>
  </outline>
</glyph>
<glyph name="J" format="2">
  <advance width="683"/>
  <unicode hex="004A"/>
  <outline>
    <contour>
      <point x="236.5958436526215" y="1187.0" type="line" smooth="yes"/>
      <point x="210.13133662871007" y="1187.0"/>
      <point x="199.54553381914548" y="1167.0"/>
      <point x="199.54553381914548" y="1115.0" type="curve" smooth="yes"/>
      <point x="199.54553381914548" y="1063.0"/>
      <point x="210.13133662871007" y="1043.0"/>
      <point x="236.5958436526215" y="1043.0" type="curve" smooth="yes"/>
      <point x="400.9" y="1043.0" type="line" smooth="yes"/>
      <point x="426.34000000000003" y="1043.0"/>
      <point x="448.9" y="1020.44"/>
      <point x="448.9" y="995.0" type="curve" smooth="yes"/>
      <point x="448.9" y="363.0" type="line" smooth="yes"/>
      <point x="448.9" y="210.0"/>
      <point x="407.7329890739155" y="126.0"/>
      <point x="318.34176534870346" y="126.0" type="curve" smooth="yes"/>
      <point x="257.17934911566374" y="126.0"/>
      <point x="197.7812333508847" y="160.0"/>
      <point x="148.96892039567024" y="222.0" type="curve" smooth="yes"/>
      <point x="133.6783163374103" y="242.0"/>
      <point x="113.68291103045499" y="246.0"/>
      <point x="94.86370603567354" y="197.0" type="curve" smooth="yes"/>
      <point x="77.80880150915283" y="151.0"/>
      <point x="81.33740244567434" y="118.0"/>
      <point x="101.92090790871657" y="92.0" type="curve" smooth="yes"/>
      <point x="161.31902367349562" y="17.0"/>
      <point x="240.12444458914308" y="-22.0"/>
      <point x="317.7536651926166" y="-22.0" type="curve" smooth="yes"/>
      <point x="461.9" y="-22.0"/>
      <point x="598.9" y="104.0"/>
      <point x="598.9" y="333.0" type="curve" smooth="yes"/>
      <point x="598.9" y="1119.0" type="line" smooth="yes"/>
      <point x="598.9" y="1169.0"/>
      <point x="577.9" y="1187.0"/>
      <point x="535.9" y="1187.0" type="curve" smooth="yes"/>
    </contour>
  </outline>
</glyph>
<glyph name="K" format="2">
  <advance width="988"/>
  <unicode hex="004B"/>
  <outline>
    <contour>
      <point x="128.0" y="1197.0" type="line" smooth="yes"/>
      <point x="72.0" y="1197.0"/>
      <point x="54.0" y="1178.0"/>
      <point x="54.0" y="1132.0" type="curve" smooth="yes"/>
      <point x="54.0" y="55.0" type="line" smooth="yes"/>
      <point x="54.0" y="9.0"/>
      <point x="72.0" y="-10.0"/>
      <point x="128.0" y="-10.0" type="curve" smooth="yes"/>
      <point x="130.0" y="-10.0" type="line" smooth="yes"/>
      <point x="186.0" y="-10.0"/>
      <point x="204.0" y="9.0"/>
      <point x="204.0" y="55.0" type="curve" smooth="yes"/>
      <point x="204.0" y="339.58740234375" type="line" smooth="yes"/>
      <point x="204.0" y="353.36740234375"/>
      <point x="212.39089296658005" y="374.4711692938336"/>
      <point x="221.85296375868097" y="384.4890341524385" type="curve" smooth="yes"/>
      <point x="360.10492198350653" y="530.8617959256865" type="line" smooth="yes"/>
      <point x="369.56699277560745" y="540.8796607842914"/>
      <point x="385.3608619900531" y="540.0410647153585"/>
      <point x="393.70889903551847" y="529.0775489705102" type="curve" smooth="yes"/>
      <point x="792.0" y="6.0" type="line" smooth="yes"/>
      <point x="817.0" y="-27.0"/>
      <point x="847.0" y="-25.0"/>
      <point x="891.0" y="0.0" type="curve" smooth="yes"/>
      <point x="940.0" y="28.0"/>
      <point x="945.0" y="55.0"/>
      <point x="917.0" y="92.0" type="curve" smooth="yes"/>
      <point x="498.74491788509556" y="640.2778682546614" type="line" smooth="yes"/>
      <point x="490.3870749069715" y="651.2339104576205"/>
      <point x="491.3662958334005" y="669.8334129133182"/>
      <point x="500.8283666647319" y="679.8512777348692" type="curve" smooth="yes"/>
      <point x="892.0" y="1094.0" type="line" smooth="yes"/>
      <point x="924.0" y="1127.0"/>
      <point x="922.0" y="1156.0"/>
      <point x="875.0" y="1187.0" type="curve" smooth="yes"/>
      <point x="835.0" y="1213.0"/>
      <point x="798.0" y="1216.0"/>
      <point x="775.0" y="1191.0" type="curve" smooth="yes"/>
      <point x="221.81309426758924" y="602.8414926406558" type="line" smooth="yes"/>
      <point x="212.3721543057669" y="592.8037113799754"/>
      <point x="204.0" y="596.1222827148438"/>
      <point x="204.0" y="609.9022827148438" type="curve" smooth="yes"/>
      <point x="204.0" y="1132.0" type="line" smooth="yes"/>
      <point x="204.0" y="1178.0"/>
      <point x="186.0" y="1197.0"/>
      <point x="130.0" y="1197.0" type="curve" smooth="yes"/>
    </contour>
  </outline>
</glyph>
<glyph name="L" format="2">
  <advance width="849"/>
  <unicode hex="004C"/>
  <outline>
    <contour>
      <point x="153.0" y="1197.0" type="line" smooth="yes"/>
      <point x="97.0" y="1197.0"/>
      <point x="79.0" y="1178.0"/>
      <point x="79.0" y="1132.0" type="curve" smooth="yes"/>
      <point x="79.0" y="68.0" type="line" smooth="yes"/>
      <point x="79.0" y="18.0"/>
      <point x="96.0" y="0.0"/>
      <point x="142.0" y="0.0" type="curve" smooth="yes"/>
      <point x="717.2032558139534" y="0.0" type="line" smooth="yes"/>
      <point x="754.9509302325581" y="0.0"/>
      <point x="770.05" y="20.0"/>
      <point x="770.05" y="72.0" type="curve" smooth="yes"/>
      <point x="770.05" y="124.0"/>
      <point x="754.9509302325581" y="144.0"/>
      <point x="717.2032558139534" y="144.0" type="curve" smooth="yes"/>
      <point x="277.0" y="144.0" type="line" smooth="yes"/>
      <point x="251.56" y="144.0"/>
      <point x="229.0" y="166.56"/>
      <point x="229.0" y="192.0" type="curve" smooth="yes"/>
      <point x="229.0" y="1132.0" type="line" smooth="yes"/>
      <point x="229.0" y="1178.0"/>
      <point x="211.0" y="1197.0"/>
      <point x="155.0" y="1197.0" type="curve" smooth="yes"/>
    </contour>
  </outline>
</glyph>
<glyph name="M" format="2">
  <advance width="1106"/>
  <unicode hex="004D"/>
  <outline>
    <contour>
      <point x="915.0391340834062" y="1197.0" type="line" smooth="yes"/>
      <point x="868.0391340834062" y="1197.0"/>
      <point x="839.0391340834062" y="1177.0"/>
      <point x="818.0391340834062" y="1132.0" type="curve" smooth="yes"/>
      <point x="573.274909782865" y="605.52600810827" type="line" smooth="yes"/>
      <point x="562.5499486621518" y="582.457223810887"/>
      <point x="543.5283195046604" y="582.457223810887"/>
      <point x="532.8033583839474" y="605.52600810827" type="curve" smooth="yes"/>
      <point x="288.03913408340617" y="1132.0" type="line" smooth="yes"/>
      <point x="267.03913408340617" y="1177.0"/>
      <point x="239.03913408340617" y="1197.0"/>
      <point x="192.03913408340617" y="1197.0" type="curve" smooth="yes"/>
      <point x="190.03913408340617" y="1197.0" type="line" smooth="yes"/>
      <point x="143.03913408340617" y="1197.0"/>
      <point x="115.03913408340617" y="1182.0"/>
      <point x="114.03913408340617" y="1132.0" type="curve" smooth="yes"/>
      <point x="84.03913408340617" y="55.0" type="line" smooth="yes"/>
      <point x="83.03913408340617" y="9.0"/>
      <point x="101.03913408340617" y="-10.0"/>
      <point x="157.03913408340617" y="-10.0" type="curve" smooth="yes"/>
      <point x="159.03913408340617" y="-10.0" type="line" smooth="yes"/>
      <point x="215.03913408340617" y="-10.0"/>
      <point x="232.03913408340617" y="9.0"/>
      <point x="233.03913408340617" y="55.0" type="curve" smooth="yes"/>
      <point x="252.79969509417424" y="820.0160048454491" type="line" smooth="yes"/>
      <point x="253.45659775846718" y="845.447522277361"/>
      <point x="263.53670896517633" y="847.5366261001474"/>
      <point x="274.246740214832" y="824.4609065960583" type="curve" smooth="yes"/>
      <point x="461.03913408340617" y="422.0" type="line" smooth="yes"/>
      <point x="483.03913408340617" y="375.0"/>
      <point x="508.03913408340617" y="358.0"/>
      <point x="553.0391340834062" y="358.0" type="curve" smooth="yes"/>
      <point x="598.0391340834062" y="358.0"/>
      <point x="623.0391340834062" y="375.0"/>
      <point x="645.0391340834062" y="422.0" type="curve" smooth="yes"/>
      <point x="831.8315279519802" y="824.4609065960583" type="line" smooth="yes"/>
      <point x="842.5415592016359" y="847.5366261001474"/>
      <point x="852.6216704083452" y="845.447522277361"/>
      <point x="853.2785730726382" y="820.0160048454491" type="curve" smooth="yes"/>
      <point x="873.0391340834062" y="55.0" type="line" smooth="yes"/>
      <point x="874.0391340834062" y="9.0"/>
      <point x="891.0391340834062" y="-10.0"/>
      <point x="947.0391340834062" y="-10.0" type="curve" smooth="yes"/>
      <point x="949.0391340834062" y="-10.0" type="line" smooth="yes"/>
      <point x="1005.0391340834062" y="-10.0"/>
      <point x="1023.0391340834062" y="9.0"/>
      <point x="1022.0391340834062" y="55.0" type="curve" smooth="yes"/>
      <point x="992.0391340834062" y="1132.0" type="line" smooth="yes"/>
      <point x="991.0391340834062" y="1182.0"/>
      <point x="964.0391340834062" y="1197.0"/>
      <point x="917.0391340834062" y="1197.0" type="curve" smooth="yes"/>
    </contour>
  </outline>
</glyph>
<glyph name="N" format="2">
  <advance width="1046"/>
  <unicode hex="004E"/>
  <outline>
    <contour>
      <point x="888.0" y="1197.0" type="line" smooth="yes"/>
      <point x="834.0" y="1197.0"/>
      <point x="816.0" y="1178.0"/>
      <point x="816.0" y="1132.0" type="curve" smooth="yes"/>
      <point x="816.0" y="287.0" type="line"/>
      <point x="812.0" y="287.0" type="line"/>
      <point x="248.0" y="1169.0" type="line" smooth="yes"/>
      <point x="236.0" y="1187.0"/>
      <point x="215.0" y="1197.0"/>
      <point x="186.0" y="1197.0" type="curve" smooth="yes"/>
      <point x="159.0" y="1197.0" type="line" smooth="yes"/>
      <point x="103.0" y="1197.0"/>
      <point x="84.0" y="1178.0"/>
      <point x="84.0" y="1132.0" type="curve" smooth="yes"/>
      <point x="84.0" y="55.0" type="line" smooth="yes"/>
      <point x="84.0" y="9.0"/>
      <point x="102.0" y="-10.0"/>
      <point x="156.0" y="-10.0" type="curve" smooth="yes"/>
      <point x="158.0" y="-10.0" type="line" smooth="yes"/>
      <point x="212.0" y="-10.0"/>
      <point x="230.0" y="9.0"/>
      <point x="230.0" y="55.0" type="curve" smooth="yes"/>
      <point x="230.0" y="921.0" type="line"/>
      <point x="234.0" y="921.0" type="line"/>
      <point x="803.0" y="33.0" type="line" smooth="yes"/>
      <point x="825.0" y="-1.0"/>
      <point x="849.0" y="-22.0"/>
      <point x="887.0" y="-22.0" type="curve" smooth="yes"/>
      <point x="939.0" y="-22.0"/>
      <point x="962.0" y="2.0"/>
      <point x="962.0" y="37.0" type="curve" smooth="yes"/>
      <point x="962.0" y="1132.0" type="line" smooth="yes"/>
      <point x="962.0" y="1178.0"/>
      <point x="944.0" y="1197.0"/>
      <point x="890.0" y="1197.0" type="curve" smooth="yes"/>
    </contour>
  </outline>
</glyph>
<glyph name="O" format="2">
  <advance width="1168"/>
  <unicode hex="004F"/>
  <outline>
    <contour>
      <point x="60.0" y="593.0" type="curve" smooth="yes"/>
      <point x="60.0" y="223.0"/>
      <point x="269.0" y="-22.0"/>
      <point x="584.0" y="-22.0" type="curve" smooth="yes"/>
      <point x="899.0" y="-22.0"/>
      <point x="1108.0" y="223.0"/>
      <point x="1108.0" y="593.0" type="curve" smooth="yes"/>
      <point x="1108.0" y="963.0"/>
      <point x="899.0" y="1209.0"/>
      <point x="584.0" y="1209.0" type="curve" smooth="yes"/>
      <point x="269.0" y="1209.0"/>
      <point x="60.0" y="963.0"/>
    </contour>
    <contour>
      <point x="954.0" y="593.0" type="curve" smooth="yes"/>
      <point x="954.0" y="303.0"/>
      <point x="808.0" y="126.0"/>
      <point x="584.0" y="126.0" type="curve" smooth="yes"/>
      <point x="360.0" y="126.0"/>
      <point x="214.0" y="303.0"/>
      <point x="214.0" y="593.0" type="curve" smooth="yes"/>
      <point x="214.0" y="883.0"/>
      <point x="360.0" y="1061.0"/>
      <point x="584.0" y="1061.0" type="curve" smooth="yes"/>
      <point x="808.0" y="1061.0"/>
      <point x="954.0" y="883.0"/>
    </contour>
  </outline>
</glyph>
<glyph name="P" format="2">
  <advance width="903"/>
  <unicode hex="0050"/>
  <outline>
    <contour>
      <point x="142.0" y="1187.0" type="line" smooth="yes"/>
      <point x="97.0" y="1187.0"/>
      <point x="79.0" y="1169.0"/>
      <point x="79.0" y="1119.0" type="curve" smooth="yes"/>
      <point x="79.0" y="55.0" type="line" smooth="yes"/>
      <point x="79.0" y="9.0"/>
      <point x="97.0" y="-10.0"/>
      <point x="153.0" y="-10.0" type="curve" smooth="yes"/>
      <point x="155.0" y="-10.0" type="line" smooth="yes"/>
      <point x="211.0" y="-10.0"/>
      <point x="229.0" y="9.0"/>
      <point x="229.0" y="55.0" type="curve" smooth="yes"/>
      <point x="229.0" y="345.0" type="line" smooth="yes"/>
      <point x="229.0" y="370.44"/>
      <point x="251.56" y="393.0"/>
      <point x="277.0" y="393.0" type="curve" smooth="yes"/>
      <point x="449.9443231441048" y="393.0" type="line" smooth="yes"/>
      <point x="692.5498544395924" y="393.0"/>
      <point x="824.25" y="553.0"/>
      <point x="824.25" y="788.0" type="curve" smooth="yes"/>
      <point x="824.25" y="1024.0"/>
      <point x="692.5498544395924" y="1187.0"/>
      <point x="449.9443231441048" y="1187.0" type="curve" smooth="yes"/>
    </contour>
    <contour>
      <point x="277.0" y="537.0" type="line" smooth="yes"/>
      <point x="251.56" y="537.0"/>
      <point x="229.0" y="559.56"/>
      <point x="229.0" y="585.0" type="curve" smooth="yes"/>
      <point x="229.0" y="995.0" type="line" smooth="yes"/>
      <point x="229.0" y="1020.44"/>
      <point x="251.56" y="1043.0"/>
      <point x="277.0" y="1043.0" type="curve" smooth="yes"/>
      <point x="431.7489082969432" y="1043.0" type="line" smooth="yes"/>
      <point x="602.43922852984" y="1043.0"/>
      <point x="690.8169577874818" y="949.0"/>
      <point x="690.8169577874818" y="788.0" type="curve" smooth="yes"/>
      <point x="690.8169577874818" y="629.0"/>
      <point x="602.43922852984" y="537.0"/>
      <point x="431.7489082969432" y="537.0" type="curve" smooth="yes"/>
    </contour>
  </outline>
</glyph>
<glyph name="Q" format="2">
  <advance width="1184"/>
  <unicode hex="0051"/>
  <outline>
    <contour>
      <point x="575.0" y="300.0" type="curve" smooth="yes"/>
      <point x="706.0" y="95.0" type="line"/>
      <point x="732.0" y="54.0" type="line"/>
      <point x="854.0" y="-135.0" type="line" smooth="yes"/>
      <point x="879.0" y="-173.0"/>
      <point x="905.0" y="-179.0"/>
      <point x="952.0" y="-149.0" type="curve" smooth="yes"/>
      <point x="1000.0" y="-119.0"/>
      <point x="1005.0" y="-92.0"/>
      <point x="980.0" y="-54.0" type="curve" smooth="yes"/>
      <point x="701.0" y="381.0" type="line" smooth="yes"/>
      <point x="676.0" y="420.0"/>
      <point x="650.0" y="426.0"/>
      <point x="603.0" y="396.0" type="curve" smooth="yes"/>
      <point x="556.0" y="365.0"/>
      <point x="550.0" y="339.0"/>
    </contour>
    <component base="O"/>
  </outline>
</glyph>
<glyph name="S" format="2">
  <advance width="1015"/>
  <unicode hex="0053"/>
  <outline>
    <contour>
      <point x="65.42978909692687" y="863.0" type="curve" smooth="yes"/>
      <point x="65.42978909692687" y="724.0"/>
      <point x="134.42978909692687" y="651.0"/>
      <point x="229.42978909692687" y="608.0" type="curve" smooth="yes"/>
      <point x="366.42978909692687" y="546.0"/>
      <point x="557.4297890969269" y="544.0"/>
      <point x="680.4297890969269" y="492.0" type="curve" smooth="yes"/>
      <point x="752.4297890969269" y="461.0"/>
      <point x="801.4297890969269" y="414.0"/>
      <point x="801.4297890969269" y="327.0" type="curve" smooth="yes"/>
      <point x="801.4297890969269" y="209.0"/>
      <point x="710.4297890969269" y="126.0"/>
      <point x="515.4297890969269" y="126.0" type="curve" smooth="yes"/>
      <point x="384.42978909692687" y="126.0"/>
      <point x="258.42978909692687" y="171.0"/>
      <point x="163.42978909692687" y="232.0" type="curve" smooth="yes"/>
      <point x="135.42978909692687" y="250.0"/>
      <point x="101.42978909692687" y="251.0"/>
      <point x="74.42978909692687" y="199.0" type="curve" smooth="yes"/>
      <point x="49.42978909692687" y="151.0"/>
      <point x="57.42978909692687" y="117.0"/>
      <point x="94.42978909692687" y="94.0" type="curve" smooth="yes"/>
      <point x="212.42978909692687" y="21.0"/>
      <point x="362.42978909692687" y="-22.0"/>
      <point x="515.4297890969269" y="-22.0" type="curve" smooth="yes"/>
      <point x="809.4297890969269" y="-22.0"/>
      <point x="955.4297890969269" y="121.0"/>
      <point x="955.4297890969269" y="327.0" type="curve" smooth="yes"/>
      <point x="955.4297890969269" y="503.0"/>
      <point x="866.4297890969269" y="587.0"/>
      <point x="749.4297890969269" y="634.0" type="curve" smooth="yes"/>
      <point x="598.4297890969269" y="695.0"/>
      <point x="402.42978909692687" y="694.0"/>
      <point x="296.42978909692687" y="748.0" type="curve" smooth="yes"/>
      <point x="248.42978909692687" y="772.0"/>
      <point x="219.42978909692687" y="807.0"/>
      <point x="219.42978909692687" y="863.0" type="curve" smooth="yes"/>
      <point x="219.42978909692687" y="985.0"/>
      <point x="311.42978909692687" y="1061.0"/>
      <point x="471.42978909692687" y="1061.0" type="curve" smooth="yes"/>
      <point x="602.4297890969269" y="1061.0"/>
      <point x="719.4297890969269" y="1027.0"/>
      <point x="816.4297890969269" y="969.0" type="curve" smooth="yes"/>
      <point x="845.4297890969269" y="952.0"/>
      <point x="880.4297890969269" y="952.0"/>
      <point x="904.4297890969269" y="1004.0" type="curve" smooth="yes"/>
      <point x="927.4297890969269" y="1054.0"/>
      <point x="919.4297890969269" y="1087.0"/>
      <point x="881.4297890969269" y="1109.0" type="curve" smooth="yes"/>
      <point x="760.4297890969269" y="1178.0"/>
      <point x="624.4297890969269" y="1209.0"/>
      <point x="471.42978909692687" y="1209.0" type="curve" smooth="yes"/>
      <point x="231.42978909692687" y="1209.0"/>
      <point x="65.42978909692687" y="1080.0"/>
    </contour>
  </outline>
</glyph>
<glyph name="T" format="2">
  <advance width="944"/>
  <unicode hex="0054"/>
  <outline>
    <contour>
      <point x="127.03561151079134" y="1187.0" type="line" smooth="yes"/>
      <point x="92.72446043165468" y="1187.0"/>
      <point x="79.0" y="1167.0"/>
      <point x="79.0" y="1115.0" type="curve" smooth="yes"/>
      <point x="79.0" y="1063.0"/>
      <point x="92.72446043165468" y="1043.0"/>
      <point x="127.03561151079134" y="1043.0" type="curve" smooth="yes"/>
      <point x="348.95" y="1043.0" type="line" smooth="yes"/>
      <point x="374.39000000000004" y="1043.0"/>
      <point x="396.95" y="1020.44"/>
      <point x="396.95" y="995.0" type="curve" smooth="yes"/>
      <point x="396.95" y="55.0" type="line" smooth="yes"/>
      <point x="396.95" y="9.0"/>
      <point x="414.95" y="-10.0"/>
      <point x="470.95" y="-10.0" type="curve" smooth="yes"/>
      <point x="472.95" y="-10.0" type="line" smooth="yes"/>
      <point x="528.95" y="-10.0"/>
      <point x="546.95" y="9.0"/>
      <point x="546.95" y="55.0" type="curve" smooth="yes"/>
      <point x="546.95" y="995.0" type="line" smooth="yes"/>
      <point x="546.95" y="1020.44"/>
      <point x="569.51" y="1043.0"/>
      <point x="594.95" y="1043.0" type="curve" smooth="yes"/>
      <point x="816.8643884892087" y="1043.0" type="line" smooth="yes"/>
      <point x="851.1755395683454" y="1043.0"/>
      <point x="864.9000000000001" y="1063.0"/>
      <point x="864.9000000000001" y="1115.0" type="curve" smooth="yes"/>
      <point x="864.9000000000001" y="1167.0"/>
      <point x="851.1755395683454" y="1187.0"/>
      <point x="816.8643884892087" y="1187.0" type="curve" smooth="yes"/>
    </contour>
  </outline>
</glyph>
<glyph name="U" format="2">
  <advance width="1046"/>
  <unicode hex="0055"/>
  <outline>
    <contour>
      <point x="886.0" y="1197.0" type="line" smooth="yes"/>
      <point x="830.0" y="1197.0"/>
      <point x="812.0" y="1178.0"/>
      <point x="812.0" y="1132.0" type="curve" smooth="yes"/>
      <point x="812.0" y="433.0" type="line" smooth="yes"/>
      <point x="812.0" y="225.0"/>
      <point x="705.0" y="126.0"/>
      <point x="523.0" y="126.0" type="curve" smooth="yes"/>
      <point x="341.0" y="126.0"/>
      <point x="234.0" y="225.0"/>
      <point x="234.0" y="433.0" type="curve" smooth="yes"/>
      <point x="234.0" y="1132.0" type="line" smooth="yes"/>
      <point x="234.0" y="1178.0"/>
      <point x="216.0" y="1197.0"/>
      <point x="160.0" y="1197.0" type="curve" smooth="yes"/>
      <point x="158.0" y="1197.0" type="line" smooth="yes"/>
      <point x="102.0" y="1197.0"/>
      <point x="84.0" y="1178.0"/>
      <point x="84.0" y="1132.0" type="curve" smooth="yes"/>
      <point x="84.0" y="413.0" type="line" smooth="yes"/>
      <point x="84.0" y="128.0"/>
      <point x="263.0" y="-22.0"/>
      <point x="523.0" y="-22.0" type="curve" smooth="yes"/>
      <point x="783.0" y="-22.0"/>
      <point x="962.0" y="128.0"/>
      <point x="962.0" y="413.0" type="curve" smooth="yes"/>
      <point x="962.0" y="1132.0" type="line" smooth="yes"/>
      <point x="962.0" y="1178.0"/>
      <point x="944.0" y="1197.0"/>
      <point x="888.0" y="1197.0" type="curve" smooth="yes"/>
    </contour>
  </outline>
</glyph>
<glyph name="V" format="2">
  <advance width="1150"/>
  <unicode hex="0056"/>
  <outline>
    <contour>
      <point x="935.8166748080198" y="1151.0" type="curve" smooth="yes"/>
      <point x="591.5739079203213" y="226.97994151196716" type="line" smooth="yes"/>
      <point x="582.6925743708015" y="203.14057251062457"/>
      <point x="566.9407752452381" y="203.14057251062457"/>
      <point x="558.0594416957183" y="226.97994151196716" type="curve" smooth="yes"/>
      <point x="213.8166748080198" y="1151.0" type="line" smooth="yes"/>
      <point x="197.8166748080198" y="1195.0"/>
      <point x="172.8166748080198" y="1207.0"/>
      <point x="119.8166748080198" y="1189.0" type="curve" smooth="yes"/>
      <point x="65.8166748080198" y="1171.0"/>
      <point x="51.8166748080198" y="1147.0"/>
      <point x="68.8166748080198" y="1103.0" type="curve" smooth="yes"/>
      <point x="467.8166748080198" y="43.0" type="line" smooth="yes"/>
      <point x="485.8166748080198" y="-4.0"/>
      <point x="517.8166748080198" y="-22.0"/>
      <point x="574.8166748080198" y="-22.0" type="curve" smooth="yes"/>
      <point x="631.8166748080198" y="-22.0"/>
      <point x="663.8166748080198" y="-4.0"/>
      <point x="681.8166748080198" y="43.0" type="curve" smooth="yes"/>
      <point x="1080.8166748080198" y="1103.0" type="line" smooth="yes"/>
      <point x="1097.8166748080198" y="1147.0"/>
      <point x="1083.8166748080198" y="1171.0"/>
      <point x="1029.8166748080198" y="1189.0" type="curve" smooth="yes"/>
      <point x="976.8166748080198" y="1207.0"/>
      <point x="951.8166748080198" y="1195.0"/>
    </contour>
  </outline>
</glyph>
<glyph name="W" format="2">
  <advance width="1211"/>
  <unicode hex="0057"/>
  <outline>
    <contour>
      <point x="998.436144917063" y="1139.0" type="curve" smooth="yes"/>
      <point x="892.4895810262265" y="305.6167608229736" type="line" smooth="yes"/>
      <point x="889.2812598883698" y="280.3798775867976"/>
      <point x="878.9334110205542" y="279.27586858575177"/>
      <point x="870.47288130747" y="303.2678055015995" type="curve" smooth="yes"/>
      <point x="679.436144917063" y="845.0" type="line" smooth="yes"/>
      <point x="670.436144917063" y="871.0"/>
      <point x="649.436144917063" y="885.0"/>
      <point x="605.436144917063" y="885.0" type="curve" smooth="yes"/>
      <point x="561.436144917063" y="885.0"/>
      <point x="540.436144917063" y="871.0"/>
      <point x="531.436144917063" y="845.0" type="curve" smooth="yes"/>
      <point x="340.39940852665603" y="303.2678055015995" type="line" smooth="yes"/>
      <point x="331.93887881357176" y="279.27586858575177"/>
      <point x="321.5910299457562" y="280.3798775867976"/>
      <point x="318.3827088078995" y="305.6167608229736" type="curve" smooth="yes"/>
      <point x="212.43614491706302" y="1139.0" type="line" smooth="yes"/>
      <point x="206.43614491706302" y="1186.0"/>
      <point x="186.43614491706302" y="1202.0"/>
      <point x="130.43614491706302" y="1196.0" type="curve" smooth="yes"/>
      <point x="74.436144917063" y="1189.0"/>
      <point x="56.436144917063004" y="1169.0"/>
      <point x="63.436144917063004" y="1122.0" type="curve" smooth="yes"/>
      <point x="212.43614491706302" y="43.0" type="line" smooth="yes"/>
      <point x="219.43614491706302" y="-6.0"/>
      <point x="247.43614491706302" y="-22.0"/>
      <point x="298.436144917063" y="-22.0" type="curve" smooth="yes"/>
      <point x="349.436144917063" y="-22.0"/>
      <point x="382.436144917063" y="-2.0"/>
      <point x="398.436144917063" y="43.0" type="curve" smooth="yes"/>
      <point x="589.4486600059776" y="583.7407431985697" type="line" smooth="yes"/>
      <point x="597.9220270088529" y="607.7281493033278"/>
      <point x="612.9502628252731" y="607.7281493033278"/>
      <point x="621.4236298281484" y="583.7407431985697" type="curve" smooth="yes"/>
      <point x="812.436144917063" y="43.0" type="line" smooth="yes"/>
      <point x="828.436144917063" y="-2.0"/>
      <point x="861.436144917063" y="-22.0"/>
      <point x="912.436144917063" y="-22.0" type="curve" smooth="yes"/>
      <point x="963.436144917063" y="-22.0"/>
      <point x="991.436144917063" y="-6.0"/>
      <point x="998.436144917063" y="43.0" type="curve" smooth="yes"/>
      <point x="1147.436144917063" y="1122.0" type="line" smooth="yes"/>
      <point x="1154.436144917063" y="1169.0"/>
      <point x="1136.436144917063" y="1189.0"/>
      <point x="1080.436144917063" y="1196.0" type="curve" smooth="yes"/>
      <point x="1024.436144917063" y="1202.0"/>
      <point x="1004.436144917063" y="1186.0"/>
    </contour>
  </outline>
</glyph>
<glyph name="X" format="2">
  <advance width="1049"/>
  <unicode hex="0058"/>
  <outline>
    <contour>
      <point x="820.5255848495822" y="1172.0" type="curve" smooth="yes"/>
      <point x="551.6979302589987" y="764.8051727040549" type="line" smooth="yes"/>
      <point x="537.6816329683752" y="743.5746048769605"/>
      <point x="512.7800373078082" y="743.5464760834107"/>
      <point x="498.7158118322605" y="764.7453242071402" type="curve" smooth="yes"/>
      <point x="228.52558484958212" y="1172.0" type="line" smooth="yes"/>
      <point x="201.52558484958212" y="1211.0"/>
      <point x="172.52558484958212" y="1210.0"/>
      <point x="121.52558484958212" y="1187.0" type="curve" smooth="yes"/>
      <point x="75.52558484958212" y="1166.0"/>
      <point x="63.52558484958212" y="1138.0"/>
      <point x="91.52558484958212" y="1098.0" type="curve" smooth="yes"/>
      <point x="403.4523058854307" y="644.2107264990258" type="line" smooth="yes"/>
      <point x="417.8631237168997" y="623.2459481928233"/>
      <point x="417.6773880361431" y="586.1921809200336"/>
      <point x="403.0571235859486" y="565.3729237909625" type="curve" smooth="yes"/>
      <point x="68.52558484958212" y="89.0" type="line" smooth="yes"/>
      <point x="41.52558484958212" y="49.0"/>
      <point x="52.52558484958212" y="21.0"/>
      <point x="98.52558484958212" y="0.0" type="curve" smooth="yes"/>
      <point x="149.52558484958212" y="-23.0"/>
      <point x="178.52558484958212" y="-25.0"/>
      <point x="205.52558484958212" y="15.0" type="curve" smooth="yes"/>
      <point x="495.98484986977286" y="446.81036649087804" type="line" smooth="yes"/>
      <point x="510.1838100145405" y="467.91920660129864"/>
      <point x="535.4620326442139" y="467.9835697895793"/>
      <point x="549.7683022733331" y="446.94730944466676" type="curve" smooth="yes"/>
      <point x="843.5255848495822" y="15.0" type="line" smooth="yes"/>
      <point x="869.5255848495822" y="-25.0"/>
      <point x="899.5255848495822" y="-23.0"/>
      <point x="950.5255848495822" y="0.0" type="curve" smooth="yes"/>
      <point x="996.5255848495822" y="21.0"/>
      <point x="1008.5255848495822" y="50.0"/>
      <point x="980.5255848495822" y="89.0" type="curve" smooth="yes"/>
      <point x="645.0477120442852" y="564.8488206474706" type="line" smooth="yes"/>
      <point x="630.3890089230847" y="585.6410312756002"/>
      <point x="630.18511076657" y="622.6598575457341"/>
      <point x="644.6138861793602" y="643.6122807966915" type="curve" smooth="yes"/>
      <point x="957.5255848495822" y="1098.0" type="line" smooth="yes"/>
      <point x="985.5255848495822" y="1138.0"/>
      <point x="973.5255848495822" y="1166.0"/>
      <point x="927.5255848495822" y="1187.0" type="curve" smooth="yes"/>
      <point x="876.5255848495822" y="1210.0"/>
      <point x="847.5255848495822" y="1211.0"/>
    </contour>
  </outline>
</glyph>
<glyph name="Y" format="2">
  <advance width="910"/>
  <unicode hex="0059"/>
  <outline>
    <contour>
      <point x="734.3852796686778" y="1172.0" type="curve" smooth="yes"/>
      <point x="477.6570093717547" y="688.4157167811798" type="line" smooth="yes"/>
      <point x="465.72807443402166" y="665.9458678441857"/>
      <point x="444.55930391243214" y="665.9396033847033"/>
      <point x="432.617072091777" y="688.4023881439831" type="curve" smooth="yes"/>
      <point x="175.51472033132225" y="1172.0" type="line" smooth="yes"/>
      <point x="159.37509298905823" y="1205.0"/>
      <point x="137.08703618307456" y="1210.0"/>
      <point x="98.65935203482687" y="1187.0" type="curve" smooth="yes"/>
      <point x="58.694560520649276" y="1163.0"/>
      <point x="53.3146847398946" y="1136.0"/>
      <point x="73.2970804969834" y="1096.0" type="curve" smooth="yes"/>
      <point x="358.3698611695479" y="529.6180182423226" type="line" smooth="yes"/>
      <point x="369.8073347496876" y="506.8940705636377"/>
      <point x="379.95000000000005" y="464.1826452636719"/>
      <point x="379.95000000000005" y="438.7426452636719" type="curve" smooth="yes"/>
      <point x="379.95000000000005" y="55.0" type="line" smooth="yes"/>
      <point x="379.95000000000005" y="9.0"/>
      <point x="397.95000000000005" y="-10.0"/>
      <point x="453.95000000000005" y="-10.0" type="curve" smooth="yes"/>
      <point x="455.95000000000005" y="-10.0" type="line" smooth="yes"/>
      <point x="511.95000000000005" y="-10.0"/>
      <point x="529.95" y="9.0"/>
      <point x="529.95" y="55.0" type="curve" smooth="yes"/>
      <point x="529.95" y="439.4532470703125" type="line" smooth="yes"/>
      <point x="529.95" y="464.8932470703125"/>
      <point x="540.1021115999094" y="507.5999150345935"/>
      <point x="551.5502374466157" y="530.3184980581444" type="curve" smooth="yes"/>
      <point x="836.6029195030167" y="1096.0" type="line" smooth="yes"/>
      <point x="856.5853152601055" y="1136.0"/>
      <point x="851.2054394793507" y="1163.0"/>
      <point x="811.2406479651731" y="1187.0" type="curve" smooth="yes"/>
      <point x="772.8129638169255" y="1210.0"/>
      <point x="751.2934606939068" y="1205.0"/>
    </contour>
  </outline>
</glyph>
<glyph name="Z" format="2">
  <advance width="1000"/>
  <unicode hex="005A"/>
  <outline>
    <contour>
      <point x="143.0" y="1187.0" type="line" smooth="yes"/>
      <point x="98.0" y="1187.0"/>
      <point x="80.0" y="1167.0"/>
      <point x="80.0" y="1115.0" type="curve" smooth="yes"/>
      <point x="80.0" y="1063.0"/>
      <point x="98.0" y="1043.0"/>
      <point x="143.0" y="1043.0" type="curve" smooth="yes"/>
      <point x="682.5021362304688" y="1043.0" type="line" smooth="yes"/>
      <point x="696.2821362304687" y="1043.0"/>
      <point x="701.5809728658832" y="1032.9289574680315"/>
      <point x="693.7762567313505" y="1021.5722499319819" type="curve" smooth="yes"/>
      <point x="68.0" y="111.0" type="line" smooth="yes"/>
      <point x="60.0" y="99.0"/>
      <point x="54.0" y="86.0"/>
      <point x="54.0" y="68.0" type="curve" smooth="yes"/>
      <point x="54.0" y="18.0"/>
      <point x="72.0" y="0.0"/>
      <point x="117.0" y="0.0" type="curve" smooth="yes"/>
      <point x="883.0" y="0.0" type="line" smooth="yes"/>
      <point x="928.0" y="0.0"/>
      <point x="946.0" y="20.0"/>
      <point x="946.0" y="72.0" type="curve" smooth="yes"/>
      <point x="946.0" y="124.0"/>
      <point x="928.0" y="144.0"/>
      <point x="883.0" y="144.0" type="curve" smooth="yes"/>
      <point x="300.5" y="144.0" type="line" smooth="yes"/>
      <point x="286.72" y="144.0"/>
      <point x="281.42298221567995" y="154.06979231371628"/>
      <point x="289.2297493950637" y="165.42509002918356" type="curve" smooth="yes"/>
      <point x="918.0" y="1080.0" type="line" smooth="yes"/>
      <point x="925.0" y="1090.0"/>
      <point x="928.0" y="1103.0"/>
      <point x="928.0" y="1119.0" type="curve" smooth="yes"/>
      <point x="928.0" y="1169.0"/>
      <point x="910.0" y="1187.0"/>
      <point x="865.0" y="1187.0" type="curve" smooth="yes"/>
    </contour>
  </outline>
</glyph>
<glyph name="bracketleft" format="2">
  <advance width="681"/>
  <unicode hex="005B"/>
  <outline>
    <contour>
      <point x="144.0" y="1372.0" type="line" smooth="yes"/>
      <point x="99.0" y="1372.0"/>
      <point x="81.0" y="1354.0"/>
      <point x="81.0" y="1304.0" type="curve" smooth="yes"/>
      <point x="81.0" y="-265.0" type="line" smooth="yes"/>
      <point x="81.0" y="-315.0"/>
      <point x="99.0" y="-333.0"/>
      <point x="144.0" y="-333.0" type="curve" smooth="yes"/>
      <point x="558.0" y="-333.0" type="line" smooth="yes"/>
      <point x="603.0" y="-333.0"/>
      <point x="621.0" y="-313.0"/>
      <point x="621.0" y="-261.0" type="curve" smooth="yes"/>
      <point x="621.0" y="-209.0"/>
      <point x="603.0" y="-189.0"/>
      <point x="558.0" y="-189.0" type="curve" smooth="yes"/>
      <point x="257.0" y="-189.0" type="line" smooth="yes"/>
      <point x="243.22000000000003" y="-189.0"/>
      <point x="231.0" y="-176.78"/>
      <point x="231.0" y="-163.0" type="curve" smooth="yes"/>
      <point x="231.0" y="1202.0" type="line" smooth="yes"/>
      <point x="231.0" y="1215.78"/>
      <point x="243.22000000000003" y="1228.0"/>
      <point x="257.0" y="1228.0" type="curve" smooth="yes"/>
      <point x="558.0" y="1228.0" type="line" smooth="yes"/>
      <point x="603.0" y="1228.0"/>
      <point x="621.0" y="1248.0"/>
      <point x="621.0" y="1300.0" type="curve" smooth="yes"/>
      <point x="621.0" y="1352.0"/>
      <point x="603.0" y="1372.0"/>
      <point x="558.0" y="1372.0" type="curve" smooth="yes"/>
    </contour>
  </outline>
</glyph>
<glyph name="backslash" format="2">
  <advance width="1017"/>
  <unicode hex="005C"/>
  <outline>
    <contour>
      <point x="95.4144743478536" y="1324.0" type="curve" smooth="yes"/>
      <point x="767.4144743478536" y="-319.0" type="line" smooth="yes"/>
      <point x="776.4144743478536" y="-340.0"/>
      <point x="800.4144743478536" y="-355.0"/>
      <point x="832.4144743478536" y="-355.0" type="curve" smooth="yes"/>
      <point x="895.4144743478536" y="-355.0"/>
      <point x="937.4144743478536" y="-325.0"/>
      <point x="921.4144743478536" y="-285.0" type="curve" smooth="yes"/>
      <point x="249.4144743478536" y="1358.0" type="line" smooth="yes"/>
      <point x="240.4144743478536" y="1379.0"/>
      <point x="216.4144743478536" y="1394.0"/>
      <point x="184.4144743478536" y="1394.0" type="curve" smooth="yes"/>
      <point x="121.4144743478536" y="1394.0"/>
      <point x="79.4144743478536" y="1364.0"/>
    </contour>
  </outline>
</glyph>
<glyph name="asciicircum" format="2">
  <advance width="921"/>
  <unicode hex="005E"/>
  <outline>
    <contour>
      <point x="392.7293950899377" y="1172.0" type="curve" smooth="yes"/>
      <point x="84.72939508993775" y="581.0" type="line" smooth="yes"/>
      <point x="66.72939508993775" y="547.0"/>
      <point x="93.72939508993775" y="520.0"/>
      <point x="129.72939508993775" y="509.0" type="curve" smooth="yes"/>
      <point x="165.72939508993775" y="497.0"/>
      <point x="209.72939508993775" y="500.0"/>
      <point x="223.72939508993775" y="527.0" type="curve" smooth="yes"/>
      <point x="439.47860999940576" y="963.9604352596821" type="line" smooth="yes"/>
      <point x="450.7415260973877" y="986.7714045720505"/>
      <point x="470.71726408248776" y="986.7714045720505"/>
      <point x="481.9801801804697" y="963.9604352596821" type="curve" smooth="yes"/>
      <point x="697.7293950899377" y="527.0" type="line" smooth="yes"/>
      <point x="711.7293950899377" y="499.0"/>
      <point x="758.7293950899377" y="496.0"/>
      <point x="795.7293950899377" y="510.0" type="curve" smooth="yes"/>
      <point x="828.7293950899377" y="522.0"/>
      <point x="853.7293950899377" y="548.0"/>
      <point x="836.7293950899377" y="581.0" type="curve" smooth="yes"/>
      <point x="528.7293950899377" y="1172.0" type="line" smooth="yes"/>
      <point x="515.7293950899377" y="1196.0"/>
      <point x="499.7293950899377" y="1209.0"/>
      <point x="460.7293950899377" y="1209.0" type="curve" smooth="yes"/>
      <point x="421.7293950899377" y="1209.0"/>
      <point x="405.7293950899377" y="1196.0"/>
    </contour>
  </outline>
</glyph>
<glyph name="underscore" format="2">
  <advance width="1272"/>
  <unicode hex="005F"/>
  <outline>
    <contour>
      <point x="155.0" y="-249.0" type="line" smooth="yes"/>
      <point x="110.0" y="-249.0"/>
      <point x="92.0" y="-269.0"/>
      <point x="92.0" y="-321.0" type="curve" smooth="yes"/>
      <point x="92.0" y="-373.0"/>
      <point x="110.0" y="-393.0"/>
      <point x="155.0" y="-393.0" type="curve" smooth="yes"/>
      <point x="1117.0" y="-393.0" type="line" smooth="yes"/>
      <point x="1162.0" y="-393.0"/>
      <point x="1180.0" y="-373.0"/>
      <point x="1180.0" y="-321.0" type="curve" smooth="yes"/>
      <point x="1180.0" y="-269.0"/>
      <point x="1162.0" y="-249.0"/>
      <point x="1117.0" y="-249.0" type="curve" smooth="yes"/>
    </contour>
  </outline>
</glyph>
<glyph name="b" format="2">
  <advance width="1017"/>
  <unicode hex="0062"/>
  <outline>
    <contour>
      <point x="134.0" y="1322.0" type="line" smooth="yes"/>
      <point x="78.0" y="1322.0"/>
      <point x="60.0" y="1303.0"/>
      <point x="60.0" y="1257.0" type="curve" smooth="yes"/>
      <point x="60.0" y="55.0" type="line" smooth="yes"/>
      <point x="60.0" y="9.0"/>
      <point x="76.0" y="-10.0"/>
      <point x="129.0" y="-10.0" type="curve" smooth="yes"/>
      <point x="131.0" y="-10.0" type="line" smooth="yes"/>
      <point x="184.0" y="-10.0"/>
      <point x="200.0" y="9.0"/>
      <point x="200.0" y="55.0" type="curve" smooth="yes"/>
      <point x="200.0" y="122.0" type="line" smooth="yes"/>
      <point x="200.0" y="135.78"/>
      <point x="207.43313028471363" y="138.3006714577517"/>
      <point x="215.81517081853968" y="127.3631307611738" type="curve" smooth="yes"/>
      <point x="282.0" y="41.0"/>
      <point x="394.0" y="-22.0"/>
      <point x="527.0" y="-22.0" type="curve" smooth="yes"/>
      <point x="774.0" y="-22.0"/>
      <point x="957.0" y="160.0"/>
      <point x="957.0" y="462.0" type="curve" smooth="yes"/>
      <point x="957.0" y="764.0"/>
      <point x="774.0" y="946.0"/>
      <point x="527.0" y="946.0" type="curve" smooth="yes"/>
      <point x="394.0" y="946.0"/>
      <point x="290.0" y="883.0"/>
      <point x="226.04563831470864" y="801.4581888512536" type="curve" smooth="yes"/>
      <point x="217.54145000791306" y="790.6153487600892"/>
      <point x="210.0" y="793.22"/>
      <point x="210.0" y="807.0" type="curve" smooth="yes"/>
      <point x="210.0" y="1257.0" type="line" smooth="yes"/>
      <point x="210.0" y="1303.0"/>
      <point x="192.0" y="1322.0"/>
      <point x="136.0" y="1322.0" type="curve" smooth="yes"/>
    </contour>
    <contour>
      <point x="803.0" y="462.0" type="curve" smooth="yes"/>
      <point x="803.0" y="266.0"/>
      <point x="698.0" y="126.0"/>
      <point x="517.0" y="126.0" type="curve" smooth="yes"/>
      <point x="340.0" y="126.0"/>
      <point x="210.0" y="250.0"/>
      <point x="210.0" y="462.0" type="curve" smooth="yes"/>
      <point x="210.0" y="674.0"/>
      <point x="340.0" y="798.0"/>
      <point x="517.0" y="798.0" type="curve" smooth="yes"/>
      <point x="698.0" y="798.0"/>
      <point x="803.0" y="658.0"/>
    </contour>
  </outline>
</glyph>
<glyph name="c" format="2">
  <advance width="1046"/>
  <unicode hex="0063"/>
  <outline>
    <contour>
      <point x="60.0" y="462.0" type="curve" smooth="yes"/>
      <point x="60.0" y="185.0"/>
      <point x="250.0" y="-22.0"/>
      <point x="542.0" y="-22.0" type="curve" smooth="yes"/>
      <point x="694.0" y="-22.0"/>
      <point x="846.0" y="27.0"/>
      <point x="954.0" y="106.0" type="curve" smooth="yes"/>
      <point x="989.0" y="131.0"/>
      <point x="997.0" y="167.0"/>
      <point x="969.0" y="214.0" type="curve" smooth="yes"/>
      <point x="940.0" y="263.0"/>
      <point x="905.0" y="258.0"/>
      <point x="878.0" y="237.0" type="curve" smooth="yes"/>
      <point x="783.0" y="164.0"/>
      <point x="664.0" y="126.0"/>
      <point x="542.0" y="126.0" type="curve" smooth="yes"/>
      <point x="347.0" y="126.0"/>
      <point x="218.0" y="267.0"/>
      <point x="218.0" y="462.0" type="curve" smooth="yes"/>
      <point x="218.0" y="657.0"/>
      <point x="347.0" y="798.0"/>
      <point x="542.0" y="798.0" type="curve" smooth="yes"/>
      <point x="654.0" y="798.0"/>
      <point x="762.0" y="769.0"/>
      <point x="861.0" y="701.0" type="curve" smooth="yes"/>
      <point x="889.0" y="681.0"/>
      <point x="924.0" y="678.0"/>
      <point x="950.0" y="729.0" type="curve" smooth="yes"/>
      <point x="976.0" y="777.0"/>
      <point x="966.0" y="813.0"/>
      <point x="930.0" y="836.0" type="curve" smooth="yes"/>
      <point x="818.0" y="909.0"/>
      <point x="684.0" y="946.0"/>
      <point x="542.0" y="946.0" type="curve" smooth="yes"/>
      <point x="250.0" y="946.0"/>
      <point x="60.0" y="739.0"/>
    </contour>
  </outline>
</glyph>
<glyph name="d" format="2">
  <advance width="1017"/>
  <unicode hex="0064"/>
  <outline>
    <contour>
      <point x="881.0" y="1322.0" type="line" smooth="yes"/>
      <point x="825.0" y="1322.0"/>
      <point x="807.0" y="1303.0"/>
      <point x="807.0" y="1257.0" type="curve" smooth="yes"/>
      <point x="807.0" y="829.0" type="line" smooth="yes"/>
      <point x="807.0" y="803.56"/>
      <point x="793.0773230623143" y="798.7514130955492"/>
      <point x="777.3772831113071" y="818.7689640330834" type="curve" smooth="yes"/>
      <point x="727.0" y="883.0"/>
      <point x="623.0" y="946.0"/>
      <point x="490.0" y="946.0" type="curve" smooth="yes"/>
      <point x="243.0" y="946.0"/>
      <point x="60.0" y="764.0"/>
      <point x="60.0" y="462.0" type="curve" smooth="yes"/>
      <point x="60.0" y="160.0"/>
      <point x="243.0" y="-22.0"/>
      <point x="490.0" y="-22.0" type="curve" smooth="yes"/>
      <point x="623.0" y="-22.0"/>
      <point x="735.0" y="41.0"/>
      <point x="793.2407472241476" y="116.99707259736343" type="curve" smooth="yes"/>
      <point x="805.8331511953494" y="133.42862412076082"/>
      <point x="817.0" y="129.6418"/>
      <point x="817.0" y="108.94" type="curve" smooth="yes"/>
      <point x="817.0" y="55.0" type="line" smooth="yes"/>
      <point x="817.0" y="9.0"/>
      <point x="833.0" y="-10.0"/>
      <point x="886.0" y="-10.0" type="curve" smooth="yes"/>
      <point x="888.0" y="-10.0" type="line" smooth="yes"/>
      <point x="941.0" y="-10.0"/>
      <point x="957.0" y="9.0"/>
      <point x="957.0" y="55.0" type="curve" smooth="yes"/>
      <point x="957.0" y="1257.0" type="line" smooth="yes"/>
      <point x="957.0" y="1303.0"/>
      <point x="939.0" y="1322.0"/>
      <point x="883.0" y="1322.0" type="curve" smooth="yes"/>
    </contour>
    <contour>
      <point x="807.0" y="462.0" type="curve" smooth="yes"/>
      <point x="807.0" y="250.0"/>
      <point x="677.0" y="126.0"/>
      <point x="500.0" y="126.0" type="curve" smooth="yes"/>
      <point x="319.0" y="126.0"/>
      <point x="214.0" y="266.0"/>
      <point x="214.0" y="462.0" type="curve" smooth="yes"/>
      <point x="214.0" y="658.0"/>
      <point x="319.0" y="798.0"/>
      <point x="500.0" y="798.0" type="curve" smooth="yes"/>
      <point x="677.0" y="798.0"/>
      <point x="807.0" y="674.0"/>
    </contour>
  </outline>
</glyph>
<glyph name="e" format="2">
  <advance width="1061"/>
  <unicode hex="0065"/>
  <outline>
    <contour>
      <point x="60.0" y="462.0" type="curve" smooth="yes"/>
      <point x="60.0" y="161.0"/>
      <point x="223.0" y="-22.0"/>
      <point x="515.0" y="-22.0" type="curve" smooth="yes"/>
      <point x="670.0" y="-22.0"/>
      <point x="824.0" y="15.0"/>
      <point x="928.0" y="65.0" type="curve" smooth="yes"/>
      <point x="969.0" y="85.0"/>
      <point x="982.0" y="116.0"/>
      <point x="965.0" y="162.0" type="curve" smooth="yes"/>
      <point x="948.0" y="209.0"/>
      <point x="916.0" y="231.0"/>
      <point x="875.0" y="209.0" type="curve" smooth="yes"/>
      <point x="784.0" y="156.0"/>
      <point x="649.0" y="123.0"/>
      <point x="515.0" y="123.0" type="curve" smooth="yes"/>
      <point x="330.0" y="123.0"/>
      <point x="224.0" y="225.0"/>
      <point x="216.39700561330682" y="377.05988773386343" type="curve" smooth="yes"/>
      <point x="215.12659263825418" y="402.4681472349158"/>
      <point x="236.56" y="425.0"/>
      <point x="262.0" y="425.0" type="curve" smooth="yes"/>
      <point x="938.0" y="425.0" type="line" smooth="yes"/>
      <point x="983.0" y="425.0"/>
      <point x="1004.0" y="442.0"/>
      <point x="1001.0" y="487.0" type="curve" smooth="yes"/>
      <point x="986.0" y="753.0"/>
      <point x="832.0" y="946.0"/>
      <point x="535.0" y="946.0" type="curve" smooth="yes"/>
      <point x="256.0" y="946.0"/>
      <point x="60.0" y="753.0"/>
    </contour>
    <contour>
      <point x="830.1921385710615" y="612.1849719407421" type="curve" smooth="yes"/>
      <point x="834.8603051283989" y="587.1769368121488"/>
      <point x="816.44" y="565.0"/>
      <point x="791.0" y="565.0" type="curve" smooth="yes"/>
      <point x="272.0" y="565.0" type="line" smooth="yes"/>
      <point x="246.56" y="565.0"/>
      <point x="228.9415050024396" y="587.012158647231"/>
      <point x="234.51384043072255" y="611.8343801004914" type="curve" smooth="yes"/>
      <point x="257.0" y="712.0"/>
      <point x="369.0" y="801.0"/>
      <point x="535.0" y="801.0" type="curve" smooth="yes"/>
      <point x="711.0" y="801.0"/>
      <point x="811.0" y="715.0"/>
    </contour>
  </outline>
</glyph>
<glyph name="f" format="2">
  <advance width="653"/>
  <unicode hex="0066"/>
  <outline>
    <contour>
      <point x="321.93017821112835" y="1317"/>
      <point x="193.93017821112835" y="1186"/>
      <point x="193.93017821112835" y="967" type="curve" smooth="yes"/>
      <point x="193.93017821112835" y="55" type="line" smooth="yes"/>
      <point x="193.93017821112835" y="9"/>
      <point x="211.93017821112835" y="-10"/>
      <point x="267.93017821112835" y="-10" type="curve" smooth="yes"/>
      <point x="269.93017821112835" y="-10" type="line" smooth="yes"/>
      <point x="325.93017821112835" y="-10"/>
      <point x="343.93017821112835" y="9"/>
      <point x="343.93017821112835" y="55" type="curve" smooth="yes"/>
      <point x="343.93017821112835" y="954" type="line" smooth="yes"/>
      <point x="343.93017821112835" y="1091"/>
      <point x="371.49240377005106" y="1171"/>
      <point x="435.20181038985606" y="1171" type="curve" smooth="yes"/>
      <point x="470.8971516874773" y="1171"/>
      <point x="507.0443327483596" y="1152"/>
      <point x="542.2878342827198" y="1122" type="curve" smooth="yes"/>
      <point x="558.5540657601168" y="1108"/>
      <point x="570.7537393681646" y="1126"/>
      <point x="575.7239767640359" y="1173" type="curve" smooth="yes"/>
      <point x="580.6942141599072" y="1219"/>
      <point x="574.3684574742529" y="1250"/>
      <point x="555.3911874172896" y="1266" type="curve" smooth="yes"/>
      <point x="519.2440063564073" y="1297"/>
      <point x="477.67474813639274" y="1317"/>
      <point x="435.20181038985606" y="1317" type="curve" smooth="yes"/>
    </contour>
    <contour>
      <point x="104.46590508544477" y="844" type="line" smooth="yes"/>
      <point x="84.1331157386985" y="844"/>
      <point x="76.0" y="824"/>
      <point x="76.0" y="772" type="curve" smooth="yes"/>
      <point x="76.0" y="720"/>
      <point x="84.1331157386985" y="700"/>
      <point x="104.46590508544477" y="700" type="curve" smooth="yes"/>
      <point x="500.2667362994441" y="700" type="line" smooth="yes"/>
      <point x="520.5995256461904" y="700"/>
      <point x="528.7326413848889" y="720"/>
      <point x="528.7326413848889" y="772" type="curve" smooth="yes"/>
      <point x="528.7326413848889" y="824"/>
      <point x="520.5995256461904" y="844"/>
      <point x="500.2667362994441" y="844" type="curve" smooth="yes"/>
    </contour>
  </outline>
</glyph>
<glyph name="g" format="2">
  <advance width="1033"/>
  <unicode hex="0067"/>
  <outline>
    <contour>
      <point x="68.0" y="487.0" type="curve" smooth="yes"/>
      <point x="68.0" y="200.0"/>
      <point x="251.0" y="28.0"/>
      <point x="498.0" y="28.0" type="curve" smooth="yes"/>
      <point x="631.0" y="28.0"/>
      <point x="736.0" y="85.0"/>
      <point x="785.0608771267568" y="146.48135234872063" type="curve" smooth="yes"/>
      <point x="800.9286122495757" y="166.3662356038987"/>
      <point x="815.0" y="161.44"/>
      <point x="815.0" y="136.0" type="curve" smooth="yes"/>
      <point x="815.0" y="-17.0" type="line" smooth="yes"/>
      <point x="815.0" y="-164.0"/>
      <point x="726.0" y="-262.0"/>
      <point x="537.0" y="-262.0" type="curve" smooth="yes"/>
      <point x="429.0" y="-262.0"/>
      <point x="309.0" y="-238.0"/>
      <point x="208.0" y="-202.0" type="curve" smooth="yes"/>
      <point x="174.0" y="-190.0"/>
      <point x="146.0" y="-203.0"/>
      <point x="129.0" y="-253.0" type="curve" smooth="yes"/>
      <point x="112.0" y="-304.0"/>
      <point x="124.0" y="-333.0"/>
      <point x="160.0" y="-346.0" type="curve" smooth="yes"/>
      <point x="275.0" y="-388.0"/>
      <point x="411.0" y="-410.0"/>
      <point x="537.0" y="-410.0" type="curve" smooth="yes"/>
      <point x="808.0" y="-410.0"/>
      <point x="965.0" y="-269.0"/>
      <point x="965.0" y="-30.0" type="curve" smooth="yes"/>
      <point x="965.0" y="869.0" type="line" smooth="yes"/>
      <point x="965.0" y="915.0"/>
      <point x="949.0" y="934.0"/>
      <point x="896.0" y="934.0" type="curve" smooth="yes"/>
      <point x="894.0" y="934.0" type="line" smooth="yes"/>
      <point x="841.0" y="934.0"/>
      <point x="825.0" y="915.0"/>
      <point x="825.0" y="869.0" type="curve" smooth="yes"/>
      <point x="825.0" y="815.06" type="line" smooth="yes"/>
      <point x="825.0" y="794.3582"/>
      <point x="813.8331511953494" y="790.5713758792392"/>
      <point x="801.2407472241476" y="807.0029274026366" type="curve" smooth="yes"/>
      <point x="743.0" y="883.0"/>
      <point x="631.0" y="946.0"/>
      <point x="498.0" y="946.0" type="curve" smooth="yes"/>
      <point x="251.0" y="946.0"/>
      <point x="68.0" y="774.0"/>
    </contour>
    <contour>
      <point x="815.0" y="487.0" type="curve" smooth="yes"/>
      <point x="815.0" y="290.0"/>
      <point x="685.0" y="176.0"/>
      <point x="508.0" y="176.0" type="curve" smooth="yes"/>
      <point x="327.0" y="176.0"/>
      <point x="222.0" y="306.0"/>
      <point x="222.0" y="487.0" type="curve" smooth="yes"/>
      <point x="222.0" y="668.0"/>
      <point x="327.0" y="798.0"/>
      <point x="508.0" y="798.0" type="curve" smooth="yes"/>
      <point x="685.0" y="798.0"/>
      <point x="815.0" y="684.0"/>
    </contour>
  </outline>
</glyph>
<glyph name="h" format="2">
  <advance width="1010"/>
  <unicode hex="0068"/>
  <outline>
    <contour>
      <point x="158.0" y="1322.0" type="line" smooth="yes"/>
      <point x="102.0" y="1322.0"/>
      <point x="84.0" y="1303.0"/>
      <point x="84.0" y="1257.0" type="curve" smooth="yes"/>
      <point x="84.0" y="55.0" type="line" smooth="yes"/>
      <point x="84.0" y="9.0"/>
      <point x="102.0" y="-10.0"/>
      <point x="158.0" y="-10.0" type="curve" smooth="yes"/>
      <point x="160.0" y="-10.0" type="line" smooth="yes"/>
      <point x="216.0" y="-10.0"/>
      <point x="234.0" y="9.0"/>
      <point x="234.0" y="55.0" type="curve" smooth="yes"/>
      <point x="234.0" y="392.0" type="line" smooth="yes"/>
      <point x="234.0" y="620.0"/>
      <point x="423.0" y="798.0"/>
      <point x="594.0" y="798.0" type="curve" smooth="yes"/>
      <point x="723.0" y="798.0"/>
      <point x="776.0" y="720.0"/>
      <point x="776.0" y="605.0" type="curve" smooth="yes"/>
      <point x="776.0" y="55.0" type="line" smooth="yes"/>
      <point x="776.0" y="9.0"/>
      <point x="794.0" y="-10.0"/>
      <point x="850.0" y="-10.0" type="curve" smooth="yes"/>
      <point x="852.0" y="-10.0" type="line" smooth="yes"/>
      <point x="908.0" y="-10.0"/>
      <point x="926.0" y="9.0"/>
      <point x="926.0" y="55.0" type="curve" smooth="yes"/>
      <point x="926.0" y="620.0" type="line" smooth="yes"/>
      <point x="926.0" y="820.0"/>
      <point x="813.0" y="946.0"/>
      <point x="609.0" y="946.0" type="curve" smooth="yes"/>
      <point x="474.0" y="946.0"/>
      <point x="326.0" y="855.0"/>
      <point x="261.0310498771667" y="759.6651275371469" type="curve" smooth="yes"/>
      <point x="246.70459344226833" y="738.642609942459"/>
      <point x="234.0" y="742.56"/>
      <point x="234.0" y="768.0" type="curve" smooth="yes"/>
      <point x="234.0" y="1257.0" type="line" smooth="yes"/>
      <point x="234.0" y="1303.0"/>
      <point x="216.0" y="1322.0"/>
      <point x="160.0" y="1322.0" type="curve" smooth="yes"/>
    </contour>
  </outline>
</glyph>
<glyph name="k" format="2">
  <advance width="956"/>
  <unicode hex="006B"/>
  <outline>
    <contour>
      <point x="733.0" y="924.0" type="curve" smooth="yes"/>
      <point x="223.4120320512539" y="469.94404892300196" type="line" smooth="yes"/>
      <point x="213.12365506408935" y="460.7768411163695"/>
      <point x="204.0" y="464.8674304199219"/>
      <point x="204.0" y="478.6474304199219" type="curve" smooth="yes"/>
      <point x="204.0" y="1257.0" type="line" smooth="yes"/>
      <point x="204.0" y="1303.0"/>
      <point x="186.0" y="1322.0"/>
      <point x="130.0" y="1322.0" type="curve" smooth="yes"/>
      <point x="128.0" y="1322.0" type="line" smooth="yes"/>
      <point x="72.0" y="1322.0"/>
      <point x="54.0" y="1303.0"/>
      <point x="54.0" y="1257.0" type="curve" smooth="yes"/>
      <point x="54.0" y="55.0" type="line" smooth="yes"/>
      <point x="54.0" y="9.0"/>
      <point x="72.0" y="-10.0"/>
      <point x="128.0" y="-10.0" type="curve" smooth="yes"/>
      <point x="130.0" y="-10.0" type="line" smooth="yes"/>
      <point x="186.0" y="-10.0"/>
      <point x="204.0" y="9.0"/>
      <point x="204.0" y="55.0" type="curve" smooth="yes"/>
      <point x="204.0" y="232.556396484375" type="line" smooth="yes"/>
      <point x="204.0" y="246.336396484375"/>
      <point x="213.17508756045328" y="266.6277141127437"/>
      <point x="223.52146289458148" y="275.7294127149467" type="curve" smooth="yes"/>
      <point x="364.8776459921372" y="400.08034070302205" type="line" smooth="yes"/>
      <point x="375.2240213262654" y="409.18203930522503"/>
      <point x="392.6072812458759" y="408.2004951472652"/>
      <point x="401.86330539556377" y="397.9919488775755" type="curve" smooth="yes"/>
      <point x="760.0" y="3.0" type="line" smooth="yes"/>
      <point x="784.0" y="-24.0"/>
      <point x="813.0" y="-22.0"/>
      <point x="860.0" y="5.0" type="curve" smooth="yes"/>
      <point x="909.0" y="33.0"/>
      <point x="913.0" y="61.0"/>
      <point x="882.0" y="95.0" type="curve" smooth="yes"/>
      <point x="514.47435731224" y="497.0582334705936" type="line" smooth="yes"/>
      <point x="505.1770086056981" y="507.2291580612571"/>
      <point x="506.1072779947898" y="524.3199742945916"/>
      <point x="516.4536538847756" y="533.4216722649222" type="curve" smooth="yes"/>
      <point x="857.0" y="833.0" type="line" smooth="yes"/>
      <point x="892.0" y="863.0"/>
      <point x="883.0" y="896.0"/>
      <point x="836.0" y="924.0" type="curve" smooth="yes"/>
      <point x="794.0" y="949.0"/>
      <point x="758.0" y="946.0"/>
    </contour>
  </outline>
</glyph>
<glyph name="l" format="2">
  <advance width="507"/>
  <unicode hex="006C"/>
  <outline>
    <contour>
      <point x="99.6463815789474" y="144.0" type="line" smooth="yes"/>
      <point x="88.47039473684208" y="144.0"/>
      <point x="84.0" y="124.0"/>
      <point x="84.0" y="72.0" type="curve" smooth="yes"/>
      <point x="84.0" y="20.0"/>
      <point x="88.47039473684208" y="0.0"/>
      <point x="99.6463815789474" y="0.0" type="curve" smooth="yes"/>
      <point x="407.1036184210526" y="0.0" type="line" smooth="yes"/>
      <point x="418.2796052631579" y="0.0"/>
      <point x="422.75" y="20.0"/>
      <point x="422.75" y="72.0" type="curve" smooth="yes"/>
      <point x="422.75" y="124.0"/>
      <point x="418.2796052631579" y="144.0"/>
      <point x="407.1036184210526" y="144.0" type="curve" smooth="yes"/>
      <point x="360.8648355263158" y="144.0" type="line" smooth="yes"/>
      <point x="343.1187095394737" y="144.0"/>
      <point x="327.38157894736844" y="159.73713059210525"/>
      <point x="327.38157894736844" y="177.48325657894736" type="curve" smooth="yes"/>
      <point x="327.38157894736844" y="1244.0" type="line" smooth="yes"/>
      <point x="327.38157894736844" y="1294.0"/>
      <point x="309.38157894736844" y="1312.0"/>
      <point x="264.38157894736844" y="1312.0" type="curve" smooth="yes"/>
      <point x="109.58059210526318" y="1312.0" type="line" smooth="yes"/>
      <point x="98.40460526315792" y="1312.0"/>
      <point x="93.93421052631578" y="1292.0"/>
      <point x="93.93421052631578" y="1240.0" type="curve" smooth="yes"/>
      <point x="93.93421052631578" y="1188.0"/>
      <point x="98.40460526315792" y="1168.0"/>
      <point x="109.58059210526318" y="1168.0" type="curve" smooth="yes"/>
      <point x="148.90516447368418" y="1168.0" type="line" smooth="yes"/>
      <point x="163.99766414473686" y="1168.0"/>
      <point x="177.38157894736844" y="1154.6160851973684"/>
      <point x="177.38157894736844" y="1139.5235855263159" type="curve" smooth="yes"/>
      <point x="177.38157894736844" y="176.64878289473683" type="line" smooth="yes"/>
      <point x="177.38157894736844" y="159.34492796052632"/>
      <point x="162.03665098684212" y="144.0"/>
      <point x="144.73279605263156" y="144.0" type="curve" smooth="yes"/>
    </contour>
  </outline>
</glyph>
<glyph name="m" format="2">
  <advance width="1156"/>
  <unicode hex="006D"/>
  <outline>
    <contour>
      <point x="656.1833434625186" y="808.0727983737877" type="curve" smooth="yes"/>
      <point x="644.9561714273838" y="785.2442152356803"/>
      <point x="630.506510994457" y="787.1079659072711"/>
      <point x="625.4393850945895" y="812.0382253346195" type="curve" smooth="yes"/>
      <point x="610.0" y="888.0"/>
      <point x="534.0" y="946.0"/>
      <point x="447.0" y="946.0" type="curve" smooth="yes"/>
      <point x="356.0" y="946.0"/>
      <point x="272.0" y="885.0"/>
      <point x="214.0" y="757.0" type="curve"/>
      <point x="214.0" y="869.0" type="line" smooth="yes"/>
      <point x="214.0" y="915.0"/>
      <point x="200.0" y="934.0"/>
      <point x="150.0" y="934.0" type="curve" smooth="yes"/>
      <point x="148.0" y="934.0" type="line" smooth="yes"/>
      <point x="98.0" y="934.0"/>
      <point x="84.0" y="915.0"/>
      <point x="84.0" y="869.0" type="curve" smooth="yes"/>
      <point x="84.0" y="55.0" type="line" smooth="yes"/>
      <point x="84.0" y="9.0"/>
      <point x="102.0" y="-10.0"/>
      <point x="158.0" y="-10.0" type="curve" smooth="yes"/>
      <point x="160.0" y="-10.0" type="line" smooth="yes"/>
      <point x="216.0" y="-10.0"/>
      <point x="234.0" y="9.0"/>
      <point x="234.0" y="55.0" type="curve" smooth="yes"/>
      <point x="234.0" y="457.0" type="line" smooth="yes"/>
      <point x="234.0" y="659.0"/>
      <point x="313.0" y="798.0"/>
      <point x="408.0" y="798.0" type="curve" smooth="yes"/>
      <point x="476.0" y="798.0"/>
      <point x="503.0" y="749.0"/>
      <point x="503.0" y="660.0" type="curve" smooth="yes"/>
      <point x="503.0" y="55.0" type="line" smooth="yes"/>
      <point x="503.0" y="9.0"/>
      <point x="521.0" y="-10.0"/>
      <point x="577.0" y="-10.0" type="curve" smooth="yes"/>
      <point x="579.0" y="-10.0" type="line" smooth="yes"/>
      <point x="635.0" y="-10.0"/>
      <point x="653.0" y="9.0"/>
      <point x="653.0" y="55.0" type="curve" smooth="yes"/>
      <point x="653.0" y="457.0" type="line" smooth="yes"/>
      <point x="653.0" y="659.0"/>
      <point x="732.0" y="798.0"/>
      <point x="827.0" y="798.0" type="curve" smooth="yes"/>
      <point x="895.0" y="798.0"/>
      <point x="922.0" y="749.0"/>
      <point x="922.0" y="660.0" type="curve" smooth="yes"/>
      <point x="922.0" y="55.0" type="line" smooth="yes"/>
      <point x="922.0" y="9.0"/>
      <point x="940.0" y="-10.0"/>
      <point x="996.0" y="-10.0" type="curve" smooth="yes"/>
      <point x="998.0" y="-10.0" type="line" smooth="yes"/>
      <point x="1054.0" y="-10.0"/>
      <point x="1072.0" y="9.0"/>
      <point x="1072.0" y="55.0" type="curve" smooth="yes"/>
      <point x="1072.0" y="678.0" type="line" smooth="yes"/>
      <point x="1072.0" y="861.0"/>
      <point x="979.0" y="946.0"/>
      <point x="865.0" y="946.0" type="curve" smooth="yes"/>
      <point x="773.0" y="946.0"/>
      <point x="695.0" y="887.0"/>
    </contour>
  </outline>
</glyph>
<glyph name="n" format="2">
  <advance width="1010"/>
  <unicode hex="006E"/>
  <outline>
    <contour>
      <point x="250.07606135154919" y="746.2993675433032" type="curve" smooth="yes"/>
      <point x="236.25574883522813" y="724.9407027453525"/>
      <point x="224.0" y="728.56"/>
      <point x="224.0" y="754.0" type="curve" smooth="yes"/>
      <point x="224.0" y="869.0" type="line" smooth="yes"/>
      <point x="224.0" y="915.0"/>
      <point x="208.0" y="934.0"/>
      <point x="155.0" y="934.0" type="curve" smooth="yes"/>
      <point x="153.0" y="934.0" type="line" smooth="yes"/>
      <point x="100.0" y="934.0"/>
      <point x="84.0" y="915.0"/>
      <point x="84.0" y="869.0" type="curve" smooth="yes"/>
      <point x="84.0" y="55.0" type="line" smooth="yes"/>
      <point x="84.0" y="9.0"/>
      <point x="102.0" y="-10.0"/>
      <point x="158.0" y="-10.0" type="curve" smooth="yes"/>
      <point x="160.0" y="-10.0" type="line" smooth="yes"/>
      <point x="216.0" y="-10.0"/>
      <point x="234.0" y="9.0"/>
      <point x="234.0" y="55.0" type="curve" smooth="yes"/>
      <point x="234.0" y="392.0" type="line" smooth="yes"/>
      <point x="234.0" y="620.0"/>
      <point x="423.0" y="798.0"/>
      <point x="594.0" y="798.0" type="curve" smooth="yes"/>
      <point x="723.0" y="798.0"/>
      <point x="776.0" y="720.0"/>
      <point x="776.0" y="605.0" type="curve" smooth="yes"/>
      <point x="776.0" y="55.0" type="line" smooth="yes"/>
      <point x="776.0" y="9.0"/>
      <point x="794.0" y="-10.0"/>
      <point x="850.0" y="-10.0" type="curve" smooth="yes"/>
      <point x="852.0" y="-10.0" type="line" smooth="yes"/>
      <point x="908.0" y="-10.0"/>
      <point x="926.0" y="9.0"/>
      <point x="926.0" y="55.0" type="curve" smooth="yes"/>
      <point x="926.0" y="620.0" type="line" smooth="yes"/>
      <point x="926.0" y="820.0"/>
      <point x="813.0" y="946.0"/>
      <point x="609.0" y="946.0" type="curve" smooth="yes"/>
      <point x="463.0" y="946.0"/>
      <point x="312.0" y="842.0"/>
    </contour>
  </outline>
</glyph>
<glyph name="o" format="2">
  <advance width="1080"/>
  <unicode hex="006F"/>
  <outline>
    <contour>
      <point x="60.0" y="462.0" type="curve" smooth="yes"/>
      <point x="60.0" y="180.0"/>
      <point x="264.0" y="-22.0"/>
      <point x="540.0" y="-22.0" type="curve" smooth="yes"/>
      <point x="816.0" y="-22.0"/>
      <point x="1020.0" y="180.0"/>
      <point x="1020.0" y="462.0" type="curve" smooth="yes"/>
      <point x="1020.0" y="744.0"/>
      <point x="816.0" y="946.0"/>
      <point x="540.0" y="946.0" type="curve" smooth="yes"/>
      <point x="264.0" y="946.0"/>
      <point x="60.0" y="744.0"/>
    </contour>
    <contour>
      <point x="866.0" y="462.0" type="curve" smooth="yes"/>
      <point x="866.0" y="265.0"/>
      <point x="736.0" y="126.0"/>
      <point x="540.0" y="126.0" type="curve" smooth="yes"/>
      <point x="344.0" y="126.0"/>
      <point x="214.0" y="265.0"/>
      <point x="214.0" y="462.0" type="curve" smooth="yes"/>
      <point x="214.0" y="659.0"/>
      <point x="344.0" y="798.0"/>
      <point x="540.0" y="798.0" type="curve" smooth="yes"/>
      <point x="736.0" y="798.0"/>
      <point x="866.0" y="659.0"/>
    </contour>
  </outline>
</glyph>
<glyph name="p" format="2">
  <advance width="1017"/>
  <unicode hex="0070"/>
  <outline>
    <contour>
      <point x="200.0" y="776.0" type="curve"/>
      <point x="200.0" y="869.0" type="line" smooth="yes"/>
      <point x="200.0" y="915.0"/>
      <point x="184.0" y="934.0"/>
      <point x="131.0" y="934.0" type="curve" smooth="yes"/>
      <point x="129.0" y="934.0" type="line" smooth="yes"/>
      <point x="76.0" y="934.0"/>
      <point x="60.0" y="915.0"/>
      <point x="60.0" y="869.0" type="curve" smooth="yes"/>
      <point x="60.0" y="-333.0" type="line" smooth="yes"/>
      <point x="60.0" y="-379.0"/>
      <point x="78.0" y="-398.0"/>
      <point x="134.0" y="-398.0" type="curve" smooth="yes"/>
      <point x="136.0" y="-398.0" type="line" smooth="yes"/>
      <point x="192.0" y="-398.0"/>
      <point x="210.0" y="-379.0"/>
      <point x="210.0" y="-333.0" type="curve" smooth="yes"/>
      <point x="210.0" y="143.0" type="line"/>
      <point x="290.0" y="41.0"/>
      <point x="394.0" y="-22.0"/>
      <point x="527.0" y="-22.0" type="curve" smooth="yes"/>
      <point x="774.0" y="-22.0"/>
      <point x="957.0" y="160.0"/>
      <point x="957.0" y="462.0" type="curve" smooth="yes"/>
      <point x="957.0" y="764.0"/>
      <point x="774.0" y="946.0"/>
      <point x="527.0" y="946.0" type="curve" smooth="yes"/>
      <point x="394.0" y="946.0"/>
      <point x="282.0" y="883.0"/>
    </contour>
    <contour>
      <point x="803.0" y="462.0" type="curve" smooth="yes"/>
      <point x="803.0" y="266.0"/>
      <point x="698.0" y="126.0"/>
      <point x="517.0" y="126.0" type="curve" smooth="yes"/>
      <point x="340.0" y="126.0"/>
      <point x="210.0" y="250.0"/>
      <point x="210.0" y="462.0" type="curve" smooth="yes"/>
      <point x="210.0" y="674.0"/>
      <point x="340.0" y="798.0"/>
      <point x="517.0" y="798.0" type="curve" smooth="yes"/>
      <point x="698.0" y="798.0"/>
      <point x="803.0" y="658.0"/>
    </contour>
  </outline>
</glyph>
<glyph name="q" format="2">
  <advance width="1033"/>
  <unicode hex="0071"/>
  <outline>
    <contour>
      <point x="68.0" y="462.0" type="curve" smooth="yes"/>
      <point x="68.0" y="160.0"/>
      <point x="251.0" y="-22.0"/>
      <point x="498.0" y="-22.0" type="curve" smooth="yes"/>
      <point x="631.0" y="-22.0"/>
      <point x="735.0" y="41.0"/>
      <point x="785.3772831113071" y="105.23103596691658" type="curve" smooth="yes"/>
      <point x="801.0773230623143" y="125.24858690445079"/>
      <point x="815.0" y="120.44"/>
      <point x="815.0" y="95.0" type="curve" smooth="yes"/>
      <point x="815.0" y="-333.0" type="line" smooth="yes"/>
      <point x="815.0" y="-379.0"/>
      <point x="833.0" y="-398.0"/>
      <point x="889.0" y="-398.0" type="curve" smooth="yes"/>
      <point x="891.0" y="-398.0" type="line" smooth="yes"/>
      <point x="947.0" y="-398.0"/>
      <point x="965.0" y="-379.0"/>
      <point x="965.0" y="-333.0" type="curve" smooth="yes"/>
      <point x="965.0" y="869.0" type="line" smooth="yes"/>
      <point x="965.0" y="915.0"/>
      <point x="949.0" y="934.0"/>
      <point x="896.0" y="934.0" type="curve" smooth="yes"/>
      <point x="894.0" y="934.0" type="line" smooth="yes"/>
      <point x="841.0" y="934.0"/>
      <point x="825.0" y="915.0"/>
      <point x="825.0" y="869.0" type="curve" smooth="yes"/>
      <point x="825.0" y="815.06" type="line" smooth="yes"/>
      <point x="825.0" y="794.3582"/>
      <point x="813.8331511953494" y="790.5713758792392"/>
      <point x="801.2407472241476" y="807.0029274026366" type="curve" smooth="yes"/>
      <point x="743.0" y="883.0"/>
      <point x="631.0" y="946.0"/>
      <point x="498.0" y="946.0" type="curve" smooth="yes"/>
      <point x="251.0" y="946.0"/>
      <point x="68.0" y="764.0"/>
    </contour>
    <contour>
      <point x="815.0" y="462.0" type="curve" smooth="yes"/>
      <point x="815.0" y="250.0"/>
      <point x="685.0" y="126.0"/>
      <point x="508.0" y="126.0" type="curve" smooth="yes"/>
      <point x="327.0" y="126.0"/>
      <point x="222.0" y="266.0"/>
      <point x="222.0" y="462.0" type="curve" smooth="yes"/>
      <point x="222.0" y="658.0"/>
      <point x="327.0" y="798.0"/>
      <point x="508.0" y="798.0" type="curve" smooth="yes"/>
      <point x="685.0" y="798.0"/>
      <point x="815.0" y="674.0"/>
    </contour>
  </outline>
</glyph>
<glyph name="r" format="2">
  <advance width="613"/>
  <unicode hex="0072"/>
  <outline>
    <contour>
      <point x="216.0" y="634.0" type="curve"/>
      <point x="216.0" y="869.0" type="line" smooth="yes"/>
      <point x="216.0" y="915.0"/>
      <point x="200.0" y="934.0"/>
      <point x="147.0" y="934.0" type="curve" smooth="yes"/>
      <point x="145.0" y="934.0" type="line" smooth="yes"/>
      <point x="92.0" y="934.0"/>
      <point x="76.0" y="915.0"/>
      <point x="76.0" y="869.0" type="curve" smooth="yes"/>
      <point x="76.0" y="55.0" type="line" smooth="yes"/>
      <point x="76.0" y="9.0"/>
      <point x="94.0" y="-10.0"/>
      <point x="150.0" y="-10.0" type="curve" smooth="yes"/>
      <point x="152.0" y="-10.0" type="line" smooth="yes"/>
      <point x="208.0" y="-10.0"/>
      <point x="226.0" y="9.0"/>
      <point x="226.0" y="55.0" type="curve" smooth="yes"/>
      <point x="226.0" y="270.0" type="line" smooth="yes"/>
      <point x="226.0" y="554.0"/>
      <point x="330.9115759951509" y="786.0"/>
      <point x="444.50241420385703" y="786.0" type="curve" smooth="yes"/>
      <point x="462.05292997859283" y="786.0"/>
      <point x="480.09096008040444" y="780.0"/>
      <point x="498.12899018221617" y="768.0" type="curve" smooth="yes"/>
      <point x="518.6045919194079" y="754.0"/>
      <point x="528.3548784609277" y="778.0"/>
      <point x="534.6925647129156" y="830.0" type="curve" smooth="yes"/>
      <point x="540.5427366378275" y="880.0"/>
      <point x="533.7175360587637" y="911.0"/>
      <point x="512.754419994496" y="925.0" type="curve" smooth="yes"/>
      <point x="491.3037896031524" y="939.0"/>
      <point x="469.8531592118086" y="946.0"/>
      <point x="448.89004314754095" y="946.0" type="curve" smooth="yes"/>
      <point x="361.62497860093833" y="946.0"/>
      <point x="281.1851146333996" y="828.0"/>
    </contour>
  </outline>
</glyph>
<glyph name="s" format="2">
  <advance width="1006"/>
  <unicode hex="0073"/>
  <outline>
    <contour>
      <point x="938.1212245227293" y="277.0" type="curve" smooth="yes"/>
      <point x="938.1212245227293" y="403.0"/>
      <point x="869.1212245227293" y="467.0"/>
      <point x="774.1212245227293" y="502.0" type="curve" smooth="yes"/>
      <point x="628.1212245227293" y="556.0"/>
      <point x="422.1212245227294" y="542.0"/>
      <point x="311.1212245227294" y="578.0" type="curve" smooth="yes"/>
      <point x="264.1212245227294" y="593.0"/>
      <point x="234.1212245227294" y="617.0"/>
      <point x="234.1212245227294" y="660.0" type="curve" smooth="yes"/>
      <point x="234.1212245227294" y="753.0"/>
      <point x="321.1212245227294" y="801.0"/>
      <point x="460.1212245227294" y="801.0" type="curve" smooth="yes"/>
      <point x="579.1212245227293" y="801.0"/>
      <point x="696.1212245227293" y="772.0"/>
      <point x="802.1212245227293" y="718.0" type="curve" smooth="yes"/>
      <point x="835.1212245227293" y="701.0"/>
      <point x="863.1212245227293" y="707.0"/>
      <point x="886.1212245227293" y="759.0" type="curve" smooth="yes"/>
      <point x="908.1212245227293" y="809.0"/>
      <point x="894.1212245227293" y="840.0"/>
      <point x="856.1212245227293" y="859.0" type="curve" smooth="yes"/>
      <point x="735.1212245227293" y="920.0"/>
      <point x="596.1212245227293" y="946.0"/>
      <point x="454.1212245227294" y="946.0" type="curve" smooth="yes"/>
      <point x="242.1212245227294" y="946.0"/>
      <point x="80.12122452272939" y="849.0"/>
      <point x="80.12122452272939" y="660.0" type="curve" smooth="yes"/>
      <point x="80.12122452272939" y="544.0"/>
      <point x="142.1212245227294" y="483.0"/>
      <point x="230.1212245227294" y="448.0" type="curve" smooth="yes"/>
      <point x="375.1212245227294" y="391.0"/>
      <point x="588.1212245227293" y="406.0"/>
      <point x="703.1212245227293" y="367.0" type="curve" smooth="yes"/>
      <point x="753.1212245227293" y="350.0"/>
      <point x="784.1212245227293" y="324.0"/>
      <point x="784.1212245227293" y="277.0" type="curve" smooth="yes"/>
      <point x="784.1212245227293" y="186.0"/>
      <point x="703.1212245227293" y="123.0"/>
      <point x="534.1212245227293" y="123.0" type="curve" smooth="yes"/>
      <point x="402.1212245227294" y="123.0"/>
      <point x="274.1212245227294" y="156.0"/>
      <point x="165.1212245227294" y="217.0" type="curve" smooth="yes"/>
      <point x="133.1212245227294" y="235.0"/>
      <point x="105.12122452272939" y="230.0"/>
      <point x="80.12122452272939" y="179.0" type="curve" smooth="yes"/>
      <point x="56.12122452272939" y="130.0"/>
      <point x="69.12122452272939" y="99.0"/>
      <point x="107.12122452272939" y="78.0" type="curve" smooth="yes"/>
      <point x="235.1212245227294" y="8.0"/>
      <point x="382.1212245227294" y="-22.0"/>
      <point x="544.1212245227293" y="-22.0" type="curve" smooth="yes"/>
      <point x="803.1212245227293" y="-22.0"/>
      <point x="938.1212245227293" y="98.0"/>
    </contour>
  </outline>
</glyph>
<glyph name="t" format="2">
  <advance width="669"/>
  <unicode hex="0074"/>
  <outline>
    <contour>
      <point x="196.68748166643735" y="1144.0" type="curve" smooth="yes"/>
      <point x="196.68748166643735" y="880.119303334137" type="line" smooth="yes"/>
      <point x="196.68748166643735" y="860.9760725670444"/>
      <point x="179.71140909939294" y="844.0"/>
      <point x="160.5681783323003" y="844.0" type="curve" smooth="yes"/>
      <point x="110.68914039468251" y="844.0" type="line" smooth="yes"/>
      <point x="91.62546868419503" y="844.0"/>
      <point x="84.0" y="824.0"/>
      <point x="84.0" y="772.0" type="curve" smooth="yes"/>
      <point x="84.0" y="720.0"/>
      <point x="91.62546868419503" y="700.0"/>
      <point x="110.68914039468251" y="700.0" type="curve" smooth="yes"/>
      <point x="160.5681783323003" y="700.0" type="line" smooth="yes"/>
      <point x="179.71140909939294" y="700.0"/>
      <point x="196.68748166643735" y="683.0239274329556"/>
      <point x="196.68748166643735" y="663.880696665863" type="curve" smooth="yes"/>
      <point x="196.68748166643735" y="331.0" type="line" smooth="yes"/>
      <point x="196.68748166643735" y="102.0"/>
      <point x="291.68748166643735" y="-22.0"/>
      <point x="421.67125706102155" y="-22.0" type="curve" smooth="yes"/>
      <point x="470.3895292100453" y="-22.0"/>
      <point x="528.8514557888736" y="27.0"/>
      <point x="571.2151707010682" y="90.0" type="curve" smooth="yes"/>
      <point x="585.1951966220925" y="111.0"/>
      <point x="590.2788424115556" y="139.0"/>
      <point x="579.6879136835071" y="187.0" type="curve" smooth="yes"/>
      <point x="569.0969849554585" y="235.0"/>
      <point x="554.6933218853123" y="243.0"/>
      <point x="541.9842074116541" y="223.0" type="curve" smooth="yes"/>
      <point x="505.1277754380448" y="166.0"/>
      <point x="461.0695119293625" y="124.0"/>
      <point x="421.67125706102155" y="124.0" type="curve" smooth="yes"/>
      <point x="365.32751622780296" y="124.0"/>
      <point x="346.68748166643735" y="197.0"/>
      <point x="346.68748166643735" y="344.0" type="curve" smooth="yes"/>
      <point x="346.68748166643735" y="652.0" type="line" smooth="yes"/>
      <point x="346.68748166643735" y="677.44"/>
      <point x="369.2474816664373" y="700.0"/>
      <point x="394.68748166643735" y="700.0" type="curve" smooth="yes"/>
      <point x="520.8023499555568" y="700.0" type="line" smooth="yes"/>
      <point x="539.8660216660442" y="700.0"/>
      <point x="547.4914903502392" y="720.0"/>
      <point x="547.4914903502392" y="772.0" type="curve" smooth="yes"/>
      <point x="547.4914903502392" y="824.0"/>
      <point x="539.8660216660442" y="844.0"/>
      <point x="520.8023499555568" y="844.0" type="curve" smooth="yes"/>
      <point x="394.68748166643735" y="844.0" type="line" smooth="yes"/>
      <point x="369.2474816664373" y="844.0"/>
      <point x="346.68748166643735" y="866.56"/>
      <point x="346.68748166643735" y="892.0" type="curve" smooth="yes"/>
      <point x="346.68748166643735" y="1144.0" type="line" smooth="yes"/>
      <point x="346.68748166643735" y="1190.0"/>
      <point x="327.68748166643735" y="1209.0"/>
      <point x="271.68748166643735" y="1209.0" type="curve" smooth="yes"/>
      <point x="215.68748166643735" y="1209.0"/>
      <point x="196.68748166643735" y="1190.0"/>
    </contour>
  </outline>
</glyph>
<glyph name="u" format="2">
  <advance width="1010"/>
  <unicode hex="0075"/>
  <outline>
    <contour>
      <point x="850.0" y="934.0" type="line" smooth="yes"/>
      <point x="794.0" y="934.0"/>
      <point x="776.0" y="915.0"/>
      <point x="776.0" y="869.0" type="curve" smooth="yes"/>
      <point x="776.0" y="532.0" type="line" smooth="yes"/>
      <point x="776.0" y="304.0"/>
      <point x="587.0" y="126.0"/>
      <point x="416.0" y="126.0" type="curve" smooth="yes"/>
      <point x="287.0" y="126.0"/>
      <point x="234.0" y="204.0"/>
      <point x="234.0" y="319.0" type="curve" smooth="yes"/>
      <point x="234.0" y="869.0" type="line" smooth="yes"/>
      <point x="234.0" y="915.0"/>
      <point x="216.0" y="934.0"/>
      <point x="160.0" y="934.0" type="curve" smooth="yes"/>
      <point x="158.0" y="934.0" type="line" smooth="yes"/>
      <point x="102.0" y="934.0"/>
      <point x="84.0" y="915.0"/>
      <point x="84.0" y="869.0" type="curve" smooth="yes"/>
      <point x="84.0" y="304.0" type="line" smooth="yes"/>
      <point x="84.0" y="104.0"/>
      <point x="197.0" y="-22.0"/>
      <point x="401.0" y="-22.0" type="curve" smooth="yes"/>
      <point x="547.0" y="-22.0"/>
      <point x="698.0" y="82.0"/>
      <point x="759.9239386484509" y="177.70063245669672" type="curve" smooth="yes"/>
      <point x="773.7442511647719" y="199.05929725464745"/>
      <point x="786.0" y="195.44"/>
      <point x="786.0" y="170.0" type="curve" smooth="yes"/>
      <point x="786.0" y="55.0" type="line" smooth="yes"/>
      <point x="786.0" y="9.0"/>
      <point x="802.0" y="-10.0"/>
      <point x="855.0" y="-10.0" type="curve" smooth="yes"/>
      <point x="857.0" y="-10.0" type="line" smooth="yes"/>
      <point x="910.0" y="-10.0"/>
      <point x="926.0" y="9.0"/>
      <point x="926.0" y="55.0" type="curve" smooth="yes"/>
      <point x="926.0" y="869.0" type="line" smooth="yes"/>
      <point x="926.0" y="915.0"/>
      <point x="908.0" y="934.0"/>
      <point x="852.0" y="934.0" type="curve" smooth="yes"/>
    </contour>
  </outline>
</glyph>
<glyph name="v" format="2">
  <advance width="1088"/>
  <unicode hex="0076"/>
  <outline>
    <contour>
      <point x="884.1441395223087" y="894.0" type="curve" smooth="yes"/>
      <point x="554.8673606143761" y="166.68570305924314" type="line" smooth="yes"/>
      <point x="549.1840534355804" y="154.1322804378443"/>
      <point x="539.104225609037" y="154.1322804378443"/>
      <point x="533.4209184302413" y="166.68570305924314" type="curve" smooth="yes"/>
      <point x="204.14413952230876" y="894.0" type="line" smooth="yes"/>
      <point x="184.14413952230876" y="938.0"/>
      <point x="159.14413952230876" y="946.0"/>
      <point x="107.14413952230876" y="924.0" type="curve" smooth="yes"/>
      <point x="55.14413952230876" y="902.0"/>
      <point x="43.14413952230876" y="877.0"/>
      <point x="63.14413952230876" y="833.0" type="curve" smooth="yes"/>
      <point x="426.14413952230876" y="40.0" type="line" smooth="yes"/>
      <point x="446.14413952230876" y="-3.0"/>
      <point x="478.14413952230876" y="-22.0"/>
      <point x="544.1441395223087" y="-22.0" type="curve" smooth="yes"/>
      <point x="610.1441395223087" y="-22.0"/>
      <point x="642.1441395223087" y="-3.0"/>
      <point x="662.1441395223087" y="40.0" type="curve" smooth="yes"/>
      <point x="1025.1441395223087" y="833.0" type="line" smooth="yes"/>
      <point x="1045.1441395223087" y="877.0"/>
      <point x="1033.1441395223087" y="902.0"/>
      <point x="981.1441395223087" y="924.0" type="curve" smooth="yes"/>
      <point x="929.1441395223087" y="946.0"/>
      <point x="904.1441395223087" y="938.0"/>
    </contour>
  </outline>
</glyph>
<glyph name="w" format="2">
  <advance width="1220"/>
  <unicode hex="0077"/>
  <outline>
    <contour>
      <point x="1019.2281119538193" y="883.0" type="curve" smooth="yes"/>
      <point x="860.2281119538193" y="210.0" type="line"/>
      <point x="685.2281119538193" y="743.0" type="line" smooth="yes"/>
      <point x="676.2281119538193" y="769.0"/>
      <point x="654.2281119538193" y="790.0"/>
      <point x="610.2281119538193" y="790.0" type="curve" smooth="yes"/>
      <point x="566.2281119538193" y="790.0"/>
      <point x="544.2281119538193" y="769.0"/>
      <point x="535.2281119538193" y="743.0" type="curve" smooth="yes"/>
      <point x="360.22811195381934" y="210.0" type="line"/>
      <point x="201.22811195381934" y="883.0" type="line" smooth="yes"/>
      <point x="190.22811195381934" y="930.0"/>
      <point x="169.22811195381934" y="941.0"/>
      <point x="114.22811195381932" y="930.0" type="curve" smooth="yes"/>
      <point x="58.22811195381932" y="919.0"/>
      <point x="46.22811195381932" y="896.0"/>
      <point x="58.22811195381932" y="849.0" type="curve" smooth="yes"/>
      <point x="257.22811195381934" y="43.0" type="line" smooth="yes"/>
      <point x="269.22811195381934" y="-4.0"/>
      <point x="288.22811195381934" y="-22.0"/>
      <point x="339.22811195381934" y="-22.0" type="curve" smooth="yes"/>
      <point x="396.22811195381934" y="-22.0"/>
      <point x="426.22811195381934" y="-3.0"/>
      <point x="441.22811195381934" y="43.0" type="curve" smooth="yes"/>
      <point x="610.2281119538193" y="555.0" type="line"/>
      <point x="779.2281119538193" y="43.0" type="line" smooth="yes"/>
      <point x="794.2281119538193" y="-3.0"/>
      <point x="824.2281119538193" y="-22.0"/>
      <point x="881.2281119538193" y="-22.0" type="curve" smooth="yes"/>
      <point x="932.2281119538193" y="-22.0"/>
      <point x="951.2281119538193" y="-4.0"/>
      <point x="963.2281119538193" y="43.0" type="curve" smooth="yes"/>
      <point x="1162.2281119538193" y="849.0" type="line" smooth="yes"/>
      <point x="1174.2281119538193" y="896.0"/>
      <point x="1162.2281119538193" y="919.0"/>
      <point x="1106.2281119538193" y="930.0" type="curve" smooth="yes"/>
      <point x="1051.2281119538193" y="941.0"/>
      <point x="1030.2281119538193" y="930.0"/>
    </contour>
  </outline>
</glyph>
<glyph name="x" format="2">
  <advance width="1014"/>
  <unicode hex="0078"/>
  <outline>
    <contour>
      <point x="793.2089889960272" y="909.0" type="curve" smooth="yes"/>
      <point x="538.5220167596111" y="613.1015407685572" type="line" smooth="yes"/>
      <point x="521.9261120449116" y="593.8202143955968"/>
      <point x="492.49186594714274" y="593.8202143955968"/>
      <point x="475.89596123244326" y="613.1015407685572" type="curve" smooth="yes"/>
      <point x="221.2089889960272" y="909.0" type="line" smooth="yes"/>
      <point x="190.2089889960272" y="945.0"/>
      <point x="162.2089889960272" y="947.0"/>
      <point x="111.20898899602719" y="924.0" type="curve" smooth="yes"/>
      <point x="65.20898899602719" y="903.0"/>
      <point x="52.20898899602719" y="872.0"/>
      <point x="84.20898899602719" y="835.0" type="curve" smooth="yes"/>
      <point x="367.5780079743538" y="507.4057576125388" type="line" smooth="yes"/>
      <point x="384.2211205427938" y="488.1651650012331"/>
      <point x="384.2916809507291" y="453.97955977382134"/>
      <point x="367.7281365018756" y="434.67042734144997" type="curve" smooth="yes"/>
      <point x="71.20898899602719" y="89.0" type="line" smooth="yes"/>
      <point x="40.20898899602719" y="52.0"/>
      <point x="52.20898899602719" y="21.0"/>
      <point x="98.20898899602719" y="0.0" type="curve" smooth="yes"/>
      <point x="149.2089889960272" y="-23.0"/>
      <point x="177.2089889960272" y="-21.0"/>
      <point x="208.2089889960272" y="15.0" type="curve" smooth="yes"/>
      <point x="476.13565838800423" y="330.4488230745601" type="line" smooth="yes"/>
      <point x="492.60452361025636" y="349.83877094172294"/>
      <point x="521.813454381798" y="349.83877094172294"/>
      <point x="538.2823196040501" y="330.4488230745601" type="curve" smooth="yes"/>
      <point x="806.2089889960272" y="15.0" type="line" smooth="yes"/>
      <point x="837.2089889960272" y="-21.0"/>
      <point x="865.2089889960272" y="-23.0"/>
      <point x="916.2089889960272" y="0.0" type="curve" smooth="yes"/>
      <point x="962.2089889960272" y="21.0"/>
      <point x="974.2089889960272" y="52.0"/>
      <point x="943.2089889960272" y="89.0" type="curve" smooth="yes"/>
      <point x="646.6898414901788" y="434.67042734144997" type="line" smooth="yes"/>
      <point x="630.1262970413253" y="453.97955977382134"/>
      <point x="630.1968574492605" y="488.1651650012331"/>
      <point x="646.8399700177006" y="507.4057576125388" type="curve" smooth="yes"/>
      <point x="930.2089889960272" y="835.0" type="line" smooth="yes"/>
      <point x="962.2089889960272" y="872.0"/>
      <point x="949.2089889960272" y="903.0"/>
      <point x="903.2089889960272" y="924.0" type="curve" smooth="yes"/>
      <point x="852.2089889960272" y="947.0"/>
      <point x="824.2089889960272" y="945.0"/>
    </contour>
  </outline>
</glyph>
<glyph name="y" format="2">
  <advance width="1105"/>
  <unicode hex="0079"/>
  <outline>
    <contour>
      <point x="893.0269917489898" y="894.0" type="curve" smooth="yes"/>
      <point x="575.3672507969081" y="253.99527117913942" type="line" smooth="yes"/>
      <point x="564.0569135015114" y="231.20777745419554"/>
      <point x="543.9496756643823" y="231.18418441579726"/>
      <point x="532.5858936966335" y="253.94507322510054" type="curve" smooth="yes"/>
      <point x="213.02699174898976" y="894.0" type="line" smooth="yes"/>
      <point x="191.02699174898976" y="937.0"/>
      <point x="168.02699174898976" y="946.0"/>
      <point x="116.02699174898976" y="924.0" type="curve" smooth="yes"/>
      <point x="64.02699174898976" y="902.0"/>
      <point x="50.02699174898976" y="876.0"/>
      <point x="72.02699174898976" y="833.0" type="curve" smooth="yes"/>
      <point x="447.3143206125776" y="85.9492151933985" type="line" smooth="yes"/>
      <point x="458.7343068226885" y="63.21647415847542"/>
      <point x="458.73412626946083" y="22.898118498114954"/>
      <point x="447.31393645677406" y="0.16547974582303482" type="curve" smooth="yes"/>
      <point x="298.02699174898976" y="-297.0" type="line" smooth="yes"/>
      <point x="276.02699174898976" y="-340.0"/>
      <point x="288.02699174898976" y="-366.0"/>
      <point x="340.02699174898976" y="-388.0" type="curve" smooth="yes"/>
      <point x="392.02699174898976" y="-410.0"/>
      <point x="414.02699174898976" y="-401.0"/>
      <point x="436.02699174898976" y="-358.0" type="curve" smooth="yes"/>
      <point x="1033.0269917489898" y="833.0" type="line" smooth="yes"/>
      <point x="1055.0269917489898" y="876.0"/>
      <point x="1042.0269917489898" y="902.0"/>
      <point x="990.0269917489898" y="924.0" type="curve" smooth="yes"/>
      <point x="938.0269917489898" y="946.0"/>
      <point x="914.0269917489898" y="937.0"/>
    </contour>
  </outline>
</glyph>
<glyph name="z" format="2">
  <advance width="980"/>
  <unicode hex="007A"/>
  <outline>
    <contour>
      <point x="137.0" y="924.0" type="line" smooth="yes"/>
      <point x="92.0" y="924.0"/>
      <point x="74.0" y="904.0"/>
      <point x="74.0" y="852.0" type="curve" smooth="yes"/>
      <point x="74.0" y="800.0"/>
      <point x="92.0" y="780.0"/>
      <point x="137.0" y="780.0" type="curve" smooth="yes"/>
      <point x="623.758544921875" y="780.0" type="line" smooth="yes"/>
      <point x="649.198544921875" y="780.0"/>
      <point x="656.6188474888486" y="763.2744757440488"/>
      <point x="639.5464227239464" y="744.4137781788272" type="curve" smooth="yes"/>
      <point x="68.0" y="113.0" type="line" smooth="yes"/>
      <point x="58.0" y="102.0"/>
      <point x="54.0" y="87.0"/>
      <point x="54.0" y="68.0" type="curve" smooth="yes"/>
      <point x="54.0" y="18.0"/>
      <point x="72.0" y="0.0"/>
      <point x="117.0" y="0.0" type="curve" smooth="yes"/>
      <point x="863.0" y="0.0" type="line" smooth="yes"/>
      <point x="908.0" y="0.0"/>
      <point x="926.0" y="20.0"/>
      <point x="926.0" y="72.0" type="curve" smooth="yes"/>
      <point x="926.0" y="124.0"/>
      <point x="908.0" y="144.0"/>
      <point x="863.0" y="144.0" type="curve" smooth="yes"/>
      <point x="346.2403564453125" y="144.0" type="line" smooth="yes"/>
      <point x="320.8003564453125" y="144.0"/>
      <point x="313.3787601389221" y="160.72669523872867"/>
      <point x="330.44972600618394" y="179.58871327389076" type="curve" smooth="yes"/>
      <point x="901.0" y="810.0" type="line" smooth="yes"/>
      <point x="910.0" y="820.0"/>
      <point x="916.0" y="835.0"/>
      <point x="916.0" y="856.0" type="curve" smooth="yes"/>
      <point x="916.0" y="906.0"/>
      <point x="898.0" y="924.0"/>
      <point x="853.0" y="924.0" type="curve" smooth="yes"/>
    </contour>
  </outline>
</glyph>
<glyph name="braceleft" format="2">
  <advance width="954"/>
  <unicode hex="007B"/>
  <outline>
    <contour>
      <point x="409.0" y="959.0" type="curve" smooth="yes"/>
      <point x="414.0" y="885.0" type="line" smooth="yes"/>
      <point x="425.0" y="717.0"/>
      <point x="347.0" y="613.0"/>
      <point x="144.0" y="613.0" type="curve" smooth="yes"/>
      <point x="99.0" y="613.0"/>
      <point x="81.0" y="593.0"/>
      <point x="81.0" y="541.0" type="curve" smooth="yes"/>
      <point x="81.0" y="489.0"/>
      <point x="99.0" y="469.0"/>
      <point x="144.0" y="469.0" type="curve" smooth="yes"/>
      <point x="357.0" y="469.0"/>
      <point x="435.0" y="376.0"/>
      <point x="420.0" y="203.0" type="curve" smooth="yes"/>
      <point x="409.0" y="80.0" type="line" smooth="yes"/>
      <point x="384.0" y="-201.0"/>
      <point x="552.0" y="-333.0"/>
      <point x="831.0" y="-333.0" type="curve" smooth="yes"/>
      <point x="876.0" y="-333.0"/>
      <point x="894.0" y="-313.0"/>
      <point x="894.0" y="-261.0" type="curve" smooth="yes"/>
      <point x="894.0" y="-209.0"/>
      <point x="876.0" y="-189.0"/>
      <point x="831.0" y="-189.0" type="curve" smooth="yes"/>
      <point x="629.0" y="-189.0"/>
      <point x="546.0" y="-105.0"/>
      <point x="559.0" y="92.0" type="curve" smooth="yes"/>
      <point x="567.0" y="213.0" type="line" smooth="yes"/>
      <point x="578.0" y="374.0"/>
      <point x="513.0" y="481.0"/>
      <point x="333.0240722474064" y="534.7971523173513" type="curve" smooth="yes"/>
      <point x="330.891313956281" y="535.4346615891551"/>
      <point x="329.0" y="537.974"/>
      <point x="329.0" y="540.2" type="curve" smooth="yes"/>
      <point x="329.0" y="541.8" type="line" smooth="yes"/>
      <point x="329.0" y="544.026"/>
      <point x="330.82907941795486" y="546.7423910578758"/>
      <point x="332.89165833607416" y="547.5795554422889" type="curve" smooth="yes"/>
      <point x="499.0" y="615.0"/>
      <point x="569.0" y="715.0"/>
      <point x="562.0" y="875.0" type="curve" smooth="yes"/>
      <point x="559.0" y="947.0" type="line" smooth="yes"/>
      <point x="551.0" y="1143.0"/>
      <point x="619.0" y="1228.0"/>
      <point x="831.0" y="1228.0" type="curve" smooth="yes"/>
      <point x="876.0" y="1228.0"/>
      <point x="894.0" y="1248.0"/>
      <point x="894.0" y="1300.0" type="curve" smooth="yes"/>
      <point x="894.0" y="1352.0"/>
      <point x="876.0" y="1372.0"/>
      <point x="831.0" y="1372.0" type="curve" smooth="yes"/>
      <point x="552.0" y="1372.0"/>
      <point x="390.0" y="1240.0"/>
    </contour>
  </outline>
</glyph>
<glyph name="bar" format="2">
  <advance width="394"/>
  <unicode hex="007C"/>
  <outline>
    <contour>
      <point x="122.0" y="1329.0" type="curve" smooth="yes"/>
      <point x="122.0" y="-290.0" type="line" smooth="yes"/>
      <point x="122.0" y="-336.0"/>
      <point x="141.0" y="-355.0"/>
      <point x="197.0" y="-355.0" type="curve" smooth="yes"/>
      <point x="253.0" y="-355.0"/>
      <point x="272.0" y="-336.0"/>
      <point x="272.0" y="-290.0" type="curve" smooth="yes"/>
      <point x="272.0" y="1329.0" type="line" smooth="yes"/>
      <point x="272.0" y="1375.0"/>
      <point x="253.0" y="1394.0"/>
      <point x="197.0" y="1394.0" type="curve" smooth="yes"/>
      <point x="141.0" y="1394.0"/>
      <point x="122.0" y="1375.0"/>
    </contour>
  </outline>
</glyph>
<glyph name="asciitilde" format="2">
  <advance width="1172"/>
  <unicode hex="007E"/>
  <outline>
    <contour>
      <point x="129.09350926916574" y="568.0" type="curve" smooth="yes"/>
      <point x="114.09350926916574" y="543.0"/>
      <point x="123.09350926916574" y="514.0"/>
      <point x="154.09350926916574" y="491.0" type="curve" smooth="yes"/>
      <point x="186.09350926916574" y="467.0"/>
      <point x="215.09350926916574" y="469.0"/>
      <point x="235.09350926916574" y="493.0" type="curve" smooth="yes"/>
      <point x="281.09350926916574" y="548.0"/>
      <point x="331.09350926916574" y="577.0"/>
      <point x="390.09350926916574" y="577.0" type="curve" smooth="yes"/>
      <point x="513.0935092691657" y="577.0"/>
      <point x="619.0935092691657" y="429.0"/>
      <point x="782.0935092691657" y="429.0" type="curve" smooth="yes"/>
      <point x="889.0935092691657" y="429.0"/>
      <point x="983.0935092691657" y="498.0"/>
      <point x="1043.0935092691657" y="596.0" type="curve" smooth="yes"/>
      <point x="1058.0935092691657" y="621.0"/>
      <point x="1049.0935092691657" y="650.0"/>
      <point x="1018.0935092691657" y="673.0" type="curve" smooth="yes"/>
      <point x="986.0935092691657" y="697.0"/>
      <point x="957.0935092691657" y="695.0"/>
      <point x="937.0935092691657" y="671.0" type="curve" smooth="yes"/>
      <point x="891.0935092691657" y="616.0"/>
      <point x="841.0935092691657" y="587.0"/>
      <point x="782.0935092691657" y="587.0" type="curve" smooth="yes"/>
      <point x="658.0935092691657" y="587.0"/>
      <point x="553.0935092691657" y="735.0"/>
      <point x="390.09350926916574" y="735.0" type="curve" smooth="yes"/>
      <point x="283.09350926916574" y="735.0"/>
      <point x="189.09350926916574" y="666.0"/>
    </contour>
  </outline>
</glyph>
<glyph name="cent" format="2">
  <advance width="1088"/>
  <unicode hex="00A2"/>
  <outline>
    <contour>
      <point x="595.0" y="1247.0" type="curve" smooth="yes"/>
      <point x="595.0" y="-60.0" type="line" smooth="yes"/>
      <point x="595.0" y="-106.0"/>
      <point x="616.0" y="-125.0"/>
      <point x="665.0" y="-125.0" type="curve" smooth="yes"/>
      <point x="714.0" y="-125.0"/>
      <point x="735.0" y="-106.0"/>
      <point x="735.0" y="-60.0" type="curve" smooth="yes"/>
      <point x="735.0" y="1247.0" type="line" smooth="yes"/>
      <point x="735.0" y="1293.0"/>
      <point x="714.0" y="1312.0"/>
      <point x="665.0" y="1312.0" type="curve" smooth="yes"/>
      <point x="616.0" y="1312.0"/>
      <point x="595.0" y="1293.0"/>
    </contour>
    <component base="c" xOffset="21.0" yOffset="140"/>
  </outline>
</glyph>
<glyph name="sterling" format="2">
  <advance width="920"/>
  <unicode hex="00A3"/>
  <outline>
    <contour>
      <point x="151.0" y="884.0" type="curve" smooth="yes"/>
      <point x="151.0" y="793.4514770507812"/>
      <point x="189.5230712890625" y="720.0858764648438"/>
      <point x="226.00863647460938" y="648.0" type="curve"/>
      <point x="144.0" y="648.0" type="line" smooth="yes"/>
      <point x="99.0" y="648.0"/>
      <point x="81.0" y="628.0"/>
      <point x="81.0" y="576.0" type="curve" smooth="yes"/>
      <point x="81.0" y="524.0"/>
      <point x="99.0" y="504.0"/>
      <point x="144.0" y="504.0" type="curve" smooth="yes"/>
      <point x="283.58203125" y="504.0" type="line"/>
      <point x="287.65802001953125" y="484.96630859375"/>
      <point x="290.0" y="465.37908935546875"/>
      <point x="290.0" y="445.0" type="curve" smooth="yes"/>
      <point x="290.0" y="341.0"/>
      <point x="251.0" y="254.0"/>
      <point x="134.0" y="138.0" type="curve" smooth="yes"/>
      <point x="120.0" y="124.0"/>
      <point x="115.0" y="112.0"/>
      <point x="115.0" y="95.0" type="curve" smooth="yes"/>
      <point x="115.0" y="53.0"/>
      <point x="138.0" y="0.0"/>
      <point x="169.0" y="0.0" type="curve" smooth="yes"/>
      <point x="776.0" y="0.0" type="line" smooth="yes"/>
      <point x="821.0" y="0.0"/>
      <point x="839.0" y="20.0"/>
      <point x="839.0" y="72.0" type="curve" smooth="yes"/>
      <point x="839.0" y="124.0"/>
      <point x="821.0" y="144.0"/>
      <point x="776.0" y="144.0" type="curve" smooth="yes"/>
      <point x="317.0" y="144.0" type="line"/>
      <point x="398.0" y="236.0"/>
      <point x="442.0" y="336.0"/>
      <point x="442.0" y="446.0" type="curve" smooth="yes"/>
      <point x="442.0" y="466.3487548828125"/>
      <point x="440.6097412109375" y="485.63201904296875"/>
      <point x="438.10931396484375" y="504.0" type="curve"/>
      <point x="676.0" y="504.0" type="line" smooth="yes"/>
      <point x="721.0" y="504.0"/>
      <point x="739.0" y="524.0"/>
      <point x="739.0" y="576.0" type="curve" smooth="yes"/>
      <point x="739.0" y="628.0"/>
      <point x="721.0" y="648.0"/>
      <point x="676.0" y="648.0" type="curve" smooth="yes"/>
      <point x="393.5006103515625" y="648.0" type="line"/>
      <point x="354.0909118652344" y="732.6375732421875"/>
      <point x="305.0" y="800.7938842773438"/>
      <point x="305.0" y="884.0" type="curve" smooth="yes"/>
      <point x="305.0" y="982.0"/>
      <point x="374.0" y="1061.0"/>
      <point x="488.0" y="1061.0" type="curve" smooth="yes"/>
      <point x="572.0" y="1061.0"/>
      <point x="649.0" y="1035.0"/>
      <point x="717.0" y="990.0" type="curve" smooth="yes"/>
      <point x="746.0" y="971.0"/>
      <point x="777.0" y="971.0"/>
      <point x="804.0" y="1021.0" type="curve" smooth="yes"/>
      <point x="832.0" y="1072.0"/>
      <point x="821.0" y="1100.0"/>
      <point x="786.0" y="1122.0" type="curve" smooth="yes"/>
      <point x="700.0" y="1176.0"/>
      <point x="600.0" y="1209.0"/>
      <point x="489.0" y="1209.0" type="curve" smooth="yes"/>
      <point x="284.0" y="1209.0"/>
      <point x="151.0" y="1069.0"/>
    </contour>
  </outline>
</glyph>
<glyph name="currency" format="2">
  <advance width="1168"/>
  <unicode hex="00A4"/>
  <outline>
    <contour>
      <point x="173.94162511081296" y="602.0" type="curve" smooth="yes"/>
      <point x="173.94162511081296" y="511.7172546386719"/>
      <point x="200.14098118991453" y="430.9615783691406"/>
      <point x="230.84741890141206" y="387.11735790814737" type="curve" smooth="yes"/>
      <point x="238.75240495508987" y="375.83021497952456"/>
      <point x="237.12164206111962" y="357.18001695030665"/>
      <point x="227.377710616369" y="347.43608550555604" type="curve" smooth="yes"/>
      <point x="103.94162511081296" y="224.0" type="line" smooth="yes"/>
      <point x="71.94162511081296" y="192.0"/>
      <point x="72.94162511081296" y="165.0"/>
      <point x="109.94162511081296" y="128.0" type="curve" smooth="yes"/>
      <point x="146.94162511081296" y="91.0"/>
      <point x="173.94162511081296" y="90.0"/>
      <point x="205.94162511081296" y="122.0" type="curve" smooth="yes"/>
      <point x="330.9928534386346" y="247.05122832782163" type="line" smooth="yes"/>
      <point x="340.7367848833852" y="256.7951597725723"/>
      <point x="359.5944617623031" y="258.73192053852426"/>
      <point x="371.11557020228963" y="251.17199591495358" type="curve" smooth="yes"/>
      <point x="414.96332310885987" y="222.39996337890625"/>
      <point x="495.2901358530005" y="198.0"/>
      <point x="583.941625110813" y="198.0" type="curve" smooth="yes"/>
      <point x="672.5931143686255" y="198.0"/>
      <point x="752.919896595188" y="222.39996337890625"/>
      <point x="796.7676495017581" y="251.17199591495358" type="curve" smooth="yes"/>
      <point x="808.2887579417447" y="258.73192053852426"/>
      <point x="827.1464357398795" y="256.7951606917893"/>
      <point x="836.890368221194" y="247.05123028360262" type="curve" smooth="yes"/>
      <point x="961.941625110813" y="122.0" type="line" smooth="yes"/>
      <point x="993.941625110813" y="90.0"/>
      <point x="1020.941625110813" y="91.0"/>
      <point x="1057.941625110813" y="128.0" type="curve" smooth="yes"/>
      <point x="1094.941625110813" y="165.0"/>
      <point x="1095.941625110813" y="192.0"/>
      <point x="1063.941625110813" y="224.0" type="curve" smooth="yes"/>
      <point x="940.505539605257" y="347.43608550555604" type="line" smooth="yes"/>
      <point x="930.7616081605064" y="357.18001695030665"/>
      <point x="929.1308468395881" y="375.8302138778324"/>
      <point x="937.0358346671331" y="387.11735556412157" type="curve" smooth="yes"/>
      <point x="967.7422842905005" y="430.9615783691406"/>
      <point x="993.941625110813" y="511.7172546386719"/>
      <point x="993.941625110813" y="602.0" type="curve" smooth="yes"/>
      <point x="993.941625110813" y="692.28271484375"/>
      <point x="967.7422842905005" y="773.0384521484375"/>
      <point x="937.0358393551859" y="816.8826477191728" type="curve" smooth="yes"/>
      <point x="929.130849042973" y="828.1697876653159"/>
      <point x="930.7616081605064" y="846.8199830496934"/>
      <point x="940.505539605257" y="856.563914494444" type="curve" smooth="yes"/>
      <point x="1063.941625110813" y="980.0" type="line" smooth="yes"/>
      <point x="1095.941625110813" y="1012.0"/>
      <point x="1094.941625110813" y="1039.0"/>
      <point x="1057.941625110813" y="1076.0" type="curve" smooth="yes"/>
      <point x="1020.941625110813" y="1113.0"/>
      <point x="993.941625110813" y="1114.0"/>
      <point x="961.941625110813" y="1082.0" type="curve" smooth="yes"/>
      <point x="836.8903662654133" y="956.9487411546003" type="line" smooth="yes"/>
      <point x="827.1464348206626" y="947.2048097098497"/>
      <point x="808.2887601223172" y="945.2680522670263"/>
      <point x="796.767654141274" y="952.8279806379549" type="curve" smooth="yes"/>
      <point x="752.919896595188" y="981.6000366210938"/>
      <point x="672.5931143686255" y="1006.0"/>
      <point x="583.941625110813" y="1006.0" type="curve" smooth="yes"/>
      <point x="495.2901358530005" y="1006.0"/>
      <point x="414.96332310885987" y="981.6000366210938"/>
      <point x="371.1155655627739" y="952.8279806379549" type="curve" smooth="yes"/>
      <point x="359.5944595817307" y="945.2680522670263"/>
      <point x="340.7367858026023" y="947.2048106290665"/>
      <point x="330.9928553944155" y="956.948743110381" type="curve" smooth="yes"/>
      <point x="205.94162511081296" y="1082.0" type="line" smooth="yes"/>
      <point x="173.94162511081296" y="1114.0"/>
      <point x="146.94162511081296" y="1113.0"/>
      <point x="109.94162511081296" y="1076.0" type="curve" smooth="yes"/>
      <point x="72.94162511081296" y="1039.0"/>
      <point x="71.94162511081296" y="1012.0"/>
      <point x="103.94162511081296" y="980.0" type="curve" smooth="yes"/>
      <point x="227.377710616369" y="856.563914494444" type="line" smooth="yes"/>
      <point x="237.12164206111962" y="846.8199830496934"/>
      <point x="238.75240275170503" y="828.1697865636232"/>
      <point x="230.84741421335931" y="816.8826453751459" type="curve" smooth="yes"/>
      <point x="200.14098118991453" y="773.0384521484375"/>
      <point x="173.94162511081296" y="692.28271484375"/>
    </contour>
    <contour>
      <point x="845.941625110813" y="602.0" type="curve" smooth="yes"/>
      <point x="845.941625110813" y="450.0"/>
      <point x="740.941625110813" y="340.0"/>
      <point x="583.941625110813" y="340.0" type="curve" smooth="yes"/>
      <point x="426.941625110813" y="340.0"/>
      <point x="321.941625110813" y="450.0"/>
      <point x="321.941625110813" y="602.0" type="curve" smooth="yes"/>
      <point x="321.941625110813" y="754.0"/>
      <point x="426.941625110813" y="864.0"/>
      <point x="583.941625110813" y="864.0" type="curve" smooth="yes"/>
      <point x="740.941625110813" y="864.0"/>
      <point x="845.941625110813" y="754.0"/>
    </contour>
  </outline>
</glyph>
<glyph name="yen" format="2">
  <advance width="1139"/>
  <unicode hex="00A5"/>
  <outline>
    <contour>
      <point x="188.6991430102854" y="434.0" type="line" smooth="yes"/>
      <point x="143.6991430102854" y="434.0"/>
      <point x="125.6991430102854" y="414.0"/>
      <point x="125.6991430102854" y="362.0" type="curve" smooth="yes"/>
      <point x="125.6991430102854" y="310.0"/>
      <point x="143.6991430102854" y="290.0"/>
      <point x="188.6991430102854" y="290.0" type="curve" smooth="yes"/>
      <point x="446.6991430102854" y="290.0" type="line" smooth="yes"/>
      <point x="472.13914301028547" y="290.0"/>
      <point x="494.6991430102854" y="267.44"/>
      <point x="494.6991430102854" y="242.0" type="curve" smooth="yes"/>
      <point x="494.6991430102854" y="55.0" type="line" smooth="yes"/>
      <point x="494.6991430102854" y="9.0"/>
      <point x="512.6991430102854" y="-10.0"/>
      <point x="568.6991430102854" y="-10.0" type="curve" smooth="yes"/>
      <point x="570.6991430102854" y="-10.0" type="line" smooth="yes"/>
      <point x="626.6991430102854" y="-10.0"/>
      <point x="644.6991430102854" y="9.0"/>
      <point x="644.6991430102854" y="55.0" type="curve" smooth="yes"/>
      <point x="644.6991430102854" y="242.0" type="line" smooth="yes"/>
      <point x="644.6991430102854" y="267.44"/>
      <point x="667.2591430102854" y="290.0"/>
      <point x="692.6991430102854" y="290.0" type="curve" smooth="yes"/>
      <point x="950.6991430102854" y="290.0" type="line" smooth="yes"/>
      <point x="995.6991430102854" y="290.0"/>
      <point x="1013.6991430102854" y="310.0"/>
      <point x="1013.6991430102854" y="362.0" type="curve" smooth="yes"/>
      <point x="1013.6991430102854" y="414.0"/>
      <point x="995.6991430102854" y="434.0"/>
      <point x="950.6991430102854" y="434.0" type="curve" smooth="yes"/>
      <point x="667.1495067798166" y="434.0" type="line" smooth="yes"/>
      <point x="655.250813981965" y="434.0"/>
      <point x="644.6991430102854" y="444.5516709716797"/>
      <point x="644.6991430102854" y="456.45036376953124" type="curve" smooth="yes"/>
      <point x="644.6991430102854" y="465.00288330078126" type="line" smooth="yes"/>
      <point x="644.6991430102854" y="476.9015760986328"/>
      <point x="650.4847499378018" y="496.27733414914746"/>
      <point x="657.0089449837245" y="506.2279004295358" type="curve" smooth="yes"/>
      <point x="692.1726515108846" y="559.8588526006082" type="line" smooth="yes"/>
      <point x="706.1217066540046" y="581.1336607222859"/>
      <point x="741.0516234790354" y="600.0"/>
      <point x="766.4916234790354" y="600.0" type="curve" smooth="yes"/>
      <point x="970.6991430102854" y="600.0" type="line" smooth="yes"/>
      <point x="1015.6991430102854" y="600.0"/>
      <point x="1033.6991430102853" y="620.0"/>
      <point x="1033.6991430102853" y="672.0" type="curve" smooth="yes"/>
      <point x="1033.6991430102853" y="724.0"/>
      <point x="1015.6991430102854" y="744.0"/>
      <point x="970.6991430102854" y="744.0" type="curve" smooth="yes"/>
      <point x="860.9066625415354" y="744.0" type="line" smooth="yes"/>
      <point x="835.4666625415354" y="744.0"/>
      <point x="825.276576419857" y="762.8663412097552"/>
      <point x="839.225628240092" y="784.1411515101174" type="curve" smooth="yes"/>
      <point x="1043.6991430102853" y="1096.0" type="line" smooth="yes"/>
      <point x="1069.6991430102853" y="1136.0"/>
      <point x="1062.6991430102853" y="1163.0"/>
      <point x="1010.6991430102854" y="1187.0" type="curve" smooth="yes"/>
      <point x="960.6991430102854" y="1210.0"/>
      <point x="932.6991430102854" y="1205.0"/>
      <point x="910.6991430102854" y="1172.0" type="curve" smooth="yes"/>
      <point x="595.9996318151723" y="686.3030575127276" type="line" smooth="yes"/>
      <point x="582.1661527778791" y="664.9529179880133"/>
      <point x="557.6211884718963" y="664.9463604984164"/>
      <point x="543.7763035045705" y="686.2891054072026" type="curve" smooth="yes"/>
      <point x="228.6991430102854" y="1172.0" type="line" smooth="yes"/>
      <point x="207.6991430102854" y="1205.0"/>
      <point x="178.6991430102854" y="1210.0"/>
      <point x="128.6991430102854" y="1187.0" type="curve" smooth="yes"/>
      <point x="76.6991430102854" y="1163.0"/>
      <point x="69.6991430102854" y="1136.0"/>
      <point x="95.6991430102854" y="1096.0" type="curve" smooth="yes"/>
      <point x="299.9249425393507" y="784.1552270884947" type="line" smooth="yes"/>
      <point x="313.8626097923641" y="762.8729567315925"/>
      <point x="303.6624279223948" y="744.0"/>
      <point x="278.2224279223948" y="744.0" type="curve" smooth="yes"/>
      <point x="168.6991430102854" y="744.0" type="line" smooth="yes"/>
      <point x="123.6991430102854" y="744.0"/>
      <point x="105.6991430102854" y="724.0"/>
      <point x="105.6991430102854" y="672.0" type="curve" smooth="yes"/>
      <point x="105.6991430102854" y="620.0"/>
      <point x="123.6991430102854" y="600.0"/>
      <point x="168.6991430102854" y="600.0" type="curve" smooth="yes"/>
      <point x="372.5273900805979" y="600.0" type="line" smooth="yes"/>
      <point x="397.9673900805979" y="600.0"/>
      <point x="432.8872080704771" y="581.1270431766228"/>
      <point x="446.82487516544717" y="559.8447727162187" type="curve" smooth="yes"/>
      <point x="482.56290239766247" y="505.27420820963954" type="line" smooth="yes"/>
      <point x="488.99510992235264" y="495.45247984827665"/>
      <point x="494.6991430102854" y="476.33124708862306"/>
      <point x="494.6991430102854" y="464.5907342529297" type="curve" smooth="yes"/>
      <point x="494.6991430102854" y="456.1519110107422" type="line" smooth="yes"/>
      <point x="494.6991430102854" y="444.4113981750488"/>
      <point x="484.2877448352366" y="434.0"/>
      <point x="472.5472319995432" y="434.0" type="curve" smooth="yes"/>
    </contour>
  </outline>
</glyph>
